SplineFontDB: 3.0
FontName: Sahel-Bold
FullName: Sahel Bold
FamilyName: Sahel
Weight: Bold
Copyright: Copyright (c) 2016 by Saber Rastikerdar. All Rights Reserved.\nBased on DejaVu font.\nNon-Arabic(Latin) glyphs and data are imported from Open Sans font under the Apache License, Version 2.0.
Version: 1.0.0-alpha22
ItalicAngle: 0
UnderlinePosition: -500
UnderlineWidth: 100
Ascent: 1638
Descent: 410
InvalidEm: 0
LayerCount: 2
Layer: 0 1 "Back" 1
Layer: 1 1 "Fore" 0
XUID: [1021 502 1027637223 9239994]
UniqueID: 4192453
UseUniqueID: 1
FSType: 0
OS2Version: 1
OS2_WeightWidthSlopeOnly: 0
OS2_UseTypoMetrics: 1
CreationTime: 1431850356
ModificationTime: 1535593490
PfmFamily: 33
TTFWeight: 700
TTFWidth: 5
LineGap: 0
VLineGap: 0
Panose: 2 11 6 3 3 8 4 2 2 4
OS2TypoAscent: 2200
OS2TypoAOffset: 0
OS2TypoDescent: -1000
OS2TypoDOffset: 0
OS2TypoLinegap: 0
OS2WinAscent: 2200
OS2WinAOffset: 0
OS2WinDescent: 1000
OS2WinDOffset: 0
HheadAscent: 2200
HheadAOffset: 0
HheadDescent: -1000
HheadDOffset: 0
OS2SubXSize: 1331
OS2SubYSize: 1433
OS2SubXOff: 0
OS2SubYOff: 286
OS2SupXSize: 1331
OS2SupYSize: 1433
OS2SupXOff: 0
OS2SupYOff: 983
OS2StrikeYSize: 102
OS2StrikeYPos: 530
OS2CapHeight: 1638
OS2XHeight: 1082
OS2Vendor: '    '
OS2CodePages: 00000041.20080000
OS2UnicodeRanges: 8000200f.80000000.00000008.00000000
Lookup: 1 9 0 "'fina' Terminal Forms in Arabic lookup 9" { "'fina' Terminal Forms in Arabic lookup 9 subtable"  } ['fina' ('arab' <'KUR ' 'SND ' 'URD ' 'dflt' > ) ]
Lookup: 1 9 0 "'medi' Medial Forms in Arabic lookup 11" { "'medi' Medial Forms in Arabic lookup 11 subtable"  } ['medi' ('arab' <'KUR ' 'SND ' 'URD ' 'dflt' > ) ]
Lookup: 1 9 0 "'init' Initial Forms in Arabic lookup 13" { "'init' Initial Forms in Arabic lookup 13 subtable"  } ['init' ('arab' <'KUR ' 'SND ' 'URD ' 'dflt' > ) ]
Lookup: 4 1 1 "'rlig' Required Ligatures in Arabic lookup 14" { "'rlig' Required Ligatures in Arabic lookup 14 subtable"  } ['rlig' ('arab' <'KUR ' 'dflt' > ) ]

StartChar: afii57388
Encoding: 1548 1548 2
Width: 748
VWidth: 3395
GlyphClass: 2
Flags: W
LayerCount: 2
Fore
SplineSet
361.768554688 348.022460938 m 1,0,1
 463.129882812 332.797851562 463.129882812 332.797851562 498.432617188 275.934570312 c 0,2,3
 528.196289062 228.265625 528.196289062 228.265625 528.399414062 180.0546875 c 0,4,5
 528.194335938 6.146484375 528.194335938 6.146484375 359.6640625 4.2666015625 c 0,6,7
 160.198242188 2.1337890625 160.198242188 2.1337890625 180.82421875 244.2265625 c 0,8,9
 203.931640625 520.530273438 203.931640625 520.530273438 500.436523438 702.393554688 c 0,10,11
 548.462890625 731.728515625 548.462890625 731.728515625 567.543945312 706.612304688 c 0,12,13
 585.795898438 680.529296875 585.795898438 680.529296875 555.8359375 658.154296875 c 0,14,15
 417.263671875 553.596679688 417.263671875 553.596679688 373.588867188 426.075195312 c 0,16,17
 360.73046875 389.331054688 360.73046875 389.331054688 361.768554688 348.022460938 c 1,0,1
EndSplineSet
EndChar

StartChar: uni0615
Encoding: 1557 1557 3
Width: 0
VWidth: 3443
GlyphClass: 4
Flags: W
AnchorPoint: "Anchor-10" 718.381 1977.45 mark 0
AnchorPoint: "Anchor-9" 718.381 1977.45 mark 0
AnchorPoint: "Anchor-1" 550.381 2842.63 basemark 0
AnchorPoint: "Anchor-1" 718.381 1977.45 mark 0
LayerCount: 2
Fore
SplineSet
696.004882812 2135.57226562 m 5,0,-1
 777.061523438 2135.57226562 l 6,1,2
 968.041851297 2135.51387015 968.041851297 2135.51387015 1034.14648438 2210.09667969 c 4,3,4
 1061.35071234 2240.07968044 1061.35071234 2240.07968044 1061.35071234 2279.40010445 c 4,5,6
 1061.35071234 2355.58604619 1061.35071234 2355.58604619 988.940469502 2355.58604619 c 4,7,8
 986.249215406 2355.58604619 986.249215406 2355.58604619 983.454101562 2355.49511719 c 4,9,10
 929.795811237 2354.21059649 929.795811237 2354.21059649 853.915972025 2291.99738809 c 132,-1,11
 778.036132812 2229.78417969 778.036132812 2229.78417969 711.391601562 2153.24316406 c 6,12,-1
 696.004882812 2135.57226562 l 5,0,-1
1160.86230469 2190.74902344 m 4,13,14
 1093.15629156 2016.40245902 1093.15629156 2016.40245902 727.262695312 2016.17675781 c 6,15,-1
 413.799804688 2015.98339844 l 5,16,-1
 351.418945312 2135.57226562 l 5,17,-1
 494.572265625 2135.57226562 l 5,18,-1
 494.572265625 2806.609375 l 5,19,-1
 615.650390625 2806.609375 l 5,20,-1
 615.650390625 2208.01660156 l 5,21,-1
 634.849609375 2233.60644531 l 6,22,23
 830.192474014 2493.58705629 830.192474014 2493.58705629 998.96484375 2492.22949219 c 4,24,25
 1183 2489 1183 2489 1183.30985113 2300.26680843 c 4,26,27
 1183 2248 1183 2248 1160.86230469 2190.74902344 c 4,13,14
EndSplineSet
EndChar

StartChar: uni061B
Encoding: 1563 1563 4
Width: 748
VWidth: 3395
GlyphClass: 2
Flags: W
LayerCount: 2
Fore
SplineSet
181.864257812 175.999023438 m 128,-1,1
 181.864257812 249.598632812 181.864257812 249.598632812 233.064453125 300.797851562 c 128,-1,2
 284.263671875 351.998046875 284.263671875 351.998046875 357.86328125 351.998046875 c 128,-1,3
 431.462890625 351.998046875 431.462890625 351.998046875 482.663085938 300.797851562 c 128,-1,4
 533.862304688 249.598632812 533.862304688 249.598632812 533.862304688 175.999023438 c 128,-1,5
 533.862304688 102.399414062 533.862304688 102.399414062 482.663085938 51.19921875 c 128,-1,6
 431.462890625 0 431.462890625 0 357.86328125 0 c 128,-1,7
 284.263671875 0 284.263671875 0 233.064453125 51.19921875 c 128,-1,0
 181.864257812 102.399414062 181.864257812 102.399414062 181.864257812 175.999023438 c 128,-1,1
361.03515625 900.762695312 m 1,8,9
 462.396484375 885.328125 462.396484375 885.328125 497.69921875 828.674804688 c 0,10,11
 527.462890625 780.794921875 527.462890625 780.794921875 527.666015625 732.795898438 c 0,12,13
 527.462890625 558.9296875 527.462890625 558.9296875 358.9296875 557.006835938 c 0,14,15
 159.46484375 554.663085938 159.46484375 554.663085938 180.090820312 796.966796875 c 0,16,17
 203.198242188 1068.79296875 203.198242188 1068.79296875 499.703125 1255.13378906 c 0,18,19
 547.728515625 1285.32519531 547.728515625 1285.32519531 566.810546875 1259.35253906 c 0,20,21
 585.0625 1234.12597656 585.0625 1234.12597656 555.102539062 1210.89453125 c 0,22,23
 416.529296875 1106.12597656 416.529296875 1106.12597656 372.85546875 978.815429688 c 0,24,25
 359.997070312 941.860351562 359.997070312 941.860351562 361.03515625 900.762695312 c 1,8,9
EndSplineSet
EndChar

StartChar: uni061F
Encoding: 1567 1567 5
Width: 914
VWidth: 3386
GlyphClass: 2
Flags: W
LayerCount: 2
Fore
SplineSet
361.596679688 175.999023438 m 128,-1,1
 361.596679688 249.598632812 361.596679688 249.598632812 412.796875 300.797851562 c 128,-1,2
 463.99609375 351.998046875 463.99609375 351.998046875 537.595703125 351.998046875 c 128,-1,3
 611.1953125 351.998046875 611.1953125 351.998046875 662.39453125 300.797851562 c 128,-1,4
 713.594726562 249.598632812 713.594726562 249.598632812 713.594726562 175.999023438 c 128,-1,5
 713.594726562 102.399414062 713.594726562 102.399414062 662.39453125 51.19921875 c 128,-1,6
 611.1953125 0 611.1953125 0 537.595703125 0 c 128,-1,7
 463.99609375 0 463.99609375 0 412.796875 51.19921875 c 128,-1,0
 361.596679688 102.399414062 361.596679688 102.399414062 361.596679688 175.999023438 c 128,-1,1
730.770507812 981.560546875 m 1,8,9
 705 1190 705 1190 494.94140625 1190.49414062 c 0,10,11
 372 1191 372 1191 325.680664062 1119.42285156 c 0,12,13
 299 1079 299 1079 299.38671875 1027 c 0,14,15
 300.00084616 960.908938071 300.00084616 960.908938071 433.33203125 851.262695312 c 2,16,-1
 481.033203125 812.03515625 l 6,17,18
 624.127929688 693.894379667 624.127929688 693.894379667 624.127929688 564.729492188 c 2,19,-1
 624.127929688 555.893554688 l 2,20,21
 624.000450798 534.077148438 624.000450798 534.077148438 582.794921875 534.077148438 c 2,22,-1
 504.818359375 534.077148438 l 2,23,24
 454.86328125 533.999788278 454.86328125 533.999788278 454.86328125 554.575195312 c 2,25,-1
 454.86328125 565.87109375 l 2,26,27
 454.999858773 600.963712708 454.999858773 600.963712708 286.7421875 729.961914062 c 2,28,-1
 202.9140625 794.23046875 l 2,29,30
 51 911 51 911 50.279296875 1065.76660156 c 0,31,32
 50 1215 50 1215 139 1317.15917969 c 0,33,34
 256 1452 256 1452 453.334960938 1452.16601562 c 0,35,36
 670 1452 670 1452 783.723632812 1292.24707031 c 0,37,38
 852 1196 852 1196 852.103515625 1062.51757812 c 0,39,40
 852 1016 852 1016 849.125 982.418945312 c 1,41,-1
 730.770507812 981.560546875 l 1,8,9
EndSplineSet
EndChar

StartChar: uni0621
Encoding: 1569 1569 6
Width: 891
VWidth: 3747
GlyphClass: 2
Flags: W
AnchorPoint: "Anchor-7" 460.756 -80.821 basechar 0
AnchorPoint: "Anchor-10" 436.642 1214.14 basechar 0
LayerCount: 2
Fore
SplineSet
688.190429688 529.677734375 m 1,0,1
 587.652497915 579.664349931 587.652497915 579.664349931 500.151507753 574.225393924 c 0,2,3
 396 568 396 568 336.701171875 487.94921875 c 0,4,5
 325 472 325 472 325.657226562 456.034179688 c 24,6,7
 328 420 328 420 395.338728717 373.764537422 c 0,8,9
 461 330 461 330 484.446289062 318.86328125 c 1,10,11
 526.331093763 320.918124468 526.331093763 320.918124468 625.3125 346.05859375 c 2,12,-1
 726.532226562 371.767578125 l 2,13,14
 732 373 732 373 737.286525227 374.679051838 c 0,15,16
 781 387 781 387 787.091520645 380.665058469 c 0,17,18
 801 366 801 366 797.230634844 346.633594532 c 0,19,20
 794 327 794 327 793.139648438 322.3125 c 2,21,-1
 776.399414062 205.590820312 l 1,22,-1
 89.7587890625 16.6728515625 l 1,23,-1
 166.24609375 223.086914062 l 1,24,-1
 253.479492188 247.227539062 l 1,25,-1
 240.823242188 260.1484375 l 2,26,27
 123 381 123 381 184.891601562 569.9921875 c 0,28,29
 231 712 231 712 369.389208108 761.913315575 c 0,30,31
 423.13397349 781.474987056 423.13397349 781.474987056 479 782.065544854 c 0,32,33
 628.699655451 783.648014639 628.699655451 783.648014639 732.28515625 682.68359375 c 1,34,35
 723 633 723 633 688.190429688 529.677734375 c 1,0,1
EndSplineSet
EndChar

StartChar: uni0627
Encoding: 1575 1575 12
Width: 464
VWidth: 3713
GlyphClass: 2
Flags: W
AnchorPoint: "Anchor-10" 198.382 1550.05 basechar 0
AnchorPoint: "Anchor-7" 228.03 -216.376 basechar 0
LayerCount: 2
Fore
SplineSet
158.674804688 -4.6689453125 m 2,0,1
 158.595960186 407.490900837 158.595960186 407.490900837 142.782226562 744 c 0,2,3
 130 1016 130 1016 85.19921875 1295.72558594 c 1,4,-1
 272.797851562 1426.22949219 l 6,5,6
 322 1461 322 1461 329 1457 c 4,7,8
 337 1453 337 1453 337.848632812 1407.99023438 c 4,9,10
 353 941 353 941 353.37890625 783.133789062 c 4,11,12
 353 139 353 139 308.762695312 50.1328125 c 4,13,14
 275 -17 275 -17 174.677734375 -15.1103515625 c 0,15,16
 167 -15 167 -15 158.676757812 -14.87890625 c 1,17,-1
 158.674804688 -4.6689453125 l 2,0,1
EndSplineSet
Substitution2: "'fina' Terminal Forms in Arabic lookup 9 subtable" uniFE8E
EndChar

StartChar: uni062D
Encoding: 1581 1581 18
Width: 1296
VWidth: 3747
GlyphClass: 2
Flags: W
AnchorPoint: "Anchor-7" 617.069 -848.974 basechar 0
AnchorPoint: "Anchor-10" 594.639 1126.69 basechar 0
LayerCount: 2
Fore
SplineSet
729.87109375 -699.381835938 m 4,0,1
 415 -699 415 -699 257.336914062 -551.037109375 c 4,2,3
 117 -419 117 -419 117.255859375 -155.077148438 c 4,4,5
 117 345 117 345 698.928710938 549.729492188 c 1,6,7
 695 550 695 550 600.262695312 571.595703125 c 0,8,9
 451 606 451 606 380.891601562 606.16796875 c 0,10,11
 283 606 283 606 182.727539062 487.0390625 c 1,12,-1
 77 542 l 1,13,-1
 83.650390625 561 l 2,14,15
 190 865 190 865 388.663085938 865.099609375 c 0,16,17
 485 865 485 865 975.850585938 717.891601562 c 0,18,19
 1069 690 1069 690 1213.22851562 687.337890625 c 0,20,21
 1231.48036655 686.990866753 1231.48036655 686.990866753 1225.59863281 671.329101562 c 2,22,-1
 1129.859375 416.396484375 l 1,23,24
 758 366 758 366 557.493164062 247 c 0,25,26
 273 79 273 79 272.967773438 -133.244140625 c 4,27,28
 273 -438 273 -438 724.9453125 -437.999023438 c 4,29,30
 910 -438 910 -438 1031.21582031 -422.524414062 c 4,31,32
 1117 -412 1117 -412 1154 -407.16796875 c 4,33,34
 1212.09338977 -399.988458363 1212.09338977 -399.988458363 1184.55078125 -450 c 6,35,-1
 1108 -589 l 6,36,37
 1058 -679 1058 -679 952 -690.094726562 c 4,38,39
 868 -699 868 -699 729.87109375 -699.381835938 c 4,0,1
EndSplineSet
Substitution2: "'fina' Terminal Forms in Arabic lookup 9 subtable" uniFEA2
Substitution2: "'medi' Medial Forms in Arabic lookup 11 subtable" uniFEA4
Substitution2: "'init' Initial Forms in Arabic lookup 13 subtable" uniFEA3
EndChar

StartChar: uni062F
Encoding: 1583 1583 20
Width: 1020
VWidth: 3745
GlyphClass: 2
Flags: W
AnchorPoint: "Anchor-10" 460.728 1336.38 basechar 0
AnchorPoint: "Anchor-7" 415.616 -217.16 basechar 0
LayerCount: 2
Fore
SplineSet
425.060546875 -0.2041015625 m 0,0,1
 89 0 89 0 87.26171875 299.416015625 c 0,2,3
 87 345 87 345 109.764648438 439.969726562 c 1,4,-1
 233.926757812 427.481445312 l 1,5,-1
 235.02734375 398.547851562 l 2,6,7
 239 296 239 296 442.375 296.626953125 c 4,8,9
 761 297 761 297 760.09765625 381.294921875 c 0,10,11
 760 389 760 389 756.749023438 398.086914062 c 0,12,13
 696 546 696 546 337 790 c 1,14,-1
 432.431640625 1024.66601562 l 2,15,16
 441 1046 441 1046 457.40234375 1047.65429688 c 0,17,18
 469 1049 469 1049 493.895507812 1028.93261719 c 0,19,20
 920 709 920 709 919.78125 389.641601562 c 0,21,22
 920 -0 920 -0 425.060546875 -0.2041015625 c 0,0,1
EndSplineSet
PairPos2: "'kern' Horizontal Kerning lookup 15-7" uniFB90 dx=-120 dy=0 dh=-120 dv=0 dx=0 dy=0 dh=0 dv=0
PairPos2: "'kern' Horizontal Kerning lookup 15-7" uni06A9 dx=-120 dy=0 dh=-120 dv=0 dx=0 dy=0 dh=0 dv=0
PairPos2: "'kern' Horizontal Kerning lookup 15-7" uniFB94 dx=-120 dy=0 dh=-120 dv=0 dx=0 dy=0 dh=0 dv=0
PairPos2: "'kern' Horizontal Kerning lookup 15-7" afii57509 dx=-120 dy=0 dh=-120 dv=0 dx=0 dy=0 dh=0 dv=0
Substitution2: "'fina' Terminal Forms in Arabic lookup 9 subtable" uniFEAA
EndChar

StartChar: uni0631
Encoding: 1585 1585 22
Width: 752
VWidth: 3518
GlyphClass: 2
Flags: W
AnchorPoint: "Anchor-7" 361.78 -671.673 basechar 0
AnchorPoint: "Anchor-10" 410.877 1053.88 basechar 0
LayerCount: 2
Fore
SplineSet
627 -185 m 4,0,1
 520.068684517 -404.803259604 520.068684517 -404.803259604 324 -506 c 4,2,3
 262 -538 262 -538 218 -542 c 4,4,5
 172 -546 172 -546 85 -492.140625 c 4,6,7
 -25 -424 -25 -424 -29.5107421875 -392.048828125 c 4,8,9
 -31 -382 -31 -382 46.7890625 -352.438476562 c 4,10,11
 458 -195 458 -195 514.036132812 20 c 4,12,13
 522 51 522 51 519.51171875 73 c 4,14,15
 506 187 506 187 349 384 c 5,16,-1
 520.434570312 619 l 6,17,18
 523 623 523 623 527.088867188 623.049804688 c 4,19,20
 532 623 532 623 537.248046875 617 c 4,21,22
 624 518 624 518 664.866210938 389 c 4,23,24
 702 273 702 273 702.126953125 131.83203125 c 4,25,26
 702 -33 702 -33 627 -185 c 4,0,1
EndSplineSet
PairPos2: "'kern' Horizontal Kerning lookup 15-1" uniFEF3 dx=20 dy=0 dh=20 dv=0 dx=0 dy=0 dh=0 dv=0
PairPos2: "'kern' Horizontal Kerning lookup 15-1" uniFB58 dx=20 dy=0 dh=20 dv=0 dx=0 dy=0 dh=0 dv=0
PairPos2: "'kern' Horizontal Kerning lookup 15-1" uniFBFE dx=20 dy=0 dh=20 dv=0 dx=0 dy=0 dh=0 dv=0
PairPos2: "'kern' Horizontal Kerning lookup 15-4" uni0621 dx=-196 dy=0 dh=-196 dv=0 dx=0 dy=0 dh=0 dv=0
PairPos2: "'kern' Horizontal Kerning lookup 15-3" uni0648 dx=-43 dy=0 dh=-43 dv=0 dx=0 dy=0 dh=0 dv=0
PairPos2: "'kern' Horizontal Kerning lookup 15-1" uni0632 dx=-43 dy=0 dh=-43 dv=0 dx=0 dy=0 dh=0 dv=0
PairPos2: "'kern' Horizontal Kerning lookup 15-1" uni0631 dx=-43 dy=0 dh=-43 dv=0 dx=0 dy=0 dh=0 dv=0
PairPos2: "'kern' Horizontal Kerning lookup 15-1" uni06CC dx=-43 dy=0 dh=-43 dv=0 dx=0 dy=0 dh=0 dv=0
PairPos2: "'kern' Horizontal Kerning lookup 15-1" uniFEEB dx=-128 dy=0 dh=-128 dv=0 dx=0 dy=0 dh=0 dv=0
PairPos2: "'kern' Horizontal Kerning lookup 15-1" uniFB7C dx=-115 dy=0 dh=-115 dv=0 dx=0 dy=0 dh=0 dv=0
PairPos2: "'kern' Horizontal Kerning lookup 15-1" uniFEDF dx=-128 dy=0 dh=-128 dv=0 dx=0 dy=0 dh=0 dv=0
PairPos2: "'kern' Horizontal Kerning lookup 15-1" uniFB90 dx=-213 dy=0 dh=-213 dv=0 dx=0 dy=0 dh=0 dv=0
PairPos2: "'kern' Horizontal Kerning lookup 15-1" uni06A9 dx=-213 dy=0 dh=-213 dv=0 dx=0 dy=0 dh=0 dv=0
PairPos2: "'kern' Horizontal Kerning lookup 15-1" uni0649 dx=-43 dy=0 dh=-43 dv=0 dx=0 dy=0 dh=0 dv=0
PairPos2: "'kern' Horizontal Kerning lookup 15-1" uni0647 dx=-128 dy=0 dh=-128 dv=0 dx=0 dy=0 dh=0 dv=0
PairPos2: "'kern' Horizontal Kerning lookup 15-1" uniFEE7 dx=-128 dy=0 dh=-128 dv=0 dx=0 dy=0 dh=0 dv=0
PairPos2: "'kern' Horizontal Kerning lookup 15-1" uniFEE3 dx=-128 dy=0 dh=-128 dv=0 dx=0 dy=0 dh=0 dv=0
PairPos2: "'kern' Horizontal Kerning lookup 15-1" uni0645 dx=-128 dy=0 dh=-128 dv=0 dx=0 dy=0 dh=0 dv=0
PairPos2: "'kern' Horizontal Kerning lookup 15-1" uni0644 dx=-43 dy=0 dh=-43 dv=0 dx=0 dy=0 dh=0 dv=0
PairPos2: "'kern' Horizontal Kerning lookup 15-1" uniFEDB dx=-213 dy=0 dh=-213 dv=0 dx=0 dy=0 dh=0 dv=0
PairPos2: "'kern' Horizontal Kerning lookup 15-1" uniFED7 dx=-128 dy=0 dh=-128 dv=0 dx=0 dy=0 dh=0 dv=0
PairPos2: "'kern' Horizontal Kerning lookup 15-1" uni0642 dx=-43 dy=0 dh=-43 dv=0 dx=0 dy=0 dh=0 dv=0
PairPos2: "'kern' Horizontal Kerning lookup 15-1" uniFED3 dx=-128 dy=0 dh=-128 dv=0 dx=0 dy=0 dh=0 dv=0
PairPos2: "'kern' Horizontal Kerning lookup 15-1" uni0641 dx=-128 dy=0 dh=-128 dv=0 dx=0 dy=0 dh=0 dv=0
PairPos2: "'kern' Horizontal Kerning lookup 15-1" uniFECF dx=-128 dy=0 dh=-128 dv=0 dx=0 dy=0 dh=0 dv=0
PairPos2: "'kern' Horizontal Kerning lookup 15-1" uniFECB dx=-128 dy=0 dh=-128 dv=0 dx=0 dy=0 dh=0 dv=0
PairPos2: "'kern' Horizontal Kerning lookup 15-1" uniFEC7 dx=-128 dy=0 dh=-128 dv=0 dx=0 dy=0 dh=0 dv=0
PairPos2: "'kern' Horizontal Kerning lookup 15-1" uni0638 dx=-128 dy=0 dh=-128 dv=0 dx=0 dy=0 dh=0 dv=0
PairPos2: "'kern' Horizontal Kerning lookup 15-1" uniFEC3 dx=-128 dy=0 dh=-128 dv=0 dx=0 dy=0 dh=0 dv=0
PairPos2: "'kern' Horizontal Kerning lookup 15-1" uni0637 dx=-128 dy=0 dh=-128 dv=0 dx=0 dy=0 dh=0 dv=0
PairPos2: "'kern' Horizontal Kerning lookup 15-1" uniFEBF dx=-128 dy=0 dh=-128 dv=0 dx=0 dy=0 dh=0 dv=0
PairPos2: "'kern' Horizontal Kerning lookup 15-1" uni0636 dx=-128 dy=0 dh=-128 dv=0 dx=0 dy=0 dh=0 dv=0
PairPos2: "'kern' Horizontal Kerning lookup 15-1" uniFEBB dx=-128 dy=0 dh=-128 dv=0 dx=0 dy=0 dh=0 dv=0
PairPos2: "'kern' Horizontal Kerning lookup 15-1" uni0635 dx=-128 dy=0 dh=-128 dv=0 dx=0 dy=0 dh=0 dv=0
PairPos2: "'kern' Horizontal Kerning lookup 15-1" uniFEB7 dx=-128 dy=0 dh=-128 dv=0 dx=0 dy=0 dh=0 dv=0
PairPos2: "'kern' Horizontal Kerning lookup 15-1" uni0634 dx=-128 dy=0 dh=-128 dv=0 dx=0 dy=0 dh=0 dv=0
PairPos2: "'kern' Horizontal Kerning lookup 15-1" uniFEB3 dx=-128 dy=0 dh=-128 dv=0 dx=0 dy=0 dh=0 dv=0
PairPos2: "'kern' Horizontal Kerning lookup 15-1" uni0633 dx=-128 dy=0 dh=-128 dv=0 dx=0 dy=0 dh=0 dv=0
PairPos2: "'kern' Horizontal Kerning lookup 15-1" uni0630 dx=-128 dy=0 dh=-128 dv=0 dx=0 dy=0 dh=0 dv=0
PairPos2: "'kern' Horizontal Kerning lookup 15-1" uni062F dx=-128 dy=0 dh=-128 dv=0 dx=0 dy=0 dh=0 dv=0
PairPos2: "'kern' Horizontal Kerning lookup 15-1" uniFEA7 dx=-128 dy=0 dh=-128 dv=0 dx=0 dy=0 dh=0 dv=0
PairPos2: "'kern' Horizontal Kerning lookup 15-1" uniFEA3 dx=-128 dy=0 dh=-128 dv=0 dx=0 dy=0 dh=0 dv=0
PairPos2: "'kern' Horizontal Kerning lookup 15-1" uniFE9F dx=-128 dy=0 dh=-128 dv=0 dx=0 dy=0 dh=0 dv=0
PairPos2: "'kern' Horizontal Kerning lookup 15-1" uniFE9B dx=-128 dy=0 dh=-128 dv=0 dx=0 dy=0 dh=0 dv=0
PairPos2: "'kern' Horizontal Kerning lookup 15-1" uni062B dx=-128 dy=0 dh=-128 dv=0 dx=0 dy=0 dh=0 dv=0
PairPos2: "'kern' Horizontal Kerning lookup 15-1" uniFE97 dx=-128 dy=0 dh=-128 dv=0 dx=0 dy=0 dh=0 dv=0
PairPos2: "'kern' Horizontal Kerning lookup 15-1" uni062A dx=-128 dy=0 dh=-128 dv=0 dx=0 dy=0 dh=0 dv=0
PairPos2: "'kern' Horizontal Kerning lookup 15-1" uni0629 dx=-128 dy=0 dh=-128 dv=0 dx=0 dy=0 dh=0 dv=0
PairPos2: "'kern' Horizontal Kerning lookup 15-1" uniFE91 dx=-53 dy=0 dh=-53 dv=0 dx=0 dy=0 dh=0 dv=0
PairPos2: "'kern' Horizontal Kerning lookup 15-1" uni0628 dx=-128 dy=0 dh=-128 dv=0 dx=0 dy=0 dh=0 dv=0
PairPos2: "'kern' Horizontal Kerning lookup 15-1" uni0627 dx=-150 dy=0 dh=-150 dv=0 dx=0 dy=0 dh=0 dv=0
PairPos2: "'kern' Horizontal Kerning lookup 15-1" uni0622 dx=-150 dy=0 dh=-150 dv=0 dx=0 dy=0 dh=0 dv=0
PairPos2: "'kern' Horizontal Kerning lookup 15-1" uniFB94 dx=-235 dy=0 dh=-235 dv=0 dx=0 dy=0 dh=0 dv=0
PairPos2: "'kern' Horizontal Kerning lookup 15-1" afii57509 dx=-235 dy=0 dh=-235 dv=0 dx=0 dy=0 dh=0 dv=0
PairPos2: "'kern' Horizontal Kerning lookup 15-1" uniFB56 dx=-128 dy=0 dh=-128 dv=0 dx=0 dy=0 dh=0 dv=0
PairPos2: "'kern' Horizontal Kerning lookup 15-1" afii57506 dx=-128 dy=0 dh=-128 dv=0 dx=0 dy=0 dh=0 dv=0
Substitution2: "'fina' Terminal Forms in Arabic lookup 9 subtable" uniFEAE
EndChar

StartChar: uni0633
Encoding: 1587 1587 24
Width: 2349
VWidth: 3752
GlyphClass: 2
Flags: W
AnchorPoint: "Anchor-7" 620.413 -772.399 basechar 0
AnchorPoint: "Anchor-10" 1650.87 1127.42 basechar 0
LayerCount: 2
Fore
SplineSet
1949.72460938 -0.63671875 m 16,0,1
 1772 0 1772 0 1691.94042969 152.151367188 c 1,2,3
 1594 -1 1594 -1 1458.56933594 -0.3955078125 c 0,4,5
 1377 0 1377 0 1301.94921875 46.9755859375 c 1,6,7
 1291 -269 1291 -269 1090.52734375 -417.408203125 c 0,8,9
 931 -535 931 -535 679.056640625 -535.459960938 c 0,10,11
 378 -535 378 -535 234.629882812 -380.759765625 c 0,12,13
 100 -235 100 -235 99.7646484375 -22.623046875 c 0,14,15
 100 197 100 197 199.502929688 418.203125 c 1,16,-1
 317.973632812 379.137695312 l 1,17,18
 266 208 266 208 265.984375 85.0478515625 c 0,19,20
 266 -50 266 -50 328.420898438 -126.60546875 c 0,21,22
 432 -255 432 -255 676.248046875 -254.625 c 0,23,24
 984 -255 984 -255 1099.61328125 -74.3388671875 c 0,25,26
 1144 -5 1144 -5 1121.35839844 69.0244140625 c 0,27,28
 1085 190 1085 190 998.926757812 340.258789062 c 1,29,-1
 1137.91113281 548.529296875 l 2,30,31
 1157.11044733 578.170516168 1157.11044733 578.170516168 1178.14648438 537.86328125 c 2,32,-1
 1198.54003906 498.787109375 l 2,33,34
 1248 404 1248 404 1303.99121094 353.197265625 c 0,35,36
 1367 297 1367 297 1437.75488281 295.1875 c 24,37,38
 1608.70576768 292.005476743 1608.70576768 292.005476743 1618.42578125 434.739257812 c 2,39,-1
 1629.21679688 593.200195312 l 1,40,-1
 1761.64648438 593.200195312 l 1,41,-1
 1772.04980469 440.991210938 l 2,42,43
 1782 295 1782 295 1936.43359375 294.22265625 c 0,44,45
 2052 294 2052 294 2074.3828125 376.717773438 c 0,46,47
 2081 401 2081 401 2071.26757812 442.293945312 c 0,48,49
 2063 476 2063 476 1992.90722656 614.604492188 c 1,50,-1
 2128.81542969 790.203125 l 2,51,52
 2151 819 2151 819 2158 820 c 0,53,54
 2164 821 2164 821 2183.43945312 790.203125 c 0,55,56
 2273 640 2273 640 2272.73632812 455.192382812 c 0,57,58
 2273 259 2273 259 2163.96386719 117.10546875 c 4,59,60
 2073 -1 2073 -1 1949.72460938 -0.63671875 c 16,0,1
EndSplineSet
Substitution2: "'fina' Terminal Forms in Arabic lookup 9 subtable" uniFEB2
Substitution2: "'medi' Medial Forms in Arabic lookup 11 subtable" uniFEB4
Substitution2: "'init' Initial Forms in Arabic lookup 13 subtable" uniFEB3
EndChar

StartChar: uni0635
Encoding: 1589 1589 26
Width: 2603
VWidth: 3753
GlyphClass: 2
Flags: W
AnchorPoint: "Anchor-7" 618.28 -769.066 basechar 0
AnchorPoint: "Anchor-10" 2142.87 1165.42 basechar 0
LayerCount: 2
Fore
SplineSet
1581.61816406 2 m 2,0,1
 1405.02507478 1.98971728818 1405.02507478 1.98971728818 1301.87890625 44.2880859375 c 1,2,3
 1291 -269 1291 -269 1090.52734375 -417.408203125 c 0,4,5
 931 -535 931 -535 676.908902663 -535.461833076 c 0,6,7
 378 -535 378 -535 234.629882812 -380.759765625 c 0,8,9
 100 -235 100 -235 99.7646484375 -22.623046875 c 0,10,11
 100 197 100 197 199.502929688 418.203125 c 1,12,-1
 317.973632812 379.137695312 l 1,13,14
 266 208 266 208 265.984375 85.0478515625 c 0,15,16
 266 -50 266 -50 328.420898438 -126.60546875 c 0,17,18
 432 -255 432 -255 677.563476562 -254.624023438 c 0,19,20
 988 -255 988 -255 1099.61328125 -84.3388671875 c 0,21,22
 1145 -15 1145 -15 1121.37597656 68.9365234375 c 0,23,24
 1086 190 1086 190 997.860351562 340.258789062 c 1,25,-1
 1138.49707031 549.596679688 l 2,26,27
 1157.11421008 578.175320647 1157.11421008 578.175320647 1176.48535156 539.99609375 c 2,28,-1
 1202.79199219 488.147460938 l 2,29,30
 1297.23858299 302.531111677 1297.23858299 302.531111677 1427.72460938 297.46484375 c 2,31,-1
 1444.92871094 296.796875 l 1,32,33
 1514 393 1514 393 1642.6640625 534.223632812 c 0,34,35
 1924 842 1924 842 2173.77148438 841.555664062 c 4,36,37
 2389 841 2389 841 2478.09570312 675.489257812 c 4,38,39
 2515 606 2515 606 2515.234375 497.409179688 c 4,40,41
 2515 374 2515 374 2444.80859375 261.98046875 c 4,42,43
 2281.02566021 2.04072529539 2281.02566021 2.04072529539 1816.41601562 2.013671875 c 6,44,-1
 1581.61816406 2 l 2,0,1
1606.83984375 296.057617188 m 1,45,-1
 1906.9453125 296.057617188 l 6,46,47
 2241 296 2241 296 2289.47460938 340.854492188 c 4,48,49
 2319 368 2319 368 2318.84082031 408.416015625 c 4,50,51
 2319 420 2319 420 2316.609375 431.922851562 c 4,52,53
 2292 570 2292 570 2103.99804688 570.296875 c 4,54,55
 1882 570 1882 570 1606.83984375 296.057617188 c 1,45,-1
EndSplineSet
Substitution2: "'fina' Terminal Forms in Arabic lookup 9 subtable" uniFEBA
Substitution2: "'medi' Medial Forms in Arabic lookup 11 subtable" uniFEBC
Substitution2: "'init' Initial Forms in Arabic lookup 13 subtable" uniFEBB
EndChar

StartChar: uni0637
Encoding: 1591 1591 28
Width: 1570
VWidth: 3753
GlyphClass: 2
Flags: W
AnchorPoint: "Anchor-10" 477.041 1560.66 basechar 0
AnchorPoint: "Anchor-7" 726.64 -211.868 basechar 0
LayerCount: 2
Fore
SplineSet
582.962890625 296.057617188 m 1,0,-1
 883.068359375 296.057617188 l 2,1,2
 1217 296 1217 296 1265.59765625 340.854492188 c 0,3,4
 1295 368 1295 368 1295.00878906 408.19921875 c 0,5,6
 1295 420 1295 420 1292.73242188 431.922851562 c 0,7,8
 1269 570 1269 570 1080.71972656 570.306640625 c 0,9,10
 858 570 858 570 582.962890625 296.057617188 c 1,0,-1
635.1953125 530.93359375 m 5,11,12
 922 842 922 842 1150.12011719 841.555664062 c 0,13,14
 1367 841 1367 841 1454.21875 675.489257812 c 0,15,16
 1491 606 1491 606 1491.3359375 497.822265625 c 0,17,18
 1491 375 1491 375 1420.93164062 261.98046875 c 0,19,20
 1256.02559762 0.0406597295456 1256.02559762 0.0406597295456 792.540039062 0.013671875 c 2,21,-1
 557.741210938 0 l 2,22,-1
 262.168945312 -0.7431640625 l 1,23,24
 95 170 95 170 69.9697265625 208.2421875 c 0,25,26
 15.0642410308 293.899778103 15.0642410308 293.899778103 107.869140625 293.922851562 c 2,27,-1
 449.594726562 294.0078125 l 5,28,29
 448 574 448 574 423.698242188 985.860351562 c 4,30,31
 411 1209 411 1209 391.797851562 1297.85839844 c 5,32,-1
 576.529296875 1426.36328125 l 6,33,34
 622 1458 622 1458 627 1454 c 4,35,36
 635.1953125 1448.87792969 635.1953125 1448.87792969 635.1953125 1386.92382812 c 6,37,-1
 635.1953125 530.93359375 l 5,11,12
EndSplineSet
Substitution2: "'fina' Terminal Forms in Arabic lookup 9 subtable" uniFEC2
Substitution2: "'medi' Medial Forms in Arabic lookup 11 subtable" uniFEC4
Substitution2: "'init' Initial Forms in Arabic lookup 13 subtable" uniFEC3
EndChar

StartChar: uni0639
Encoding: 1593 1593 30
Width: 1262
VWidth: 3747
GlyphClass: 2
Flags: W
AnchorPoint: "Anchor-7" 642.803 -885.774 basechar 0
AnchorPoint: "Anchor-10" 664.718 1329.34 basechar 0
LayerCount: 2
Fore
SplineSet
729.87109375 -699.381835938 m 4,0,1
 408 -699 408 -699 247.336914062 -548.037109375 c 0,2,3
 109 -418 109 -418 107.255859375 -155.077148438 c 24,4,5
 105 174 105 174 419.490234375 369.263671875 c 1,6,-1
 389.502929688 400.830078125 l 1,7,8
 288 520 288 520 288.370117188 629.821289062 c 0,9,10
 289 697 289 697 318.821289062 773.462890625 c 0,11,12
 388 946 388 946 560.729492188 1012.4375 c 0,13,14
 620 1035 620 1035 689.706054688 1035.04296875 c 0,15,16
 878 1035 878 1035 998.907226562 900.635742188 c 1,17,-1
 950.66015625 743.328125 l 1,18,19
 849 792 849 792 724.795898438 794.52734375 c 0,20,21
 602 797 602 797 520.263671875 719.4609375 c 0,22,23
 461 664 461 664 460.530273438 633.861328125 c 0,24,25
 460 587 460 587 553.330078125 521.329101562 c 0,26,27
 642 459 642 459 673.329101562 466.796875 c 0,28,29
 868 511 868 511 1068.04882812 517.970703125 c 0,30,31
 1098 519 1098 519 1104.28417969 506.857421875 c 0,32,33
 1110.14262318 494.704129404 1110.14262318 494.704129404 1103.953125 472.026367188 c 2,34,-1
 1040.90332031 241.017578125 l 1,35,36
 653 236 653 236 460.356445312 139.15625 c 0,37,38
 262 40 262 40 262.967773438 -133.244140625 c 16,39,40
 264 -438 264 -438 724.9453125 -437.999023438 c 4,41,42
 890 -438 890 -438 1011.21582031 -422.524414062 c 4,43,44
 1097 -412 1097 -412 1134 -407.16796875 c 4,45,46
 1192.09338977 -399.988458363 1192.09338977 -399.988458363 1164.55078125 -450 c 6,47,48
 1088 -589 l 6,49,50
 1038.86526085 -678.765388839 1038.86526085 -678.765388839 932 -690.094726562 c 4,51,52
 848 -699 848 -699 729.87109375 -699.381835938 c 4,0,1
389.502929688 400.830078125 m 1,53,-1
 389.663085938 400.643554688 l 1,54,-1
 389.502929688 400.830078125 l 1,53,-1
EndSplineSet
Substitution2: "'fina' Terminal Forms in Arabic lookup 9 subtable" uniFECA
Substitution2: "'medi' Medial Forms in Arabic lookup 11 subtable" uniFECC
Substitution2: "'init' Initial Forms in Arabic lookup 13 subtable" uniFECB
EndChar

StartChar: afii57440
Encoding: 1600 1600 32
Width: 245
VWidth: 3780
GlyphClass: 2
Flags: W
AnchorPoint: "Anchor-10" 131.433 931.41 basechar 0
AnchorPoint: "Anchor-7" 119.767 -224.603 basechar 0
LayerCount: 2
Fore
SplineSet
-4.9921875 0 m 2,0,1
 -60 0 -60 0 -60 124 c 2,2,-1
 -60 197 l 2,3,4
 -60 294.264648438 -60 294.264648438 -4.9921875 294.264648438 c 6,5,-1
 250 294.264648438 l 6,6,7
 275.0078125 293.999917297 275.0078125 293.999917297 275.0078125 197 c 2,8,-1
 275.0078125 124 l 2,9,10
 275 0 275 0 250 0 c 2,11,-1
 -4.9921875 0 l 2,0,1
EndSplineSet
EndChar

StartChar: uni0643
Encoding: 1603 1603 35
Width: 1878
VWidth: 3713
GlyphClass: 2
Flags: W
AnchorPoint: "Anchor-10" 923.587 1502.12 basechar 0
AnchorPoint: "Anchor-7" 797.161 -188.523 basechar 0
LayerCount: 2
Fore
SplineSet
842.657226562 292.076171875 m 0,0,1
 1367 292 1367 292 1499.86230469 377.896484375 c 4,2,3
 1542 405 1542 405 1548.59570312 479.025390625 c 4,4,5
 1557 585 1557 585 1539.67285156 951.016601562 c 4,6,7
 1528 1193 1528 1193 1512.45703125 1297.85839844 c 5,8,-1
 1699.72167969 1426.08691406 l 2,9,10
 1739 1453 1739 1453 1743 1450 c 0,11,12
 1750.23242188 1443.80078125 1750.23242188 1443.80078125 1750.23242188 1387.99023438 c 2,13,-1
 1750.23242188 719.482421875 l 2,14,15
 1750 237 1750 237 1602.27734375 136.51953125 c 0,16,17
 1402 0 1402 0 842.74609375 0 c 0,18,19
 489 0 489 0 307.043945312 99.7861328125 c 0,20,21
 97 216 97 216 96.4306640625 449.08203125 c 0,22,23
 96 646 96 646 185.948242188 822.258789062 c 1,24,-1
 283.756835938 779.514648438 l 1,25,26
 251 661 251 661 251.442382812 574.133789062 c 0,27,28
 251 502 251 502 288.154296875 446.359375 c 0,29,30
 391 292 391 292 842.657226562 292.076171875 c 0,0,1
1148.62890625 701.897460938 m 0,31,32
 1044 535 1044 535 730.228515625 607.866210938 c 0,33,34
 704 614 704 614 665.485351562 626.251953125 c 1,35,-1
 681.161132812 786.826171875 l 1,36,37
 799 745 799 745 930.741210938 746.220703125 c 0,38,39
 1062 748 1062 748 1071.640625 808.583984375 c 0,40,41
 1078 847 1078 847 943.55078125 876.21875 c 0,42,43
 762 915 762 915 767.143554688 1091.62988281 c 0,44,45
 773 1278 773 1278 1093.56640625 1323.41308594 c 0,46,47
 1133 1329 1133 1329 1143.9296875 1312.45703125 c 0,48,49
 1155 1295 1155 1295 1146.90625 1276.23632812 c 1,50,-1
 1108.17675781 1165.39550781 l 1,51,52
 987 1153 987 1153 926.467773438 1132.52246094 c 128,-1,53
 866 1112 866 1112 864.629882812 1074.53320312 c 0,54,55
 864 1052 864 1052 899.124023438 1038.46582031 c 0,56,57
 934 1025 934 1025 1007.00195312 1012.28808594 c 0,58,59
 1174 983 1174 983 1178.22949219 819.673828125 c 0,60,61
 1180 752 1180 752 1148.62890625 701.897460938 c 0,31,32
EndSplineSet
Substitution2: "'fina' Terminal Forms in Arabic lookup 9 subtable" uniFEDA
Substitution2: "'medi' Medial Forms in Arabic lookup 11 subtable" uniFEDC
Substitution2: "'init' Initial Forms in Arabic lookup 13 subtable" uniFEDB
EndChar

StartChar: uni0644
Encoding: 1604 1604 36
Width: 1325
VWidth: 3753
GlyphClass: 2
Flags: W
AnchorPoint: "Anchor-10" 565.865 990.21 basechar 0
AnchorPoint: "Anchor-7" 612.819 -702.816 basechar 0
LayerCount: 2
Fore
SplineSet
653.788085938 -228.20703125 m 0,0,1
 904 -228 904 -228 986.80078125 -88.12109375 c 0,2,3
 1023 -26 1023 -26 1016.38085938 94.5751953125 c 0,4,5
 1006 296 1006 296 923.126953125 1296.19238281 c 1,6,-1
 1099 1421.43847656 l 2,7,8
 1153 1460 1153 1460 1161 1454 c 0,9,10
 1168.76646031 1448.17515477 1168.76646031 1448.17515477 1170.28613281 1377 c 2,11,-1
 1195.49902344 196.1328125 l 2,12,13
 1203 -173 1203 -173 1085.51171875 -322.198242188 c 0,14,15
 939 -509 939 -509 651.234375 -509.056640625 c 0,16,17
 368 -509 368 -509 224.629882812 -354.358398438 c 0,18,19
 90 -208 90 -208 89.7646484375 3.7783203125 c 0,20,21
 90 223 90 223 189.502929688 444.604492188 c 1,22,-1
 307.973632812 405.5390625 l 1,23,24
 256 234 256 234 255.984375 111.44921875 c 0,25,26
 256 -23 256 -23 318.420898438 -100.204101562 c 0,27,28
 423 -228 423 -228 653.788085938 -228.20703125 c 0,0,1
EndSplineSet
Substitution2: "'fina' Terminal Forms in Arabic lookup 9 subtable" uniFEDE
Substitution2: "'medi' Medial Forms in Arabic lookup 11 subtable" uniFEE0
Substitution2: "'init' Initial Forms in Arabic lookup 13 subtable" uniFEDF
EndChar

StartChar: uni0645
Encoding: 1605 1605 37
Width: 1110
VWidth: 3783
GlyphClass: 2
Flags: W
AnchorPoint: "Anchor-10" 646.993 1133.53 basechar 0
AnchorPoint: "Anchor-7" 248.265 -866.432 basechar 0
LayerCount: 2
Fore
SplineSet
266.05859375 69.890625 m 1,0,-1
 281.46484375 -437.46484375 l 2,1,2
 282 -445 282 -445 281.598632812 -445.266601562 c 0,3,4
 282 -608 282 -608 176.3359375 -709 c 0,5,6
 151 -733 151 -733 134.686523438 -733.020507812 c 0,7,8
 111.453335425 -733.000392498 111.453335425 -733.000392498 109.525390625 -682 c 2,9,-1
 95.9599609375 -323.150390625 l 2,10,11
 92 -218 92 -218 91.5986328125 -145.690429688 c 0,12,13
 92 9 92 9 119.723632812 119.848632812 c 0,14,15
 163 290 163 290 294.247070312 338.030273438 c 1,16,17
 358 582 358 582 442.455078125 689.1953125 c 0,18,19
 532 802 532 802 650.817382812 802.46875 c 0,20,21
 812 802 812 802 950.250976562 596 c 0,22,23
 991 536 991 536 1026.22753906 440 c 0,24,25
 1048 382 1048 382 1038.31738281 316 c 0,26,27
 1030 262 1030 262 995.600585938 195 c 0,28,29
 930 67 930 67 864.52734375 36.3525390625 c 0,30,31
 849 29 849 29 820.794921875 33.873046875 c 0,32,33
 535 83 535 83 351.8046875 83.7314453125 c 0,34,35
 304 84 304 84 266.05859375 69.890625 c 1,0,-1
860.658203125 308.154296875 m 0,36,37
 846 370 846 370 812.346679688 426 c 4,38,39
 733 562 733 562 628.352539062 561.393554688 c 0,40,41
 565 561 565 561 507.470703125 482.576171875 c 0,42,43
 460 418 460 418 438.250976562 346.674804688 c 1,44,45
 605 336 605 336 684.057617188 322.14453125 c 0,46,47
 791 303 791 303 807.720703125 300.508789062 c 0,48,49
 839 296 839 296 839.594726562 296.442382812 c 0,50,51
 863 297 863 297 860.658203125 308.154296875 c 0,36,37
EndSplineSet
Substitution2: "'init' Initial Forms in Arabic lookup 13 subtable" uniFEE3
Substitution2: "'medi' Medial Forms in Arabic lookup 11 subtable" uniFEE4
Substitution2: "'fina' Terminal Forms in Arabic lookup 9 subtable" uniFEE2
EndChar

StartChar: uni0647
Encoding: 1607 1607 39
Width: 877
VWidth: 3746
GlyphClass: 2
Flags: W
AnchorPoint: "Anchor-10" 378.569 1199.48 basechar 0
AnchorPoint: "Anchor-7" 426.886 -216.833 basechar 0
LayerCount: 2
Fore
SplineSet
366.999023438 590.21484375 m 1,0,1
 254 439 254 439 253.670898438 363.942382812 c 0,2,3
 254 336 254 336 268.994140625 318.59765625 c 0,4,5
 302 281 302 281 436.666015625 280.526367188 c 4,6,7
 632 281 632 281 631.578125 386.234375 c 0,8,9
 632 452 632 452 538 508.616210938 c 0,10,11
 486 540 486 540 400.23828125 576.73046875 c 0,12,13
 388 582 388 582 366.999023438 590.21484375 c 1,0,1
794.813476562 380.231445312 m 0,14,15
 795 222 795 222 706.874023438 120.763671875 c 0,16,17
 606 6 606 6 446.424804688 5.7705078125 c 0,18,19
 266 6 266 6 174.440429688 105.731445312 c 0,20,21
 92 195 92 195 92.263671875 357.368164062 c 0,22,23
 92 573 92 573 310.274414062 846.396484375 c 0,24,25
 333 875 333 875 362.0625 875.061523438 c 0,26,27
 373 875 373 875 384.9140625 870.887695312 c 0,28,29
 641 778 641 778 749.157226562 564.279296875 c 0,30,31
 795 474 795 474 794.813476562 380.231445312 c 0,14,15
EndSplineSet
Substitution2: "'fina' Terminal Forms in Arabic lookup 9 subtable" uniFEEA
Substitution2: "'medi' Medial Forms in Arabic lookup 11 subtable" uniFEEC
Substitution2: "'init' Initial Forms in Arabic lookup 13 subtable" uniFEEB
EndChar

StartChar: uni0648
Encoding: 1608 1608 40
Width: 806
VWidth: 3781
GlyphClass: 2
Flags: W
AnchorPoint: "Anchor-7" 331.78 -681.673 basechar 0
AnchorPoint: "Anchor-10" 400.254 1087.47 basechar 0
LayerCount: 2
Fore
SplineSet
346 -506 m 0,0,1
 284 -538 284 -538 240 -542 c 0,2,3
 194 -546 194 -546 107 -492.140625 c 0,4,5
 -3 -424 -3 -424 -7.5107421875 -392.048828125 c 0,6,7
 -9 -382 -9 -382 68.7890625 -352.438476562 c 0,8,9
 385 -231 385 -231 491 -73.5925080059 c 0,10,11
 522 -27 522 -27 531 3 c 1,12,-1
 461.478515625 -0.5302734375 l 2,13,14
 298 -9 298 -9 212 37.2958984375 c 0,15,16
 87 105 87 105 86.46875 263.791992188 c 0,17,18
 86 335 86 335 113.46484375 431.396484375 c 0,19,20
 159 591 159 591 247.198242188 672.795898438 c 0,21,22
 312 734 312 734 403.116210938 733.521484375 c 0,23,24
 579 733 579 733 659.774414062 544.471679688 c 0,25,26
 724 395 724 395 724.231445312 203 c 0,27,28
 723.956082634 -90.8689096971 723.956082634 -90.8689096971 600.674926589 -277 c 4,29,30
 501.920454835 -426.100463443 501.920454835 -426.100463443 346 -506 c 0,0,1
555.087890625 287.495117188 m 1,31,32
 505 488 505 488 370.46484375 488.16015625 c 0,33,34
 282 488 282 488 255.198242188 402.6640625 c 0,35,36
 248 380 248 380 247.65625 361.212890625 c 0,37,38
 248 311 248 311 314 292.172851562 c 0,39,40
 392.339907635 269.193623068 392.339907635 269.193623068 534.063476562 285.130859375 c 2,41,-1
 555.087890625 287.495117188 l 1,31,32
EndSplineSet
Substitution2: "'fina' Terminal Forms in Arabic lookup 9 subtable" uniFEEE
EndChar

StartChar: uni0649
Encoding: 1609 1609 41
Width: 1474
VWidth: 3753
GlyphClass: 2
Flags: W
AnchorPoint: "Anchor-10" 688.179 1025.74 basechar 0
AnchorPoint: "Anchor-7" 653.738 -683.22 basechar 0
LayerCount: 2
Fore
SplineSet
676.978515625 -221.247070312 m 0,0,1
 1033 -221 1033 -221 1171 -40 c 0,2,3
 1192.83596919 -11.2162224255 1192.83596919 -11.2162224255 1164.93164062 -6.3232421875 c 2,4,-1
 977.0078125 26.62890625 l 0,5,6
 888 40 888 40 825.047851562 55.20703125 c 0,7,8
 742 75 742 75 741.720703125 190.157226562 c 0,9,10
 742 252 742 252 770.38671875 348.73828125 c 0,11,12
 823 529 823 529 934.170898438 645 c 0,13,14
 1069 785 1069 785 1233.54199219 784.825195312 c 0,15,16
 1316 785 1316 785 1403.12109375 756.237304688 c 1,17,18
 1389 613 1389 613 1362.14941406 506.366210938 c 1,19,-1
 1307.86621094 511.569335938 l 2,20,21
 1272 515 1272 515 1245.92285156 514.59765625 c 0,22,23
 1058.39004846 512.005391637 1058.39004846 512.005391637 929.287109375 312.772460938 c 2,24,-1
 918.291992188 295.8046875 l 1,25,-1
 1177 247 l 2,26,27
 1343 216 1343 216 1344.5390625 70.078125 c 0,28,29
 1345 31 1345 31 1335.31054688 -16 c 0,30,31
 1289 -241 1289 -241 1127 -366.861328125 c 0,32,33
 953 -502 953 -502 677.14453125 -502.083984375 c 0,34,35
 376 -502 376 -502 232.717773438 -347.383789062 c 0,36,37
 98 -202 98 -202 97.8525390625 10.7529296875 c 0,38,39
 98 230 98 230 197.590820312 451.579101562 c 1,40,-1
 316.061523438 412.513671875 l 1,41,42
 264 241 264 241 264.072265625 118.423828125 c 0,43,44
 264 -17 264 -17 326.508789062 -93.2294921875 c 0,45,46
 432 -222 432 -222 676.978515625 -221.247070312 c 0,0,1
EndSplineSet
Substitution2: "'fina' Terminal Forms in Arabic lookup 9 subtable" uniFEF0
Substitution2: "'medi' Medial Forms in Arabic lookup 11 subtable" uniFBE9
Substitution2: "'init' Initial Forms in Arabic lookup 13 subtable" uniFBE8
EndChar

StartChar: uni064B
Encoding: 1611 1611 43
Width: -25
VWidth: 2410
GlyphClass: 4
Flags: W
AnchorPoint: "Anchor-10" 637 1160.96 mark 0
AnchorPoint: "Anchor-9" 637 1160.96 mark 0
AnchorPoint: "Anchor-1" 595.196 1694.67 basemark 0
AnchorPoint: "Anchor-1" 637 1160.96 mark 0
LayerCount: 2
Fore
SplineSet
355 1118 m 1,0,-1
 355 1239.98046875 l 1,1,-1
 804 1423.97851562 l 1,2,-1
 804 1302 l 1,3,-1
 355 1118 l 1,0,-1
355 1365 m 1,4,-1
 355 1486.98046875 l 1,5,-1
 804 1670.97851562 l 1,6,-1
 804 1549 l 1,7,-1
 355 1365 l 1,4,-1
EndSplineSet
EndChar

StartChar: uni064C
Encoding: 1612 1612 44
Width: -25
VWidth: 2410
GlyphClass: 4
Flags: W
AnchorPoint: "Anchor-10" 706.932 1270 mark 0
AnchorPoint: "Anchor-9" 706.932 1270 mark 0
AnchorPoint: "Anchor-1" 593.593 1993.41 basemark 0
AnchorPoint: "Anchor-1" 706.932 1270 mark 0
LayerCount: 2
Fore
SplineSet
682.081054688 1805.66210938 m 0,0,1
 660.557617188 1805.66210938 660.557617188 1805.66210938 644.879882812 1801.59765625 c 128,-1,2
 629.202148438 1797.53515625 629.202148438 1797.53515625 619.087890625 1788.40917969 c 0,3,4
 599.491210938 1770.72753906 599.491210938 1770.72753906 599.491210938 1732.44335938 c 0,5,6
 599.491210938 1704.45019531 599.491210938 1704.45019531 618.01953125 1683.49121094 c 0,7,8
 621.099609375 1680.00683594 621.099609375 1680.00683594 624.765625 1676.73535156 c 128,-1,9
 628.432617188 1673.46289062 628.432617188 1673.46289062 632.646484375 1670.43457031 c 128,-1,10
 636.860351562 1667.40527344 636.860351562 1667.40527344 641.594726562 1664.58105469 c 128,-1,11
 646.329101562 1661.75683594 646.329101562 1661.75683594 651.655273438 1659.11132812 c 128,-1,12
 656.98046875 1656.46582031 656.98046875 1656.46582031 662.752929688 1654.02148438 c 128,-1,13
 668.526367188 1651.578125 668.526367188 1651.578125 674.92578125 1649.25097656 c 0,14,15
 690.80859375 1643.47363281 690.80859375 1643.47363281 719.922851562 1634.2421875 c 2,16,-1
 729.141601562 1631.31933594 l 1,17,-1
 741.2421875 1659.5546875 l 2,18,19
 743.208984375 1664.13964844 743.208984375 1664.13964844 744.838867188 1668.59082031 c 128,-1,20
 746.469726562 1673.04199219 746.469726562 1673.04199219 747.783203125 1677.4296875 c 128,-1,21
 749.096679688 1681.81835938 749.096679688 1681.81835938 750.069335938 1686.0859375 c 0,22,23
 753.012695312 1699.00683594 753.012695312 1699.00683594 753.012695312 1710.78710938 c 0,24,25
 753.012695312 1750.50292969 753.012695312 1750.50292969 739.448242188 1772.296875 c 0,26,27
 725.354492188 1794.9453125 725.354492188 1794.9453125 696.6484375 1803.45605469 c 2,28,-1
 689.288085938 1805.11230469 l 2,29,30
 687.474609375 1805.38574219 687.474609375 1805.38574219 685.671875 1805.52441406 c 128,-1,31
 683.8671875 1805.66210938 683.8671875 1805.66210938 682.081054688 1805.66210938 c 0,0,1
340.79296875 1577.25292969 m 2,32,33
 343.0234375 1544.6171875 343.0234375 1544.6171875 345.484375 1520.01660156 c 128,-1,34
 347.944335938 1495.41601562 347.944335938 1495.41601562 350.864257812 1477.29394531 c 128,-1,35
 353.78515625 1459.171875 353.78515625 1459.171875 357.178710938 1448.05175781 c 0,36,37
 372.751953125 1397.02539062 372.751953125 1397.02539062 397.809570312 1374.20800781 c 0,38,39
 423.864257812 1350.48339844 423.864257812 1350.48339844 461.12109375 1351.37207031 c 0,40,41
 474.05859375 1351.6796875 474.05859375 1351.6796875 487.071289062 1354.04589844 c 128,-1,42
 500.083984375 1356.41113281 500.083984375 1356.41113281 513.017578125 1360.77441406 c 128,-1,43
 525.950195312 1365.13867188 525.950195312 1365.13867188 538.892578125 1371.5 c 0,44,45
 577.370117188 1390.41210938 577.370117188 1390.41210938 616.481445312 1428.26074219 c 0,46,47
 639.139648438 1450.30664062 639.139648438 1450.30664062 656.97265625 1474.29589844 c 128,-1,48
 674.806640625 1498.28515625 674.806640625 1498.28515625 687.754882812 1524.18359375 c 2,49,-1
 695.950195312 1540.58203125 l 1,50,-1
 678.014648438 1544.38574219 l 2,51,52
 546.6640625 1572.22753906 546.6640625 1572.22753906 503.244140625 1678.71679688 c 0,53,54
 499.188476562 1688.66015625 499.188476562 1688.66015625 497.427734375 1701.27050781 c 0,55,56
 496.514648438 1707.80957031 496.514648438 1707.80957031 496.049804688 1715.44726562 c 128,-1,57
 495.584960938 1723.08496094 495.584960938 1723.08496094 495.584960938 1731.76171875 c 0,58,59
 495.584960938 1736.55078125 495.584960938 1736.55078125 495.771484375 1741.20800781 c 128,-1,60
 495.95703125 1745.86035156 495.95703125 1745.86035156 496.33203125 1750.43164062 c 128,-1,61
 496.708007812 1754.99902344 496.708007812 1754.99902344 497.271484375 1759.43359375 c 128,-1,62
 497.833007812 1763.86328125 497.833007812 1763.86328125 498.58984375 1768.20800781 c 128,-1,63
 499.345703125 1772.54394531 499.345703125 1772.54394531 500.290039062 1776.75195312 c 128,-1,64
 501.233398438 1780.95410156 501.233398438 1780.95410156 502.376953125 1785.06738281 c 128,-1,65
 503.517578125 1789.17089844 503.517578125 1789.17089844 504.850585938 1793.14941406 c 0,66,67
 514.295898438 1821.33105469 514.295898438 1821.33105469 529.915039062 1842.81933594 c 128,-1,68
 545.404296875 1864.12792969 545.404296875 1864.12792969 566.268554688 1878.28710938 c 0,69,70
 573.241210938 1883.01855469 573.241210938 1883.01855469 580.795898438 1886.97851562 c 128,-1,71
 588.3515625 1890.94042969 588.3515625 1890.94042969 596.559570312 1894.15527344 c 128,-1,72
 604.76953125 1897.36914062 604.76953125 1897.36914062 613.6015625 1899.81738281 c 0,73,74
 640.26953125 1907.20703125 640.26953125 1907.20703125 671.807617188 1907.20703125 c 0,75,76
 687.68359375 1907.20703125 687.68359375 1907.20703125 702.268554688 1905.42285156 c 128,-1,77
 716.853515625 1903.63867188 716.853515625 1903.63867188 730.112304688 1900.08398438 c 128,-1,78
 743.370117188 1896.52832031 743.370117188 1896.52832031 755.3359375 1891.25585938 c 128,-1,79
 767.302734375 1885.984375 767.302734375 1885.984375 778.094726562 1878.95996094 c 0,80,81
 799.659179688 1864.92675781 799.659179688 1864.92675781 815.517578125 1844.34960938 c 128,-1,82
 831.375976562 1823.77441406 831.375976562 1823.77441406 841.69921875 1796.21972656 c 0,83,84
 854.559570312 1761.88964844 854.559570312 1761.88964844 854.559570312 1717.96484375 c 0,85,86
 854.559570312 1696.23144531 854.559570312 1696.23144531 851.177734375 1674.6328125 c 128,-1,87
 847.79296875 1653.0078125 847.79296875 1653.0078125 841.048828125 1631.609375 c 2,88,-1
 835.53125 1614.15527344 l 1,89,-1
 853.821289062 1613.19140625 l 2,90,91
 857.268554688 1613.00976562 857.268554688 1613.00976562 861.227539062 1612.83203125 c 128,-1,92
 865.186523438 1612.65332031 865.186523438 1612.65332031 869.668945312 1612.47851562 c 0,93,94
 878.608398438 1612.12988281 878.608398438 1612.12988281 889.692382812 1611.79199219 c 128,-1,95
 900.767578125 1611.45410156 900.767578125 1611.45410156 913.823242188 1611.13378906 c 2,96,-1
 924.229492188 1610.87890625 l 1,97,-1
 924.229492188 1509.22167969 l 1,98,-1
 913.392578125 1509.39550781 l 2,99,100
 907.142578125 1509.49609375 907.142578125 1509.49609375 901.515625 1509.62207031 c 128,-1,101
 895.88671875 1509.74804688 895.88671875 1509.74804688 890.912109375 1509.8984375 c 128,-1,102
 885.9375 1510.05078125 885.9375 1510.05078125 881.59765625 1510.22851562 c 0,103,104
 868.719726562 1510.75195312 868.719726562 1510.75195312 860.600585938 1511.56738281 c 2,105,-1
 788.852539062 1518.46386719 l 1,106,-1
 785.657226562 1511.66210938 l 2,107,108
 754.583007812 1445.5078125 754.583007812 1445.5078125 709.958007812 1392.48339844 c 0,109,110
 698.8046875 1379.22949219 698.8046875 1379.22949219 686.720703125 1366.67285156 c 128,-1,111
 674.63671875 1354.11523438 674.63671875 1354.11523438 661.608398438 1342.2421875 c 128,-1,112
 648.581054688 1330.37109375 648.581054688 1330.37109375 634.608398438 1319.18554688 c 128,-1,113
 620.634765625 1307.99902344 620.634765625 1307.99902344 605.717773438 1297.50195312 c 0,114,115
 584.107421875 1282.29589844 584.107421875 1282.29589844 561.845703125 1272.17773438 c 128,-1,116
 539.583007812 1262.05859375 539.583007812 1262.05859375 516.700195312 1256.99511719 c 128,-1,117
 493.817382812 1251.93164062 493.817382812 1251.93164062 470.083984375 1251.82128906 c 0,118,119
 419.283203125 1251.58496094 419.283203125 1251.58496094 381.7734375 1271.68554688 c 128,-1,120
 344.264648438 1291.78808594 344.264648438 1291.78808594 318.620117188 1332.84863281 c 0,121,122
 266.134765625 1416.88867188 266.134765625 1416.88867188 263.116210938 1576.32324219 c 2,123,-1
 262.911132812 1587.19238281 l 1,124,-1
 340.112304688 1587.19238281 l 1,125,-1
 340.79296875 1577.25292969 l 2,32,33
EndSplineSet
EndChar

StartChar: uni064D
Encoding: 1613 1613 45
Width: -24
VWidth: 2238
GlyphClass: 4
Flags: W
AnchorPoint: "Anchor-7" 522.761 70.3467 mark 0
AnchorPoint: "Anchor-6" 522.761 70.3467 mark 0
AnchorPoint: "Anchor-0" 572.975 -441.912 basemark 0
AnchorPoint: "Anchor-0" 522.761 70.3467 mark 0
LayerCount: 2
Fore
SplineSet
299 -478 m 1,0,-1
 299 -356.01953125 l 1,1,-1
 748 -172.021484375 l 1,2,-1
 748 -294 l 1,3,-1
 299 -478 l 1,0,-1
299 -231 m 1,4,-1
 299 -109.01953125 l 1,5,-1
 748 74.978515625 l 1,6,-1
 748 -47 l 1,7,-1
 299 -231 l 1,4,-1
EndSplineSet
EndChar

StartChar: uni064E
Encoding: 1614 1614 46
Width: -24
VWidth: 2238
GlyphClass: 4
Flags: W
AnchorPoint: "Anchor-10" 541.027 1322.21 mark 0
AnchorPoint: "Anchor-9" 541.027 1322.21 mark 0
AnchorPoint: "Anchor-1" 517.452 1588.68 basemark 0
AnchorPoint: "Anchor-1" 541.027 1322.21 mark 0
LayerCount: 2
Fore
SplineSet
281 1294 m 1,0,-1
 281 1415.98046875 l 1,1,-1
 730 1599.97851562 l 1,2,-1
 730 1478 l 1,3,-1
 281 1294 l 1,0,-1
EndSplineSet
EndChar

StartChar: uni064F
Encoding: 1615 1615 47
Width: -24
VWidth: 2238
GlyphClass: 4
Flags: W
AnchorPoint: "Anchor-10" 597.961 1269.3 mark 0
AnchorPoint: "Anchor-9" 597.961 1269.3 mark 0
AnchorPoint: "Anchor-1" 528.853 1866.09 basemark 0
AnchorPoint: "Anchor-1" 597.961 1269.3 mark 0
LayerCount: 2
Fore
SplineSet
801.198242188 1416.79785156 m 1,0,-1
 670.861328125 1425.10449219 l 1,1,2
 535.331538268 1245.37305247 535.331538268 1245.37305247 295.880859375 1232.47363281 c 1,3,-1
 295.880859375 1328.54003906 l 1,4,5
 454.280933268 1335.9662314 454.280933268 1335.9662314 547.580078125 1437.87109375 c 1,6,-1
 562.380859375 1453.45898438 l 1,7,8
 539.162447365 1460.99461171 539.162447365 1460.99461171 521 1468.28640081 c 0,9,10
 402.975357832 1515.67047749 402.975357832 1515.67047749 402.634670426 1609.62521824 c 0,11,12
 402.282826597 1706.65667625 402.282826597 1706.65667625 470.28515625 1762.04296875 c 0,13,14
 506.891601562 1792.03027344 506.891601562 1792.03027344 569.723632812 1792.21679688 c 0,15,16
 636.022708567 1792.04140235 636.022708567 1792.04140235 688.162109375 1740.90429688 c 0,17,18
 736.407302764 1692.86458954 736.407302764 1692.86458954 736.688476562 1611.32128906 c 0,19,20
 736.409462639 1577.25368859 736.409462639 1577.25368859 717.333984375 1515.98339844 c 1,21,-1
 801.198242188 1512.89746094 l 1,22,-1
 801.198242188 1416.79785156 l 1,0,-1
618.934570312 1531.99316406 m 1,23,24
 640 1588 640 1588 640.2265625 1614 c 0,25,26
 640 1690 640 1690 570 1691.86606559 c 0,27,28
 528 1693 528 1693 509.283203125 1658 c 0,29,30
 500.168402283 1641.73072824 500.168402283 1641.73072824 500.090820312 1620.20214844 c 4,31,32
 501 1595 501 1595 516.119140625 1578.47705078 c 0,33,34
 535.308386159 1560.29776554 535.308386159 1560.29776554 563.426269531 1550.41308594 c 0,35,36
 588 1542 588 1542 592.151367188 1540.58203125 c 0,37,38
 600 1538 600 1538 618.934570312 1531.99316406 c 1,23,24
EndSplineSet
EndChar

StartChar: uni0650
Encoding: 1616 1616 48
Width: -24
VWidth: 2238
GlyphClass: 4
Flags: W
AnchorPoint: "Anchor-7" 549.05 -40.6104 mark 0
AnchorPoint: "Anchor-6" 549.05 -40.6104 mark 0
AnchorPoint: "Anchor-0" 595.143 -291.309 basemark 0
AnchorPoint: "Anchor-0" 549.05 -40.6104 mark 0
LayerCount: 2
Fore
SplineSet
324 -338 m 1,0,-1
 324 -216.01953125 l 1,1,-1
 773 -32.021484375 l 1,2,-1
 773 -154 l 1,3,-1
 324 -338 l 1,0,-1
EndSplineSet
EndChar

StartChar: uni0651
Encoding: 1617 1617 49
Width: -24
VWidth: 2238
GlyphClass: 4
Flags: W
AnchorPoint: "Anchor-10" 589.815 1350.35 mark 0
AnchorPoint: "Anchor-9" 589.815 1350.35 mark 0
AnchorPoint: "Anchor-1" 560.134 1785.91 basemark 0
AnchorPoint: "Anchor-1" 589.815 1350.35 mark 0
LayerCount: 2
Fore
SplineSet
342.797851562 1631.32324219 m 1,0,1
 344.483398438 1542.14941406 l 2,2,3
 346 1475 346 1475 420.564453125 1477.71484375 c 4,4,5
 502.38353924 1480.01076246 502.38353924 1480.01076246 502.795898438 1560.97363281 c 2,6,7
 503.463867188 1692.12304688 l 1,8,9
 539 1704 539 1704 597.237304688 1709.6484375 c 1,10,11
 598.9296875 1612.25683594 l 2,12,13
 600 1539 600 1539 684.334960938 1538.70898438 c 0,14,15
 758.162910785 1539.00064358 758.162910785 1539.00064358 755.328125 1625.05664062 c 2,16,17
 752.662109375 1705.98925781 l 1,18,19
 831 1757 831 1757 846.057617188 1767.20019531 c 1,20,21
 850.794921875 1709.18945312 l 2,22,23
 878 1380 878 1380 699.999023438 1380.79101562 c 0,24,25
 623 1381 623 1381 569.970703125 1434.99414062 c 1,26,27
 522 1319 522 1319 406.82421875 1319.9921875 c 0,28,29
 237.217037845 1320.998712 237.217037845 1320.998712 253.830078125 1581.76074219 c 2,30,-1
 259.16015625 1665.42285156 l 1,31,32
 323 1640 323 1640 342.797851562 1631.32324219 c 1,0,1
EndSplineSet
EndChar

StartChar: uni0652
Encoding: 1618 1618 50
Width: -31
VWidth: 2796
GlyphClass: 4
Flags: W
AnchorPoint: "Anchor-10" 711.878 1496.59 mark 0
AnchorPoint: "Anchor-9" 711.878 1496.59 mark 0
AnchorPoint: "Anchor-1" 702.956 2089.12 basemark 0
AnchorPoint: "Anchor-1" 711.878 1496.59 mark 0
LayerCount: 2
Fore
SplineSet
799.215203337 1686.36830238 m 0,0,1
 803.596413906 1690.74998395 803.596413906 1690.74998395 807.42281841 1695.34772439 c 128,-1,2
 811.249222914 1699.94546483 811.249222914 1699.94546483 814.526220071 1704.7617926 c 0,3,4
 821.056478959 1714.36000225 821.056478959 1714.36000225 825.33266068 1724.78821145 c 128,-1,5
 829.596949328 1735.18991806 829.596949328 1735.18991806 831.735486383 1746.73210109 c 128,-1,6
 833.874023438 1758.27428413 833.874023438 1758.27428413 833.874023438 1771.0078125 c 0,7,8
 833.874023438 1787.75626007 833.874023438 1787.75626007 830.037955891 1802.69008383 c 128,-1,9
 826.201888344 1817.6239076 826.201888344 1817.6239076 818.51019813 1830.83577693 c 128,-1,10
 810.818507916 1844.04764625 810.818507916 1844.04764625 799.217395782 1855.65001297 c 0,11,12
 781.827253326 1873.04015542 781.827253326 1873.04015542 760.568529343 1881.67388631 c 128,-1,13
 739.30980536 1890.30761719 739.30980536 1890.30761719 713.810546875 1890.30761719 c 0,14,15
 701.219392694 1890.30761719 701.219392694 1890.30761719 689.536791944 1888.14145655 c 128,-1,16
 677.891152686 1885.98155966 677.891152686 1885.98155966 667.246949489 1881.6991723 c 128,-1,17
 656.616560545 1877.42271869 656.616560545 1877.42271869 646.977230034 1870.9986799 c 128,-1,18
 637.321144884 1864.56253857 637.321144884 1864.56253857 628.791393281 1856.03184891 c 0,19,20
 611.750076871 1838.9905325 611.750076871 1838.9905325 603.141953102 1817.61564005 c 128,-1,21
 594.514648438 1796.19218214 594.514648438 1796.19218214 594.514648438 1771.0078125 c 0,22,23
 594.514648438 1753.99177699 594.514648438 1753.99177699 598.314826984 1738.92122041 c 128,-1,24
 602.115005531 1723.85066384 602.115005531 1723.85066384 609.720453942 1710.65014044 c 128,-1,25
 617.325902354 1697.44961704 617.325902354 1697.44961704 628.791296093 1685.98484984 c 0,26,27
 645.833550545 1668.94353229 645.833550545 1668.94353229 667.20871933 1660.33623241 c 128,-1,28
 688.630162131 1651.70898438 688.630162131 1651.70898438 713.814453125 1651.70898438 c 0,29,30
 722.23845742 1651.70898438 722.23845742 1651.70898438 730.237422033 1652.68161191 c 128,-1,31
 738.236386646 1653.65423944 738.236386646 1653.65423944 745.793837589 1655.59071168 c 128,-1,32
 753.351288531 1657.52718392 753.351288531 1657.52718392 760.515635515 1660.43237437 c 0,33,34
 781.989847016 1669.14013345 781.989847016 1669.14013345 799.215203337 1686.36830238 c 0,0,1
932.428710938 1771.51367188 m 0,35,36
 932.428710938 1748.56947857 932.428710938 1748.56947857 928.508521914 1727.48149637 c 128,-1,37
 924.578355079 1706.34422088 924.578355079 1706.34422088 916.674668639 1686.9613708 c 0,38,39
 912.721109809 1677.26769307 912.721109809 1677.26769307 907.776986958 1668.01373659 c 128,-1,40
 902.832864107 1658.7597801 902.832864107 1658.7597801 896.90312643 1649.95321424 c 0,41,42
 885.060560956 1632.3676788 885.060560956 1632.3676788 869.216500476 1616.4208579 c 0,43,44
 863.999792871 1611.17140354 863.999792871 1611.17140354 858.567077454 1606.34880163 c 128,-1,45
 853.134362038 1601.52619972 853.134362038 1601.52619972 847.485694331 1597.13041461 c 128,-1,46
 841.837026624 1592.7346295 841.837026624 1592.7346295 835.972830751 1588.76770108 c 128,-1,47
 830.108634878 1584.80077265 830.108634878 1584.80077265 824.032897637 1581.26490517 c 128,-1,48
 817.957160396 1577.7290377 817.957160396 1577.7290377 811.666112548 1574.6238818 c 128,-1,49
 805.3750647 1571.51872591 805.3750647 1571.51872591 798.876624322 1568.84872578 c 0,50,51
 779.368159281 1560.83401557 779.368159281 1560.83401557 758.294712276 1556.82636003 c 128,-1,52
 737.255511477 1552.82421875 737.255511477 1552.82421875 714.553710938 1552.82421875 c 0,53,54
 699.471315474 1552.82421875 699.471315474 1552.82421875 685.057345392 1554.60471725 c 128,-1,55
 670.64337531 1556.38521576 670.64337531 1556.38521576 656.913418191 1559.94951722 c 128,-1,56
 643.218591809 1563.50514049 643.218591809 1563.50514049 630.275148547 1568.82500094 c 128,-1,57
 617.331705286 1574.14486138 617.331705286 1574.14486138 605.161804128 1581.22037367 c 0,58,59
 580.791427174 1595.38843009 580.791427174 1595.38843009 559.893684975 1616.42200162 c 0,60,61
 496.678710938 1680.0397907 496.678710938 1680.0397907 496.678710938 1771.51367188 c 128,-1,62
 496.678710938 1862.97508671 496.678710938 1862.97508671 559.880481719 1926.18885422 c 128,-1,63
 623.081275938 1989.38964844 623.081275938 1989.38964844 714.553710938 1989.38964844 c 0,64,65
 737.255443316 1989.38964844 737.255443316 1989.38964844 758.296503073 1985.41306286 c 128,-1,66
 779.371581831 1981.43085903 779.371581831 1981.43085903 798.879817056 1973.46708897 c 128,-1,67
 818.36751432 1965.51244704 818.36751432 1965.51244704 835.965962188 1953.68143807 c 128,-1,68
 853.564410057 1941.85042909 853.564410057 1941.85042909 869.225963593 1926.18787766 c 0,69,70
 873.712273811 1921.70156744 873.712273811 1921.70156744 877.886931761 1917.05081521 c 128,-1,71
 882.061029367 1912.40050508 882.061029367 1912.40050508 885.924208127 1907.58618549 c 0,72,73
 893.645023252 1897.96390845 893.645023252 1897.96390845 900.076099042 1887.75220024 c 0,74,75
 902.221036625 1884.34771208 902.221036625 1884.34771208 904.224565347 1880.87809063 c 0,76,77
 905.227140503 1879.14172856 905.227140503 1879.14172856 906.193529346 1877.39167347 c 128,-1,78
 907.159918189 1875.64161838 907.159918189 1875.64161838 908.093453002 1873.87176065 c 0,79,80
 909.955629257 1870.33752823 909.955629257 1870.33752823 911.680324231 1866.73498777 c 0,81,82
 914.265027913 1861.33233642 914.265027913 1861.33233642 916.528022034 1855.79000348 c 128,-1,83
 918.788246294 1850.24955119 918.788246294 1850.24955119 920.728701589 1844.56821325 c 0,84,85
 921.699614328 1841.7255048 921.699614328 1841.7255048 922.590446857 1838.84812825 c 128,-1,86
 923.481279386 1835.97075169 923.481279386 1835.97075169 924.291213348 1833.0614889 c 0,87,88
 925.912464041 1827.24158897 925.912464041 1827.24158897 927.213788805 1821.28735503 c 0,89,-1
 927.265979712 1821.01170771 l 1,90,-1
 931.087268774 1797.19139521 l 1,91,-1
 931.123320018 1796.91900356 l 2,92,93
 931.3836134 1794.42776653 931.3836134 1794.42776653 931.593189448 1791.91684587 c 128,-1,94
 931.801579846 1789.40818443 931.801579846 1789.40818443 931.959210802 1786.87511482 c 0,95,96
 932.037537667 1785.60891366 932.037537667 1785.60891366 932.102791309 1784.33967064 c 128,-1,97
 932.168044951 1783.07042762 932.168044951 1783.07042762 932.22048206 1781.79295976 c 128,-1,98
 932.27232977 1780.5177055 932.27232977 1780.5177055 932.311398538 1779.2388376 c 128,-1,99
 932.350467306 1777.9599697 932.350467306 1777.9599697 932.376913646 1776.67208285 c 0,100,101
 932.4287189 1774.1027415 932.4287189 1774.1027415 932.428710938 1771.51367188 c 0,35,36
EndSplineSet
EndChar

StartChar: uni0653
Encoding: 1619 1619 51
Width: -3
VWidth: 2763
GlyphClass: 4
Flags: W
AnchorPoint: "Anchor-10" 485.314 1570.07 mark 0
AnchorPoint: "Anchor-9" 485.314 1570.07 mark 0
AnchorPoint: "Anchor-1" 455.074 2045.65 basemark 0
AnchorPoint: "Anchor-1" 485.314 1570.07 mark 0
LayerCount: 2
Fore
SplineSet
361.947265625 1668.20605469 m 1,0,1
 276.264648438 1667.18945312 276.264648438 1667.18945312 178.052734375 1578.7578125 c 1,2,3
 145.065429688 1599.99023438 145.065429688 1599.99023438 127.016601562 1624.33496094 c 1,4,5
 186.665039062 1779.18847656 186.665039062 1779.18847656 224.00390625 1814.39550781 c 0,6,7
 270.931640625 1860.25488281 270.931640625 1860.25488281 326.908203125 1859.84277344 c 0,8,9
 382.930664062 1860.25488281 382.930664062 1860.25488281 494.076171875 1845.51660156 c 0,10,11
 652.795898438 1825.05566406 652.795898438 1825.05566406 768.463867188 1853.99023438 c 0,12,13
 831.293945312 1869.67578125 831.293945312 1869.67578125 838.114257812 1855.06347656 c 4,14,15
 842.661132812 1845.32226562 842.661132812 1845.32226562 824.912109375 1816.68847656 c 0,16,17
 774.395507812 1738.65625 774.395507812 1738.65625 717.329101562 1692.25585938 c 128,-1,18
 660.262695312 1645.85644531 660.262695312 1645.85644531 361.947265625 1668.20605469 c 1,0,1
EndSplineSet
EndChar

StartChar: uni0657
Encoding: 1623 1623 54
Width: -34
VWidth: 3019
GlyphClass: 4
Flags: W
AnchorPoint: "Anchor-10" 743.995 1766.13 mark 0
AnchorPoint: "Anchor-9" 743.995 1766.13 mark 0
AnchorPoint: "Anchor-1" 743.995 2725.59 basemark 0
AnchorPoint: "Anchor-1" 743.995 1766.13 mark 0
LayerCount: 2
Fore
SplineSet
331.073242188 2367.95800781 m 1,0,-1
 506.10546875 2356.64648438 l 1,1,2
 578.007550855 2455.44858726 578.007550855 2455.44858726 683.27037699 2519.46794597 c 128,-1,3
 788.533203125 2583.48730469 788.533203125 2583.48730469 845.87109375 2608.62988282 c 128,-1,4
 903.208984375 2633.77246094 903.208984375 2633.77246094 928.913085938 2642.68945312 c 0,5,6
 979.916694295 2660.38375206 979.916694295 2660.38375206 1030.55957031 2664.78710938 c 1,7,-1
 1030.55957031 2538.50976562 l 1,8,9
 901.873024595 2531.21619587 901.873024595 2531.21619587 734.336914062 2400.359375 c 0,10,11
 699.703125 2373.5546875 699.703125 2373.5546875 670.383789062 2342.49804688 c 2,12,-1
 648.336914062 2319.29003906 l 1,13,-1
 679.380859375 2312.37988281 l 2,14,15
 692.34460752 2309.83120801 692.34460752 2309.83120801 741.739198291 2283.49031103 c 0,16,17
 839.111532047 2231.56408649 839.111532047 2231.56408649 861.866210938 2136.63574219 c 0,18,19
 866.072265625 2119.09765625 866.072265625 2119.09765625 866.131835938 2101.39746094 c 0,20,21
 865.950467834 1869.25417826 865.950467834 1869.25417826 641.456054688 1871.32324219 c 0,22,23
 485.679924679 1872.33499763 485.679924679 1872.33499763 434.25 2009.56835938 c 0,24,25
 401.318719512 2097.49152609 401.318719512 2097.49152609 438.010742188 2215.40234375 c 2,26,-1
 444.87890625 2237.47460938 l 1,27,-1
 421.79296875 2238.83886719 l 2,28,29
 378.406015494 2241.40119697 378.406015494 2241.40119697 331.073242188 2241.75488281 c 1,30,-1
 331.073242188 2367.95800781 l 1,0,-1
627.271484375 1997.50878906 m 0,31,32
 736.995117188 1997.50878906 736.995117188 1997.50878906 736.995117188 2089.40332031 c 0,33,34
 736.995117188 2165.25933602 736.995117188 2165.25933602 574.364257812 2216.29296875 c 1,35,-1
 559.092773438 2180.66699219 l 2,36,37
 544.345703125 2146.25976562 544.345703125 2146.25976562 544.345703125 2109.05273437 c 0,38,39
 544.345703125 2032.50749529 544.345703125 2032.50749529 604.412109375 2003.51953125 c 0,40,41
 616.852063128 1997.50878906 616.852063128 1997.50878906 627.271484375 1997.50878906 c 0,31,32
EndSplineSet
EndChar

StartChar: uni065A
Encoding: 1626 1626 55
Width: 1473
VWidth: 3019
GlyphClass: 4
Flags: W
AnchorPoint: "Anchor-10" 743.995 1766.13 mark 0
AnchorPoint: "Anchor-9" 743.995 1766.13 mark 0
AnchorPoint: "Anchor-1" 741.044 2430.38 basemark 0
AnchorPoint: "Anchor-1" 743.995 1766.13 mark 0
LayerCount: 2
Fore
SplineSet
645.026367188 1875.75097656 m 1,0,-1
 378.834960938 2320.76855469 l 1,1,-1
 542.42578125 2320.76855469 l 1,2,-1
 743.995117188 2018.40429688 l 1,3,-1
 945.56640625 2320.76855469 l 1,4,-1
 1109.16015625 2320.76855469 l 1,5,-1
 842.963867188 1875.75097656 l 1,6,-1
 645.026367188 1875.75097656 l 1,0,-1
EndSplineSet
EndChar

StartChar: afii57392
Encoding: 1632 1632 56
Width: 897
VWidth: 3399
GlyphClass: 2
Flags: W
LayerCount: 2
Fore
SplineSet
451.950195312 845.014648438 m 5,0,-1
 699.65625 597.309570312 l 5,1,-1
 446.200195312 343.852539062 l 5,2,-1
 198.494140625 591.559570312 l 5,3,-1
 451.950195312 845.014648438 l 5,0,-1
EndSplineSet
EndChar

StartChar: afii57393
Encoding: 1633 1633 57
Width: 731
VWidth: 3386
GlyphClass: 2
Flags: W
LayerCount: 2
Fore
SplineSet
529.481445312 73 m 0,0,1
 528 30 528 30 505.262695312 25.06640625 c 0,2,3
 437 11 437 11 369.086914062 -2.189453125 c 1,4,5
 369 716 369 716 124.797851562 1229.99023438 c 1,6,-1
 275.46875 1423.65722656 l 2,7,8
 300 1456 300 1456 317.094726562 1415.28320312 c 0,9,10
 556 842 556 842 529.481445312 73 c 0,0,1
EndSplineSet
EndChar

StartChar: afii57394
Encoding: 1634 1634 58
Width: 1095
VWidth: 3386
GlyphClass: 2
Flags: W
LayerCount: 2
Fore
SplineSet
488 820 m 1,0,1
 543 453 543 453 529.481445312 73 c 0,2,3
 528 30 528 30 505.262695312 25.06640625 c 0,4,5
 419 6 419 6 369.086914062 -2.189453125 c 1,6,7
 369 716 369 716 124.797851562 1229.99023438 c 1,8,-1
 275.46875 1423.65722656 l 2,9,10
 300 1455 300 1455 317.094726562 1415.28320312 c 0,11,12
 331 1382 331 1382 381.059570312 1246 c 24,13,14
 441 1084 441 1084 610.874023438 1087.0859375 c 0,15,16
 808.108260335 1091.00214958 808.108260335 1091.00214958 841.294921875 1363.52050781 c 6,17,-1
 845.958984375 1401.8203125 l 5,18,-1
 998.552734375 1401.8203125 l 5,19,-1
 997.4765625 1353.59082031 l 6,20,21
 985.036693449 811.598695312 985.036693449 811.598695312 603.485423523 810.252260828 c 0,22,23
 532 810 532 810 488 820 c 1,0,1
EndSplineSet
EndChar

StartChar: afii57395
Encoding: 1635 1635 59
Width: 1296
VWidth: 3386
GlyphClass: 2
Flags: W
LayerCount: 2
Fore
SplineSet
492.502929688 805 m 1,0,1
 542 461 542 461 529.481445312 73 c 0,2,3
 528 30 528 30 505.262695312 25.06640625 c 0,4,5
 437 11 437 11 369.086914062 -2.189453125 c 1,6,7
 369 716 369 716 124.797851562 1229.99023438 c 1,8,-1
 275.46875 1423.65722656 l 2,9,10
 301 1457 301 1457 317.094726562 1415.28320312 c 0,11,12
 330 1381 330 1381 381.059570312 1246 c 16,13,14
 443 1084 443 1084 550.262695312 1084.89453125 c 0,15,16
 651.93140335 1085.99925463 651.93140335 1085.99925463 670.885742188 1237.47949219 c 2,17,-1
 686.223632812 1360.05761719 l 1,18,-1
 829.81640625 1360.05957031 l 1,19,-1
 834.767578125 1228.3359375 l 2,20,21
 840 1084 840 1084 943.706054688 1084.54980469 c 0,22,23
 1027.0276113 1085.00014924 1027.0276113 1085.00014924 1043.05957031 1257.32421875 c 6,24,-1
 1054.90820312 1384.68261719 l 1,25,-1
 1207.01660156 1384.6796875 l 1,26,-1
 1207.02929688 1320.52441406 l 2,27,28
 1207 814 1207 814 935.314453125 812.552734375 c 0,29,30
 813 812 813 812 736.797851562 937.185546875 c 1,31,32
 685 792 685 792 492.502929688 805 c 1,0,1
EndSplineSet
EndChar

StartChar: afii57396
Encoding: 1636 1636 60
Width: 991
VWidth: 3393
GlyphClass: 2
Flags: W
LayerCount: 2
Fore
SplineSet
439.280273438 888.71875 m 0,0,1
 569 810 569 810 741.106445312 735.463867188 c 1,2,3
 746 651 746 651 750.547851562 565.747070312 c 1,4,5
 403 416 403 416 403.241210938 360.751953125 c 4,6,7
 403 337 403 337 452 321.23828125 c 4,8,9
 546 291 546 291 745.129882812 290.809570312 c 0,10,11
 806 291 806 291 875.999023438 293.360351562 c 1,12,-1
 871.11328125 59.0966796875 l 2,13,14
 870 -13 870 -13 815.868164062 -7.2138671875 c 0,15,16
 814 -7 814 -7 812.912109375 -7.166015625 c 0,17,18
 351 12 351 12 212.255859375 118.819335938 c 0,19,20
 146 170 146 170 145.842773438 244.409179688 c 0,21,22
 146 428 146 428 455.93359375 617.176757812 c 1,23,24
 126 769 126 769 127.520507812 915.068359375 c 0,25,26
 128 982 128 982 187.646484375 1051.08105469 c 0,27,28
 330 1215 330 1215 714.536132812 1386.37988281 c 0,29,30
 763 1408 763 1408 768.909179688 1386.12597656 c 0,31,32
 772 1374 772 1374 770.494140625 1362.03320312 c 0,33,34
 741 1201 741 1201 710.793945312 1040.42382812 c 1,35,36
 585 1032 585 1032 445.842773438 989.88671875 c 0,37,38
 407 978 407 978 395.991210938 959.552734375 c 0,39,40
 391 952 391 952 391.19140625 943.592773438 c 0,41,42
 391 918 391 918 439.280273438 888.71875 c 0,0,1
EndSplineSet
EndChar

StartChar: afii57397
Encoding: 1637 1637 61
Width: 1156
VWidth: 3735
GlyphClass: 2
Flags: W
LayerCount: 2
Fore
SplineSet
553.6484375 967.265625 m 1,0,1
 283 635 283 635 282.84765625 478.915039062 c 0,2,3
 283 392 283 392 340.005859375 344.436523438 c 0,4,5
 415 282 415 282 594.805664062 282.859375 c 0,6,7
 744 284 744 284 813.470703125 337.536132812 c 4,8,9
 891 397 891 397 891.103515625 491.594726562 c 0,10,11
 891 656 891 656 553.6484375 967.265625 c 1,0,1
150.818359375 191.360351562 m 0,12,13
 87 298 87 298 86.9150390625 423 c 0,14,15
 87.0000440993 685.13599218 87.0000440993 685.13599218 408.306640625 1060.28515625 c 2,16,-1
 429.478515625 1085.00488281 l 1,17,-1
 347.282226562 1146.65332031 l 1,18,-1
 490.1015625 1407.57910156 l 1,19,20
 1073 899 1073 899 1072.90625 462.521484375 c 0,21,22
 1073 208 1073 208 883.2109375 77.2021484375 c 0,23,24
 758 -9 758 -9 597.772460938 -8.7138671875 c 0,25,26
 270 -8 270 -8 150.818359375 191.360351562 c 0,12,13
EndSplineSet
EndChar

StartChar: afii57398
Encoding: 1638 1638 62
Width: 1228
VWidth: 3396
GlyphClass: 2
Flags: W
LayerCount: 2
Fore
SplineSet
1130.125 184.404296875 m 1,0,-1
 967.114257812 -15.1982421875 l 1,1,2
 844 105 844 105 791.237304688 392.612304688 c 0,3,4
 739.783644089 679.205085149 739.783644089 679.205085149 732.717773438 1089.82128906 c 6,5,-1
 732.500976562 1102.41992188 l 5,6,-1
 720.111328125 1100.125 l 6,7,8
 552 1069 552 1069 426.353515625 1071.57617188 c 4,9,10
 220 1075 220 1075 170.059570312 1124.95019531 c 4,11,12
 142 1153 142 1153 121.401367188 1403.58007812 c 4,13,14
 118 1445 118 1445 130.526367188 1445.89648438 c 4,15,16
 137 1446 137 1446 161.369140625 1437.02441406 c 4,17,18
 464 1320 464 1320 923.333007812 1388.44726562 c 5,19,20
 929 431 929 431 1130.125 184.404296875 c 1,0,-1
EndSplineSet
EndChar

StartChar: afii57399
Encoding: 1639 1639 63
Width: 1203
VWidth: 3397
GlyphClass: 2
Flags: W
LayerCount: 2
Fore
SplineSet
980.403320312 1422.47070312 m 6,0,-1
 1139.40136719 1203.88964844 l 5,1,2
 872 759 872 759 699.885742188 -2.5146484375 c 1,3,-1
 535.931640625 -2.5146484375 l 1,4,5
 398 674 398 674 66 1191 c 1,6,-1
 204.259765625 1422.4609375 l 2,7,8
 223 1453 223 1453 242.734375 1418.38964844 c 0,9,10
 467 1021 467 1021 611.42578125 391.041992188 c 1,11,12
 792 1108 792 1108 939.891601562 1412.71582031 c 4,13,14
 959 1452 959 1452 980.403320312 1422.47070312 c 6,0,-1
EndSplineSet
EndChar

StartChar: afii57400
Encoding: 1640 1640 64
Width: 1204
VWidth: 3397
GlyphClass: 2
Flags: W
LayerCount: 2
Fore
SplineSet
980.403320312 -12.5146484375 m 2,0,1
 959 -42.0439453125 959 -42.0439453125 939.891601562 -2.759765625 c 0,2,3
 792 301.956054688 792 301.956054688 611.42578125 1018.9140625 c 1,4,5
 467 388.956054688 467 388.956054688 242.734375 -8.43359375 c 0,6,7
 223 -43.0439453125 223 -43.0439453125 204.259765625 -12.5048828125 c 2,8,-1
 66 218.956054688 l 1,9,10
 398 735.956054688 398 735.956054688 535.931640625 1412.47070312 c 1,11,-1
 699.885742188 1412.47070312 l 1,12,13
 872 650.956054688 872 650.956054688 1139.40136719 206.06640625 c 1,14,-1
 980.403320312 -12.5146484375 l 2,0,1
EndSplineSet
EndChar

StartChar: afii57401
Encoding: 1641 1641 65
Width: 1039
VWidth: 3397
GlyphClass: 2
Flags: W
LayerCount: 2
Fore
SplineSet
625.236328125 630.479492188 m 1,0,1
 526 616 526 616 444.583007812 615.701171875 c 0,2,3
 301 616 301 616 211.571289062 675.390625 c 0,4,5
 96 754 96 754 105.501953125 944.119140625 c 0,6,7
 112 1084 112 1084 166 1213.76367188 c 0,8,9
 256 1428 256 1428 444.5 1431 c 0,10,11
 579 1433 579 1433 673.756835938 1324.50878906 c 0,12,13
 780 1204 780 1204 787.099609375 910.828125 c 0,14,15
 801 358 801 358 969.260742188 194.3984375 c 1,16,-1
 814.995117188 -20 l 1,17,18
 628 172 628 172 625.236328125 630.479492188 c 1,0,1
337.185546875 885.197265625 m 0,19,20
 379 871 379 871 441.765625 870.594726562 c 0,21,22
 514 871 514 871 613.571289062 890.078125 c 1,23,-1
 608.341796875 954.41015625 l 2,24,25
 589 1188 589 1188 434.341796875 1187.77441406 c 0,26,27
 325 1188 325 1188 289.271484375 1039.06542969 c 0,28,29
 259 912 259 912 337.185546875 885.197265625 c 0,19,20
EndSplineSet
EndChar

StartChar: afii57381
Encoding: 1642 1642 66
Width: 1154
VWidth: 3443
GlyphClass: 2
Flags: W
LayerCount: 2
Fore
SplineSet
120.865234375 1130.39160156 m 128,-1,1
 120.865234375 1205.05859375 120.865234375 1205.05859375 173.131835938 1257.32421875 c 128,-1,2
 225.397460938 1309.59082031 225.397460938 1309.59082031 300.063476562 1309.59082031 c 128,-1,3
 374.73046875 1309.59082031 374.73046875 1309.59082031 426.99609375 1257.32421875 c 128,-1,4
 479.262695312 1205.05859375 479.262695312 1205.05859375 479.262695312 1130.39160156 c 128,-1,5
 479.262695312 1055.72558594 479.262695312 1055.72558594 426.99609375 1003.45996094 c 128,-1,6
 374.73046875 951.193359375 374.73046875 951.193359375 300.063476562 951.193359375 c 128,-1,7
 225.397460938 951.193359375 225.397460938 951.193359375 173.131835938 1003.45996094 c 128,-1,0
 120.865234375 1055.72558594 120.865234375 1055.72558594 120.865234375 1130.39160156 c 128,-1,1
667.234375 302.158203125 m 0,8,9
 667 377 667 377 719.5 429.090820312 c 128,-1,10
 772 481 772 481 846.432617188 481.356445312 c 0,11,12
 921 481 921 481 973.365234375 429.090820312 c 0,13,14
 1026 377 1026 377 1025.63183594 302.158203125 c 0,15,16
 1026 227 1026 227 973.365234375 175.225585938 c 0,17,18
 921 123 921 123 846.432617188 122.958984375 c 128,-1,19
 772 123 772 123 719.5 175.225585938 c 0,20,21
 667 227 667 227 667.234375 302.158203125 c 0,8,9
815.555664062 1427.8203125 m 5,22,-1
 1006.24121094 1326.10742188 l 5,23,-1
 317 -11 l 1,24,-1
 128.546875 91.98828125 l 1,25,-1
 815.555664062 1427.8203125 l 5,22,-1
EndSplineSet
EndChar

StartChar: uni066B
Encoding: 1643 1643 67
Width: 908
VWidth: 3443
GlyphClass: 2
Flags: W
LayerCount: 2
Fore
SplineSet
571.930664062 810.301757812 m 5,0,-1
 750.224609375 736.064453125 l 5,1,-1
 204 -409 l 5,2,-1
 23.69140625 -331.692382812 l 5,3,-1
 571.930664062 810.301757812 l 5,0,-1
EndSplineSet
PairPos2: "'kern' Horizontal Kerning lookup 15-5" uni06F4 dx=-110 dy=0 dh=-110 dv=0 dx=0 dy=0 dh=0 dv=0
PairPos2: "'kern' Horizontal Kerning lookup 15-5" uni06F3 dx=-130 dy=0 dh=-130 dv=0 dx=0 dy=0 dh=0 dv=0
PairPos2: "'kern' Horizontal Kerning lookup 15-5" uni06F2 dx=-130 dy=0 dh=-130 dv=0 dx=0 dy=0 dh=0 dv=0
EndChar

StartChar: uni066C
Encoding: 1644 1644 68
Width: 503
VWidth: 3055
GlyphClass: 2
Flags: W
LayerCount: 2
Fore
SplineSet
243.712890625 -0.7138671875 m 5,0,-1
 226.69140625 -0.68359375 l 4,1,2
 164 -1 164 -1 127.69921875 48.3237304688 c 4,3,4
 94 94 94 94 100 156 c 4,5,6
 106.157946108 219.632109786 106.157946108 219.632109786 153.151367188 252.7421875 c 4,7,8
 189 278 189 278 237 278.02734375 c 4,9,10
 387 279 387 279 386.609375 100 c 4,11,12
 386 -129 386 -129 129.0078125 -293.272460938 c 4,13,14
 84 -322 84 -322 68.2998046875 -292.971679688 c 4,15,16
 58 -274 58 -274 82.59765625 -254.60546875 c 4,17,18
 243 -123 243 -123 243.712890625 -0.7138671875 c 5,0,-1
EndSplineSet
PairPos2: "'kern' Horizontal Kerning lookup 15-5" uni06F4 dx=-117 dy=0 dh=-117 dv=0 dx=0 dy=0 dh=0 dv=0
PairPos2: "'kern' Horizontal Kerning lookup 15-5" uni06F3 dx=-135 dy=0 dh=-135 dv=0 dx=0 dy=0 dh=0 dv=0
PairPos2: "'kern' Horizontal Kerning lookup 15-5" uni06F2 dx=-117 dy=0 dh=-117 dv=0 dx=0 dy=0 dh=0 dv=0
EndChar

StartChar: afii63167
Encoding: 1645 1645 69
Width: 1734
VWidth: 3194
GlyphClass: 2
Flags: W
LayerCount: 2
Fore
SplineSet
188.93359375 1176.17675781 m 1,0,-1
 707.16015625 1176.17675781 l 1,1,-1
 868.931640625 1668.70507812 l 1,2,-1
 1030.70117188 1176.17675781 l 1,3,-1
 1548.93066406 1176.17675781 l 1,4,-1
 1130.27539062 870.12890625 l 1,5,-1
 1290.46972656 377.9921875 l 1,6,-1
 868.931640625 682.6015625 l 1,7,-1
 447.390625 377.993164062 l 1,8,-1
 607.583984375 870.12890625 l 1,9,-1
 188.93359375 1176.17675781 l 1,0,-1
EndSplineSet
EndChar

StartChar: uni066E
Encoding: 1646 1646 70
Width: 1788
VWidth: 3753
GlyphClass: 2
Flags: W
AnchorPoint: "Anchor-10" 782.573 1279.21 basechar 0
AnchorPoint: "Anchor-7" 640.479 -204.823 basechar 0
LayerCount: 2
Fore
SplineSet
1692.25292969 481.858398438 m 4,0,1
 1692 362 1692 362 1641.32226562 273.998046875 c 0,2,3
 1484 0 1484 0 850.345703125 0 c 0,4,5
 489 0 489 0 307.043945312 99.7861328125 c 0,6,7
 97 216 97 216 96.4306640625 449.08203125 c 0,8,9
 96 637 96 637 182 805 c 1,10,-1
 292.756835938 769.514648438 l 1,11,12
 262 659 262 659 261.442382812 574.133789062 c 0,13,14
 261 502 261 502 298.154296875 446.359375 c 0,15,16
 401 291 401 291 867.231445312 290.80078125 c 0,17,18
 1393 291 1393 291 1475.63671875 369.18359375 c 0,19,20
 1503.53965737 395.710325658 1503.53965737 395.710325658 1495.60058594 434.205078125 c 0,21,22
 1484 496 1484 496 1413.32324219 659.26171875 c 5,23,-1
 1549.23144531 834.860351562 l 6,24,25
 1573 865 1573 865 1579.47070312 865.147460938 c 4,26,27
 1586.32324219 865.26171875 1586.32324219 865.26171875 1603.85546875 834.860351562 c 4,28,29
 1691.32324219 684.26171875 1691.32324219 684.26171875 1692.25292969 481.858398438 c 4,0,1
EndSplineSet
Substitution2: "'init' Initial Forms in Arabic lookup 13 subtable" uni066E.init
Substitution2: "'medi' Medial Forms in Arabic lookup 11 subtable" uni066E.medi
Substitution2: "'fina' Terminal Forms in Arabic lookup 9 subtable" uni066E.fina
EndChar

StartChar: uni066F
Encoding: 1647 1647 71
Width: 1390
VWidth: 3781
GlyphClass: 2
Flags: W
AnchorPoint: "Anchor-10" 539.965 1173.97 basechar 0
AnchorPoint: "Anchor-7" 560.603 -688.546 basechar 0
LayerCount: 2
Fore
SplineSet
686.911132812 -153.294921875 m 0,0,1
 1039 -152 1039 -152 1122.984375 17.609375 c 0,2,3
 1134 40 1134 40 1136.73925781 78.60546875 c 1,4,5
 1020 60 1020 60 945.72265625 60.2568359375 c 0,6,7
 678 61 678 61 678.028320312 323.942382812 c 0,8,9
 678 361 678 361 688.211914062 426.451171875 c 0,10,11
 714 594 714 594 800.069335938 693.95703125 c 0,12,13
 874 781 874 781 986.321289062 780.637695312 c 0,14,15
 1148 781 1148 781 1239.70996094 565.977539062 c 0,16,17
 1293 440 1293 440 1293.49804688 202 c 0,18,19
 1294 1 1294 1 1236.87597656 -134.638671875 c 0,20,21
 1111 -434 1111 -434 687.077148438 -434.131835938 c 0,22,23
 376 -434 376 -434 232.650390625 -279.431640625 c 0,24,25
 98 -134 98 -134 97.78515625 78.705078125 c 0,26,27
 98 298 98 298 197.5234375 519.53125 c 1,28,-1
 315.994140625 480.465820312 l 1,29,30
 264 309 264 309 264.004882812 186.375976562 c 0,31,32
 264 51 264 51 326.44140625 -25.27734375 c 0,33,34
 432 -154 432 -154 686.911132812 -153.294921875 c 0,0,1
1136.61230469 352.79296875 m 1,35,36
 1093 539 1093 539 955.634765625 538.427734375 c 0,37,38
 880 538 880 538 848.114257812 458.1640625 c 0,39,40
 837 430 837 430 837.44921875 408.296875 c 0,41,42
 837 385 837 385 849.451171875 367.860351562 c 0,43,44
 875 333 875 333 976.212890625 332.830078125 c 0,45,46
 1079 333 1079 333 1136.61230469 352.79296875 c 1,35,36
EndSplineSet
Substitution2: "'init' Initial Forms in Arabic lookup 13 subtable" uni066F.init
Substitution2: "'medi' Medial Forms in Arabic lookup 11 subtable" uni066F.medi
Substitution2: "'fina' Terminal Forms in Arabic lookup 9 subtable" uni066F.fina
EndChar

StartChar: uni0670
Encoding: 1648 1648 72
Width: 0
VWidth: 2983
GlyphClass: 4
Flags: W
AnchorPoint: "Anchor-10" 756.062 1757.67 mark 0
AnchorPoint: "Anchor-9" 756.062 1757.67 mark 0
AnchorPoint: "Anchor-1" 744.304 2285.04 basemark 0
AnchorPoint: "Anchor-1" 756.062 1757.67 mark 0
LayerCount: 2
Fore
SplineSet
730.2890625 1804.25976562 m 1,0,-1
 674.0234375 2162.31933594 l 5,1,-1
 814.170898438 2245.7734375 l 5,2,-1
 814.170898438 1832.16113281 l 1,3,-1
 730.2890625 1804.25976562 l 1,0,-1
EndSplineSet
EndChar

StartChar: uni0674
Encoding: 1652 1652 73
Width: 802
VWidth: 2763
GlyphClass: 2
Flags: W
LayerCount: 2
Fore
SplineSet
193.499023438 1765.28027344 m 5,0,-1
 217.942382812 1932.86523438 l 5,1,2
 225 1936 225 1936 280.864257812 1962.21972656 c 6,3,-1
 302.837890625 1972.36230469 l 5,4,-1
 280.525390625 1981.73828125 l 6,5,6
 174 2027 174 2027 211.264648438 2174.41699219 c 4,7,8
 257 2354 257 2354 431.634765625 2353.06640625 c 4,9,10
 511 2353 511 2353 579.3984375 2290.49121094 c 5,11,-1
 595.150390625 2275.04394531 l 5,12,-1
 552.3515625 2179.36230469 l 5,13,14
 378 2234 378 2234 315 2148.70553787 c 4,15,16
 304 2134 304 2134 314 2116.50293456 c 4,17,18
 361 2035 361 2035 528.057617188 2077.32617188 c 4,19,20
 579 2090 579 2090 587.770507812 2083.61425781 c 28,21,22
 596.610834274 2078.23672773 596.610834274 2078.23672773 596.260742188 2039.9453125 c 6,23,-1
 595.344726562 1939.75585938 l 5,24,25
 465 1896 465 1896 193.499023438 1765.28027344 c 5,0,-1
EndSplineSet
EndChar

StartChar: uni06A1
Encoding: 1697 1697 77
Width: 1728
VWidth: 3781
GlyphClass: 2
Flags: W
AnchorPoint: "Anchor-10" 744.373 1455.85 basechar 0
AnchorPoint: "Anchor-7" 617.96 -190.295 basechar 0
LayerCount: 2
Fore
SplineSet
1007.7421875 756.473632812 m 0,0,1
 1033 921 1033 921 1119.59960938 1022.97949219 c 0,2,3
 1194 1110 1194 1110 1305.8515625 1109.66015625 c 0,4,5
 1480 1110 1480 1110 1571.24023438 895 c 0,6,7
 1630 757 1630 757 1631.36621094 528.068359375 c 0,8,9
 1633 220 1633 220 1476.65527344 108.322265625 c 4,10,11
 1325 0 1325 0 901.59375 0 c 2,12,-1
 820.345703125 0 l 2,13,14
 489 0 489 0 307.043945312 99.7861328125 c 0,15,16
 97 216 97 216 96.4306640625 449.08203125 c 0,17,18
 96 637 96 637 182 805 c 1,19,-1
 292.756835938 769.514648438 l 1,20,21
 262 659 262 659 261.442382812 574.133789062 c 0,22,23
 261 502 261 502 298.154296875 446.359375 c 0,24,25
 401 291 401 291 837.231445312 290.80078125 c 0,26,27
 1250 291 1250 291 1347.29394531 318.80078125 c 0,28,29
 1461.12908877 351.036555288 1461.12908877 351.036555288 1469.36425781 421.358398438 c 2,30,-1
 1471.26953125 437.627929688 l 1,31,32
 1367 420 1367 420 1273.25292969 420.279296875 c 0,33,34
 999 422 999 422 1000.66113281 669 c 0,35,36
 1001 709 1001 709 1007.7421875 756.473632812 c 0,0,1
1463.14257812 681.815429688 m 1,37,38
 1419 868 1419 868 1275.16503906 867.450195312 c 0,39,40
 1198 867 1198 867 1167.64453125 787.186523438 c 0,41,42
 1145 728 1145 728 1168.98144531 696.8828125 c 0,43,44
 1195 662 1195 662 1295.74316406 661.852539062 c 0,45,46
 1405 662 1405 662 1463.14257812 681.815429688 c 1,37,38
EndSplineSet
Substitution2: "'init' Initial Forms in Arabic lookup 13 subtable" uni06A1.init
Substitution2: "'medi' Medial Forms in Arabic lookup 11 subtable" uni06A1.medi
Substitution2: "'fina' Terminal Forms in Arabic lookup 9 subtable" uni06A1.fina
EndChar

StartChar: uni06A9
Encoding: 1705 1705 78
Width: 1892
VWidth: 3732
GlyphClass: 2
Flags: W
AnchorPoint: "Anchor-10" 1022.15 1407.71 basechar 0
AnchorPoint: "Anchor-7" 763.197 -230.921 basechar 0
LayerCount: 2
Fore
SplineSet
1604.62988281 453.345703125 m 0,0,1
 1605 305 1605 305 1511.40234375 208.561523438 c 0,2,3
 1309 0 1309 0 820.345703125 0 c 0,4,5
 489 0 489 0 307.043945312 99.7861328125 c 0,6,7
 97 216 97 216 96.4306640625 449.08203125 c 0,8,9
 96 637 96 637 182 805 c 1,10,-1
 292.756835938 769.514648438 l 1,11,12
 262 659 262 659 261.442382812 574.133789062 c 0,13,14
 261 502 261 502 298.154296875 446.359375 c 0,15,16
 401 291 401 291 837.231445312 290.80078125 c 4,17,18
 1234 291 1234 291 1410 383.188476562 c 0,19,20
 1442 400 1442 400 1439.484375 415.822265625 c 24,21,22
 1424 515 1424 515 928.7421875 909.029296875 c 1,23,-1
 984.567382812 1184.46386719 l 1,24,-1
 1784.94140625 1479.15136719 l 2,25,26
 1825.4741107 1493.8098148 1825.4741107 1493.8098148 1815.45507812 1429.83886719 c 2,27,-1
 1784 1229 l 1,28,-1
 1189 1020 l 1,29,30
 1604 679 1604 679 1604.62988281 453.345703125 c 0,0,1
EndSplineSet
Substitution2: "'init' Initial Forms in Arabic lookup 13 subtable" uniFB90
Substitution2: "'medi' Medial Forms in Arabic lookup 11 subtable" uniFB91
Substitution2: "'fina' Terminal Forms in Arabic lookup 9 subtable" uniFB8F
EndChar

StartChar: afii57509
Encoding: 1711 1711 79
Width: 1892
VWidth: 3742
GlyphClass: 2
Flags: W
AnchorPoint: "Anchor-10" 1018.82 1529.04 basechar 0
AnchorPoint: "Anchor-7" 702.531 -209.588 basechar 0
LayerCount: 2
Fore
SplineSet
1189.11816406 960.900390625 m 1
 1558 673 1558 673 1557.69335938 466.625976562 c 0
 1558 304 1558 304 1458.06933594 201.161132812 c 0
 1263 0 1263 0 820.345703125 0 c 0
 489 0 489 0 307.043945312 99.7861328125 c 0
 97 216 97 216 96.4306640625 449.08203125 c 0
 96 637 96 637 182 805 c 1
 292.756835938 769.514648438 l 1
 262 659 262 659 261.442382812 574.133789062 c 0
 261 502 261 502 298.154296875 446.359375 c 0
 401 291 401 291 827.231445312 290.80078125 c 4
 1222 291 1222 291 1382 390.958007812 c 0
 1406 406 1406 406 1406.203125 425 c 0
 1406 434 1406 434 1401 443.918945312 c 0
 1358 528 1358 528 928.860351562 849.9296875 c 1
 984.685546875 1125.36425781 l 1
 1785.05957031 1420.05175781 l 2
 1825.61568498 1434.85967822 1825.61568498 1434.85967822 1815.57324219 1370.73925781 c 2
 1784.11816406 1169.90039062 l 1
 1189.11816406 960.900390625 l 1
EndSplineSet
Refer: 270 -1 N 1.1342 0 0 1.1342 998.95 -653.254 2
Substitution2: "'init' Initial Forms in Arabic lookup 13 subtable" uniFB94
Substitution2: "'medi' Medial Forms in Arabic lookup 11 subtable" uniFB95
Substitution2: "'fina' Terminal Forms in Arabic lookup 9 subtable" uniFB93
EndChar

StartChar: afii57514
Encoding: 1722 1722 80
Width: 1395
VWidth: 3753
GlyphClass: 2
Flags: W
LayerCount: 2
Fore
SplineSet
998.916992188 476.786132812 m 1,0,-1
 1138.75976562 686.12890625 l 2,1,2
 1159 716 1159 716 1185.52734375 673.329101562 c 0,3,4
 1308 478 1308 478 1308.16992188 230.62109375 c 0,5,6
 1308 -118 1308 -118 1090.51660156 -280.879882812 c 0,7,8
 932 -399 932 -399 681.224609375 -398.930664062 c 0,9,10
 378 -399 378 -399 234.620117188 -244.232421875 c 0,11,12
 100 -98 100 -98 99.7548828125 113.904296875 c 0,13,14
 100 333 100 333 199.493164062 554.73046875 c 1,15,-1
 317.963867188 515.665039062 l 5,16,17
 266 345 266 345 265.974609375 221.575195312 c 4,18,19
 266 87 266 87 328.411132812 9.921875 c 4,20,21
 432 -118 432 -118 683.23828125 -118.09765625 c 0,22,23
 984 -118 984 -118 1099.60351562 62.1884765625 c 0,24,25
 1144 132 1144 132 1121.34863281 205.551757812 c 0,26,27
 1085 327 1085 327 998.916992188 476.786132812 c 1,0,-1
EndSplineSet
Substitution2: "'init' Initial Forms in Arabic lookup 13 subtable" uni06BA.init
Substitution2: "'medi' Medial Forms in Arabic lookup 11 subtable" uni06BA.medi
Substitution2: "'fina' Terminal Forms in Arabic lookup 9 subtable" uniFB9F
EndChar

StartChar: uni06F4
Encoding: 1780 1780 87
Width: 1190
VWidth: 3103
GlyphClass: 2
Flags: W
LayerCount: 2
Fore
SplineSet
381.059570312 1246 m 2,0,1
 434.605766029 1104.28978866 434.605766029 1104.28978866 516.193359375 1044.31738281 c 5,2,3
 509 1062 509 1062 509.444335938 1092.12792969 c 4,4,5
 510 1130 510 1130 522.663085938 1192.92578125 c 0,6,7
 540 1275 540 1275 603.729492188 1344.10449219 c 0,8,9
 686 1432 686 1432 818.958984375 1432.33203125 c 0,10,11
 981 1432 981 1432 1083.51269531 1306.18652344 c 1,12,-1
 1034.89453125 1193.47851562 l 5,13,14
 946 1228 946 1228 875.404296875 1227.92285156 c 4,15,16
 777 1228 777 1228 713.768554688 1160.81933594 c 4,17,18
 666 1110 666 1110 665.393554688 1034.9375 c 4,19,20
 665 998 665 998 713.595703125 972.952148438 c 4,21,22
 766 946 766 946 858.265625 946.440429688 c 4,23,24
 992 946 992 946 1090.74707031 990.53125 c 5,25,-1
 1109.99316406 805.061523438 l 5,26,27
 967 710 967 710 798 710.384765625 c 4,28,29
 619 710 619 710 492.033203125 792.421875 c 5,30,31
 543 459 543 459 529.481445312 73 c 0,32,33
 528 30 528 30 505.262695312 25.06640625 c 0,34,35
 419 6 419 6 369.086914062 -2.189453125 c 1,36,37
 369 716 369 716 124.797851562 1229.99023438 c 1,38,-1
 275.46875 1423.65722656 l 2,39,40
 302 1458 302 1458 317.094726562 1415.28320312 c 0,41,-1
 381.059570312 1246 l 2,0,1
EndSplineSet
PairPos2: "'kern' Horizontal Kerning lookup 15-5" uni06F8 dx=-70 dy=0 dh=-70 dv=0 dx=0 dy=0 dh=0 dv=0
PairPos2: "'kern' Horizontal Kerning lookup 15-5" uni06F5 dx=-70 dy=0 dh=-70 dv=0 dx=0 dy=0 dh=0 dv=0
EndChar

StartChar: uni06F5
Encoding: 1781 1781 88
Width: 1192
VWidth: 3183
GlyphClass: 2
Flags: W
LayerCount: 2
Fore
SplineSet
640.916015625 540.608398438 m 5,0,1
 708 260 708 260 854.654296875 261.751953125 c 4,2,3
 948 263 948 263 947.169921875 393 c 0,4,5
 946 616 946 616 567.9453125 1010.75585938 c 1,6,7
 252 551 252 551 253.078648609 383 c 0,8,9
 254 258 254 258 358.5 259.5 c 4,10,11
 488 261 488 261 556.400390625 542.147460938 c 5,12,-1
 640.916015625 540.608398438 l 5,0,1
345.862304688 9.302734375 m 0,13,14
 87 9 87 9 87.3686488235 348 c 0,15,16
 88 651 88 651 430.022460938 1170.40429688 c 1,17,-1
 387.796875 1218.53613281 l 1,18,-1
 503.440429688 1403 l 2,19,20
 517 1424 517 1424 539.5625 1401 c 0,21,22
 1107 814 1107 814 1106.77832031 379.869140625 c 0,23,24
 1106 9 1106 9 858.938476562 9.98046875 c 0,25,26
 690 11 690 11 604.299804688 173.98828125 c 5,27,28
 529 9 529 9 345.862304688 9.302734375 c 0,13,14
EndSplineSet
PairPos2: "'kern' Horizontal Kerning lookup 15-5" uni06F0 dx=-30 dy=0 dh=-30 dv=0 dx=0 dy=0 dh=0 dv=0
PairPos2: "'kern' Horizontal Kerning lookup 15-5" uni06F7 dx=-70 dy=0 dh=-70 dv=0 dx=0 dy=0 dh=0 dv=0
PairPos2: "'kern' Horizontal Kerning lookup 15-5" uni06F6 dx=-70 dy=0 dh=-70 dv=0 dx=0 dy=0 dh=0 dv=0
PairPos2: "'kern' Horizontal Kerning lookup 15-5" uni06F4 dx=-70 dy=0 dh=-70 dv=0 dx=0 dy=0 dh=0 dv=0
PairPos2: "'kern' Horizontal Kerning lookup 15-5" uni06F3 dx=-100 dy=0 dh=-100 dv=0 dx=0 dy=0 dh=0 dv=0
PairPos2: "'kern' Horizontal Kerning lookup 15-5" uni06F2 dx=-100 dy=0 dh=-100 dv=0 dx=0 dy=0 dh=0 dv=0
EndChar

StartChar: uni06F6
Encoding: 1782 1782 89
Width: 1041
VWidth: 3397
GlyphClass: 2
Flags: W
LayerCount: 2
Fore
SplineSet
428.129882812 641.431640625 m 2,0,1
 130.002597125 754.404108357 130.002597125 754.404108357 131.563476562 997.274414062 c 0,2,3
 132 1067 132 1067 166.8984375 1149.95996094 c 0,4,5
 285 1428 285 1428 533.752929688 1427.70703125 c 0,6,7
 692 1428 692 1428 813.348632812 1320.80273438 c 1,8,-1
 755.998046875 1154.28222656 l 1,9,10
 648 1183 648 1183 568.663085938 1183.19238281 c 0,11,12
 411 1183 411 1183 339.301757812 1092.46386719 c 0,13,14
 293 1034 293 1034 292.80859375 997.93359375 c 0,15,16
 293 971 293 971 308.265625 949.266601562 c 0,17,18
 369.874603054 859.183352568 369.874603054 859.183352568 648.35546875 858.127929688 c 2,19,-1
 651.962890625 858.114257812 l 1,20,21
 745 913 745 913 919.327148438 996.310546875 c 0,22,23
 927 1000 927 1000 933.643554688 1000.02832031 c 0,24,25
 954 1000 954 1000 952.296875 965.772460938 c 0,26,27
 952 960 952 960 951.84765625 954.315429688 c 2,28,-1
 936.546875 735.15234375 l 1,29,30
 624 601 624 601 243.245117188 -28.6826171875 c 1,31,-1
 143.732421875 73.6376953125 l 2,32,33
 131 87 131 87 130.649414062 103.57421875 c 0,34,35
 131 120 131 120 142.877929688 144.265625 c 0,36,37
 262 382 262 382 436.958984375 638.0859375 c 1,38,-1
 428.129882812 641.431640625 l 2,0,1
EndSplineSet
EndChar

StartChar: uniFB8F
Encoding: 64399 64399 104
Width: 2115
VWidth: 3732
GlyphClass: 2
Flags: W
AnchorPoint: "Anchor-7" 769.998 -222.921 basechar 0
AnchorPoint: "Anchor-10" 1008.28 1393.71 basechar 0
LayerCount: 2
Fore
SplineSet
1433.71191406 418.583984375 m 16,0,1
 1433 508 1433 508 927.736328125 909.01171875 c 1,2,-1
 983.560546875 1184.46386719 l 1,3,-1
 1783.93457031 1479.15136719 l 2,4,5
 1824.46686967 1493.80722821 1824.46686967 1493.80722821 1814.44824219 1429.83886719 c 2,6,-1
 1782.99316406 1229 l 1,7,-1
 1187.99316406 1020 l 1,8,9
 1350 878 1350 878 1660.15722656 521.309570312 c 0,10,11
 1856.77082297 294.264648438 1856.77082297 294.264648438 2102.55273438 294.264648438 c 6,12,-1
 2115.99316406 294.264648438 l 6,13,14
 2141.00097656 293.999989665 2141.00097656 293.999989665 2141.00097656 197 c 2,15,-1
 2141.00097656 124 l 2,16,17
 2141 0 2141 0 2115.99316406 0 c 2,18,-1
 2102.984375 0 l 2,19,20
 1798 0 1798 0 1570.72167969 310.668945312 c 1,21,22
 1559 257 1559 257 1509.63769531 205.978515625 c 0,23,24
 1310 0 1310 0 820.345703125 0 c 0,25,26
 489 0 489 0 307.043945312 99.7861328125 c 0,27,28
 97 216 97 216 96.4306640625 449.08203125 c 0,29,30
 96 637 96 637 182 805 c 1,31,-1
 292.756835938 769.514648438 l 1,32,33
 262 659 262 659 261.442382812 574.133789062 c 0,34,35
 261 502 261 502 298.154296875 446.359375 c 0,36,37
 401 291 401 291 837.231445312 290.80078125 c 0,38,39
 1239 291 1239 291 1410 383.188476562 c 0,40,41
 1434 396 1434 396 1433.71191406 418.583984375 c 16,0,1
EndSplineSet
EndChar

StartChar: uniFB93
Encoding: 64403 64403 108
Width: 2036
VWidth: 3742
GlyphClass: 2
Flags: W
AnchorPoint: "Anchor-7" 764.531 -199.588 basechar 0
AnchorPoint: "Anchor-10" 982.82 1583.04 basechar 0
LayerCount: 2
Fore
SplineSet
1189.11816406 960.900390625 m 1
 1349 815 1349 815 1625.32910156 548.795898438 c 0
 1887.72717205 294.264648438 1887.72717205 294.264648438 2027.82617188 294.264648438 c 6
 2040 294.264648438 l 6
 2065.0078125 293.999917297 2065.0078125 293.999917297 2065.0078125 197 c 2
 2065.0078125 124 l 2
 2065 0 2065 0 2040 0 c 2
 2028.25878906 0 l 2
 1776 0 1776 0 1538.52929688 314.931640625 c 1
 1498 206 1498 206 1348 114.921875 c 0
 1159 0 1159 0 820.345703125 0 c 0
 489 0 489 0 307.043945312 99.7861328125 c 0
 97 216 97 216 96.4306640625 449.08203125 c 0
 96 637 96 637 182 805 c 1
 292.756835938 769.514648438 l 1
 262 659 262 659 261.442382812 574.133789062 c 0
 261 502 261 502 298.154296875 446.359375 c 0
 401 291 401 291 827.231445312 290.80078125 c 0
 1222 291 1222 291 1382 390.958007812 c 0
 1406 406 1406 406 1406.203125 425 c 0
 1406 434 1406 434 1401 443.918945312 c 0
 1358 528 1358 528 928.860351562 849.9296875 c 1
 984.685546875 1125.36425781 l 1
 1785.05957031 1420.05175781 l 2
 1825.61568498 1434.85967822 1825.61568498 1434.85967822 1815.57324219 1370.73925781 c 2
 1784.11816406 1169.90039062 l 1
 1189.11816406 960.900390625 l 1
EndSplineSet
Refer: 270 -1 N 1.1342 0 0 1.1342 998.95 -653.254 2
EndChar

StartChar: uniFB94
Encoding: 64404 64404 109
Width: 974
VWidth: 3742
GlyphClass: 2
Flags: W
AnchorPoint: "Anchor-10" 214.998 1584.84 basechar 0
AnchorPoint: "Anchor-7" 334.15 -245.139 basechar 0
LayerCount: 2
Fore
SplineSet
511 443.918945312 m 0
 474 521 474 521 28.8603515625 849.9296875 c 1
 84.685546875 1125.36425781 l 1
 885.059570312 1420.05175781 l 2
 925.615684975 1434.85967822 925.615684975 1434.85967822 915.573242188 1370.73925781 c 2
 884.118164062 1169.90039062 l 1
 289.118164062 960.900390625 l 1
 666 666 666 666 666 444 c 0
 666 267 666 267 548 145 c 0
 408 0 408 0 99.2197265625 0 c 2
 -4.9921875 0 l 2
 -60 0 -60 0 -60 144 c 2
 -60 177 l 2
 -60 294.265182034 -60 294.265182034 -4.9921875 294.264648438 c 2
 95.6806640625 294.263671875 l 2
 469 294 469 294 508.64453125 386 c 4
 516.451728263 404.490841579 516.451728263 404.490841579 516.463743153 420 c 0
 516.473820619 433.008277309 516.473820619 433.008277309 511 443.918945312 c 0
EndSplineSet
Refer: 270 -1 N 1.1342 0 0 1.1342 105.231 -653.254 2
EndChar

StartChar: uniFB95
Encoding: 64405 64405 110
Width: 1135
VWidth: 3742
GlyphClass: 2
Flags: W
AnchorPoint: "Anchor-10" 244.55 1664.33 basechar 0
AnchorPoint: "Anchor-7" 367.424 -218.488 basechar 0
LayerCount: 2
Fore
SplineSet
28.8603515625 849.9296875 m 5
 84.685546875 1125.36425781 l 5
 885.059570312 1420.05175781 l 6
 925.615684976 1434.85967822 925.615684976 1434.85967822 915.573242188 1370.73925781 c 6
 884.118164062 1169.90039062 l 5
 289.118164062 960.900390625 l 5
 388 871 388 871 725.329101562 548.795898438 c 0
 990.724056044 294.264648438 990.724056044 294.264648438 1127.82617188 294.264648438 c 2
 1140 294.264648438 l 2
 1165.0078125 293.999917297 1165.0078125 293.999917297 1165.0078125 197 c 2
 1165.0078125 124 l 2
 1165 0 1165 0 1140 0 c 2
 1128.25878906 0 l 2
 866 0 866 0 628.529296875 314.931640625 c 1
 624 237 624 237 538 145 c 0
 402 0 402 0 99.2197265625 0 c 2
 -4.9921875 0 l 2
 -60 0 -60 0 -60 144 c 2
 -60 177 l 2
 -60 294.265182034 -60 294.265182034 -4.9921875 294.264648438 c 2
 95.6806640625 294.263671875 l 2
 460 294 460 294 498.64453125 386 c 0
 513 420 513 420 501 443.918945312 c 0
 458 528 458 528 28.8603515625 849.9296875 c 5
EndSplineSet
Refer: 270 -1 N 1.1342 0 0 1.1342 105.231 -653.254 2
EndChar

StartChar: uniFB9F
Encoding: 64415 64415 112
Width: 1453
VWidth: 3752
GlyphClass: 2
Flags: W
AnchorPoint: "Anchor-10" 575.322 1014.17 basechar 0
AnchorPoint: "Anchor-7" 450.537 -999.98 basechar 0
LayerCount: 2
Fore
SplineSet
1099.61328125 -74.3388671875 m 0,0,1
 1144 -6 1144 -6 1121.35839844 69.0244140625 c 0,2,3
 1085 190 1085 190 998.926757812 340.258789062 c 1,4,-1
 1137.91113281 548.529296875 l 2,5,6
 1157.11044733 578.170516168 1157.11044733 578.170516168 1178.14648438 537.86328125 c 2,7,-1
 1198.54003906 498.787109375 l 2,8,9
 1261 378 1261 378 1303.99121094 333.197265625 c 0,10,11
 1340.75012751 294.264648438 1340.75012751 294.264648438 1425.49414062 294.264648438 c 2,12,-1
 1458 294.264648438 l 2,13,14
 1483.0078125 293.999917297 1483.0078125 293.999917297 1483.0078125 197 c 2,15,-1
 1483.0078125 124 l 2,16,17
 1483 0 1483 0 1458 0 c 2,18,-1
 1425.265625 0 l 2,19,20
 1356 0 1356 0 1301.94921875 46.9755859375 c 1,21,22
 1291 -269 1291 -269 1090.52734375 -417.408203125 c 0,23,24
 931 -535 931 -535 679.056842518 -535.459893493 c 4,25,26
 378 -535 378 -535 234.629882812 -380.759765625 c 4,27,28
 100 -235 100 -235 99.7646484375 -22.623046875 c 4,29,30
 100 197 100 197 199.502929688 418.203125 c 5,31,-1
 317.973632812 379.137695312 l 5,32,33
 266 208 266 208 265.984375 85.0478515625 c 4,34,35
 266 -50 266 -50 328.420898438 -126.60546875 c 4,36,37
 432 -255 432 -255 678.890625 -254.623046875 c 4,38,39
 983 -255 983 -255 1099.61328125 -74.3388671875 c 0,0,1
EndSplineSet
EndChar

StartChar: uniFBE8
Encoding: 64488 64488 115
Width: 626
VWidth: 3752
GlyphClass: 2
Flags: W
AnchorPoint: "Anchor-10" 323.261 1251.2 basechar 0
AnchorPoint: "Anchor-7" 350.876 -249.875 basechar 0
LayerCount: 2
Fore
SplineSet
354.095703125 372.633789062 m 0,0,1
 354 455 354 455 271 649 c 5,2,-1
 406.908203125 824.598632812 l 6,3,4
 430 855 430 855 437.147460938 854.885742188 c 4,5,6
 444 855 444 855 461.532226562 824.598632812 c 4,7,8
 549 674 549 674 549.9296875 471.596679688 c 4,9,10
 550 272 550 272 459 156.5 c 0,11,12
 338 0 338 0 94.748046875 0 c 2,13,-1
 -4.9921875 0 l 2,14,15
 -60 0 -60 0 -60 144 c 2,16,-1
 -60 177 l 2,17,18
 -60 294.265165384 -60 294.265165384 -4.9921875 294.264648438 c 2,19,-1
 98.9228515625 294.263671875 l 2,20,21
 316 294 316 294 346.576171875 339.122070312 c 0,22,23
 354 350 354 350 354.095703125 372.633789062 c 0,0,1
EndSplineSet
EndChar

StartChar: uniFBE9
Encoding: 64489 64489 116
Width: 728
VWidth: 3731
GlyphClass: 2
Flags: W
AnchorPoint: "Anchor-10" 376.951 1169.04 basechar 0
AnchorPoint: "Anchor-7" 351.317 -208.84 basechar 0
LayerCount: 2
Fore
SplineSet
733 0 m 6,0,-1
 712.389648438 0 l 6,1,2
 513 0 513 0 412.943359375 158.827148438 c 5,3,4
 309 0 309 0 88.5009765625 0 c 6,5,-1
 -4.9921875 0 l 6,6,7
 -60 0 -60 0 -60 144 c 6,8,-1
 -60 177 l 6,9,10
 -60 294.264648438 -60 294.264648438 -4.9921875 294.264648438 c 6,11,-1
 83.849609375 294.264648438 l 6,12,13
 330.450715847 293.999515413 330.450715847 293.999515413 343.16796875 442.487304688 c 6,14,-1
 357.883789062 614.310546875 l 5,15,-1
 491.211914062 614.374023438 l 5,16,-1
 506.724609375 445.174804688 l 6,17,18
 520.975009329 294.264648438 520.975009329 294.264648438 712.548828125 294.264648438 c 6,19,-1
 733 294.264648438 l 6,20,21
 758.0078125 293.999917297 758.0078125 293.999917297 758.0078125 197 c 6,22,-1
 758.0078125 124 l 6,23,24
 758 0 758 0 733 0 c 6,0,-1
EndSplineSet
EndChar

StartChar: uniFE73
Encoding: 65139 65139 124
Width: 895
VWidth: 3443
GlyphClass: 2
Flags: W
AnchorPoint: "Anchor-10" 331.315 2023.42 basechar 0
AnchorPoint: "Anchor-7" 331.315 -162.932 basechar 0
LayerCount: 2
Fore
SplineSet
460.806640625 563.60546875 m 2,0,1
 460.806640625 550.740234375 460.806640625 550.740234375 462.133789062 538.1640625 c 128,-1,2
 463.4609375 525.588867188 463.4609375 525.588867188 466.116210938 513.32421875 c 0,3,4
 471.424804688 488.806640625 471.424804688 488.806640625 482.107421875 465.235351562 c 0,5,6
 503.55859375 417.905273438 503.55859375 417.905273438 546.400390625 375.064453125 c 0,7,8
 589.458007812 332.005859375 589.458007812 332.005859375 655.2265625 310.737304688 c 128,-1,9
 720.993164062 289.46875 720.993164062 289.46875 808.9453125 289.46875 c 2,10,-1
 909.849609375 289.46875 l 1,11,-1
 909.849609375 30.4833984375 l 1,12,-1
 716.446289062 30.4833984375 l 2,13,14
 488.0859375 30.4833984375 488.0859375 30.4833984375 344.952148438 173.616210938 c 128,-1,15
 201.822265625 316.748046875 201.822265625 316.748046875 201.822265625 543.426757812 c 2,16,-1
 201.822265625 590.508789062 l 1,17,-1
 460.806640625 590.508789062 l 1,18,-1
 460.806640625 563.60546875 l 2,0,1
EndSplineSet
EndChar

StartChar: uniFE8E
Encoding: 65166 65166 150
Width: 541
VWidth: 3713
GlyphClass: 2
Flags: W
AnchorPoint: "Anchor-10" 199.829 1549.84 basechar 0
AnchorPoint: "Anchor-7" 281.406 -219.797 basechar 0
LayerCount: 2
Fore
SplineSet
546 0 m 6,0,-1
 503.87109375 0 l 6,1,2
 225 0 225 0 161.364257812 236.998046875 c 0,3,4
 136.867443498 327.489665812 136.867443498 327.489665812 134.875976562 541.935546875 c 2,5,-1
 133.590820312 680.32421875 l 2,6,7
 130 1120 130 1120 80.19921875 1305.12402344 c 1,8,-1
 257.864257812 1426.52050781 l 2,9,10
 296 1453 296 1453 306 1447 c 0,11,12
 314 1442 314 1442 316 1392 c 0,13,14
 323.315070462 1221.01022795 323.315070462 1221.01022795 327.20703125 903.107421875 c 2,15,-1
 330.452148438 638.040039062 l 2,16,17
 333 418 333 418 364.31640625 366.045898438 c 0,18,19
 408.835862367 294.264648438 408.835862367 294.264648438 519.482421875 294.264648438 c 6,20,-1
 546 294.264648438 l 6,21,22
 571.0078125 293.999917297 571.0078125 293.999917297 571.0078125 197 c 6,23,-1
 571.0078125 124 l 6,24,25
 571 0 571 0 546 0 c 6,0,-1
EndSplineSet
EndChar

StartChar: uniFEA2
Encoding: 65186 65186 170
Width: 1319
VWidth: 3747
GlyphClass: 2
Flags: W
AnchorPoint: "Anchor-10" 632.639 1130.69 basechar 0
AnchorPoint: "Anchor-7" 617.069 -848.974 basechar 0
LayerCount: 2
Fore
SplineSet
117.255859375 -155.077148438 m 4,0,1
 118 345 118 345 698.928710938 549.729492188 c 1,2,3
 695 550 695 550 600.262695312 571.595703125 c 0,4,5
 451 606 451 606 380.891601562 606.16796875 c 0,6,7
 283 606 283 606 182.727539062 487.0390625 c 1,8,-1
 77 542 l 1,9,-1
 83.650390625 561 l 2,10,11
 190 865 190 865 388.663085938 865.099609375 c 0,12,13
 485 865 485 865 975.850585938 717.891601562 c 0,14,15
 1069 690 1069 690 1213.22851562 687.337890625 c 0,16,17
 1231.48036655 686.990866753 1231.48036655 686.990866753 1225.59863281 671.329101562 c 2,18,-1
 1129.859375 416.396484375 l 1,19,20
 1052 406 1052 406 979 392.159179688 c 1,21,-1
 979.893554688 382.061523438 l 2,22,23
 987.975637963 294.264648438 987.975637963 294.264648438 1294.56054688 294.264648438 c 2,24,-1
 1324 294.264648438 l 2,25,26
 1349.0078125 293.999917297 1349.0078125 293.999917297 1349.0078125 197 c 2,27,-1
 1349.0078125 124 l 2,28,29
 1349 0 1349 0 1324 0 c 2,30,-1
 1243.58007812 0 l 2,31,32
 870 0 870 0 839 360.170898438 c 1,33,34
 670 315 670 315 555.493164062 247 c 0,35,36
 273 81 273 81 272.967773438 -133.244140625 c 4,37,38
 273 -438 273 -438 724.9453125 -437.999023438 c 4,39,40
 910 -438 910 -438 1031.21582031 -422.524414062 c 4,41,42
 1117 -412 1117 -412 1154 -407.16796875 c 4,43,44
 1212.09338977 -399.988458363 1212.09338977 -399.988458363 1184.55078125 -450 c 6,45,-1
 1108 -589 l 6,46,47
 1058 -679 1058 -679 952 -690.094726562 c 4,48,49
 868 -699 868 -699 729.87109375 -699.381835938 c 4,50,51
 415 -699 415 -699 257.336914062 -551.037109375 c 4,52,53
 117 -419 117 -419 117.255859375 -155.077148438 c 4,0,1
EndSplineSet
EndChar

StartChar: uniFEA3
Encoding: 65187 65187 171
Width: 1300
VWidth: 3753
GlyphClass: 2
Flags: W
AnchorPoint: "Anchor-10" 538.742 1236.34 basechar 0
AnchorPoint: "Anchor-7" 551.367 -217.229 basechar 0
LayerCount: 2
Fore
SplineSet
-4.9921875 0 m 6,0,1
 -60 0 -60 0 -60 144 c 6,2,-1
 -60 177 l 6,3,4
 -60 294.264648438 -60 294.264648438 -4.9921875 294.264648438 c 6,5,-1
 195.759765625 294.264648438 l 6,6,7
 379.960720274 294.001484795 379.960720274 294.001484795 580.795898438 377.064453125 c 6,8,-1
 830.043945312 480.150390625 l 5,9,10
 733 509 733 509 619.870117188 550.841796875 c 4,11,12
 476 604 476 604 416.8984375 603.755859375 c 4,13,14
 292 604 292 604 181 470 c 5,15,-1
 74.7880859375 524.721679688 l 5,16,-1
 83.6904296875 547.771484375 l 6,17,18
 204.406499867 861.054952235 204.406499867 861.054952235 429.73046875 872.857421875 c 0,19,20
 538 879 538 879 741.712890625 784.32421875 c 4,21,22
 1056 638 1056 638 1180.16601562 628.251953125 c 4,23,24
 1207 626 1207 626 1252.52441406 626.206054688 c 4,25,26
 1268.85552787 626.001806865 1268.85552787 626.001806865 1263.07421875 607.0625 c 6,27,-1
 1200.19238281 401.064453125 l 5,28,29
 1019 357 1019 357 706 197.6796875 c 4,30,31
 317 0 317 0 152.451171875 0 c 6,32,-1
 -4.9921875 0 l 6,0,1
EndSplineSet
EndChar

StartChar: uniFEA4
Encoding: 65188 65188 172
Width: 1327
VWidth: 3753
GlyphClass: 2
Flags: W
AnchorPoint: "Anchor-10" 538.742 1236.34 basechar 0
AnchorPoint: "Anchor-7" 535.822 -213.864 basechar 0
LayerCount: 2
Fore
SplineSet
1180.16601562 628.251953125 m 0,0,1
 1205 626 1205 626 1252.52441406 626.206054688 c 0,2,3
 1269.0386849 625.999516181 1269.0386849 625.999516181 1263.07421875 607.0625 c 2,4,-1
 1198.19238281 401.064453125 l 1,5,6
 1065 384 1065 384 989 346.807617188 c 1,7,8
 1032.77949145 294.264648438 1032.77949145 294.264648438 1149.57128906 294.264648438 c 2,9,-1
 1332 294.264648438 l 2,10,11
 1357.0078125 293.999917297 1357.0078125 293.999917297 1357.0078125 197 c 2,12,-1
 1357.0078125 124 l 2,13,14
 1357 0 1357 0 1332 0 c 2,15,-1
 1176.93945312 0 l 2,16,17
 875 0 875 0 826 272.213867188 c 1,18,19
 574 142 574 142 569.659179688 139.504882812 c 4,20,21
 312 0 312 0 72.451171875 0 c 2,22,-1
 -4.9921875 0 l 2,23,24
 -60 0 -60 0 -60 144 c 2,25,-1
 -60 177 l 2,26,27
 -60 294.264648438 -60 294.264648438 -4.9921875 294.264648438 c 2,28,-1
 95.759765625 294.264648438 l 2,29,30
 379.959464491 294.000965418 379.959464491 294.000965418 580.795898438 377.064453125 c 2,31,-1
 830.043945312 480.150390625 l 1,32,33
 733 509 733 509 619.870117188 550.841796875 c 0,34,35
 476 604 476 604 416.8984375 603.755859375 c 0,36,37
 292 604 292 604 181 470 c 1,38,-1
 74.7880859375 524.721679688 l 1,39,-1
 83.6904296875 547.771484375 l 2,40,41
 204.406499867 861.054952235 204.406499867 861.054952235 429.73046875 872.857421875 c 0,42,43
 538 879 538 879 741.712890625 784.32421875 c 0,44,45
 1051 640 1051 640 1180.16601562 628.251953125 c 0,0,1
EndSplineSet
EndChar

StartChar: uniFEAA
Encoding: 65194 65194 178
Width: 1122
VWidth: 3745
GlyphClass: 2
Flags: W
AnchorPoint: "Anchor-10" 643.988 1353.41 basechar 0
AnchorPoint: "Anchor-7" 466.785 -253.689 basechar 0
LayerCount: 2
Fore
SplineSet
696 431 m 2,0,-1
 562 879 l 1,1,-1
 688 1024 l 2,2,3
 724 1066 724 1066 732 1062 c 4,4,5
 740.589147287 1057.70542636 740.589147287 1057.70542636 755 1005 c 2,6,-1
 898 482 l 2,7,8
 948.928207073 294.264648438 948.928207073 294.264648438 1105.69726562 294.264648438 c 2,9,-1
 1127 294.264648438 l 2,10,11
 1152.0078125 293.999917297 1152.0078125 293.999917297 1152.0078125 197 c 2,12,-1
 1152.0078125 124 l 2,13,14
 1152 0 1152 0 1127 0 c 2,15,-1
 1095.92675781 0 l 2,16,17
 872 0 872 0 806.359375 203.583984375 c 1,18,19
 667 0 667 0 415.060546875 -0.2041015625 c 0,20,21
 89 0 89 0 87.26171875 299.416015625 c 0,22,23
 87 345 87 345 109.764648438 439.969726562 c 1,24,-1
 233.926757812 427.481445312 l 1,25,-1
 235.02734375 398.547851562 l 2,26,27
 239 297 239 297 432.375 296.626953125 c 0,28,29
 736 297 736 297 696 431 c 2,0,-1
EndSplineSet
PairPos2: "'kern' Horizontal Kerning lookup 15-7" uniFB90 dx=-120 dy=0 dh=-120 dv=0 dx=0 dy=0 dh=0 dv=0
PairPos2: "'kern' Horizontal Kerning lookup 15-7" uni06A9 dx=-120 dy=0 dh=-120 dv=0 dx=0 dy=0 dh=0 dv=0
PairPos2: "'kern' Horizontal Kerning lookup 15-7" uniFB94 dx=-120 dy=0 dh=-120 dv=0 dx=0 dy=0 dh=0 dv=0
PairPos2: "'kern' Horizontal Kerning lookup 15-7" afii57509 dx=-120 dy=0 dh=-120 dv=0 dx=0 dy=0 dh=0 dv=0
EndChar

StartChar: uniFEAE
Encoding: 65198 65198 182
Width: 854
VWidth: 3752
GlyphClass: 2
Flags: MW
AnchorPoint: "Anchor-7" 351.78 -681.673 basechar 0
AnchorPoint: "Anchor-10" 424.712 959.48 basechar 0
LayerCount: 2
Fore
SplineSet
324 -506 m 0,0,1
 262 -538 262 -538 218 -542 c 0,2,3
 172 -546 172 -546 85 -492.140625 c 0,4,5
 -25 -424 -25 -424 -29.5107421875 -392.048828125 c 0,6,7
 -31 -382 -31 -382 46.7890625 -352.438476562 c 0,8,9
 458 -196 458 -196 514.036132812 20 c 0,10,11
 522 51 522 51 519.51171875 73 c 24,12,13
 507 180 507 180 372 346 c 1,14,-1
 533.434570312 571 l 2,15,16
 542 583 542 583 550.248046875 569 c 0,17,18
 578 523 578 523 698 352 c 0,19,20
 738.812920932 294.264648438 738.812920932 294.264648438 822.493164062 294.264648438 c 6,21,-1
 849 294.264648438 l 6,22,23
 874.0078125 293.999917297 874.0078125 293.999917297 874.0078125 177 c 6,24,-1
 874.0078125 124 l 6,25,26
 874 0 874 0 849 0 c 6,27,-1
 817.270507812 0 l 6,28,29
 750 0 750 0 697 39 c 1,30,31
 675 -89 675 -89 628 -187 c 0,32,33
 526 -403 526 -403 324 -506 c 0,0,1
EndSplineSet
PairPos2: "'kern' Horizontal Kerning lookup 15-1" uniFEF3 dx=20 dy=0 dh=20 dv=0 dx=0 dy=0 dh=0 dv=0
PairPos2: "'kern' Horizontal Kerning lookup 15-1" uniFB58 dx=20 dy=0 dh=20 dv=0 dx=0 dy=0 dh=0 dv=0
PairPos2: "'kern' Horizontal Kerning lookup 15-1" uniFBFE dx=20 dy=0 dh=20 dv=0 dx=0 dy=0 dh=0 dv=0
PairPos2: "'kern' Horizontal Kerning lookup 15-4" uni0621 dx=-196 dy=0 dh=-196 dv=0 dx=0 dy=0 dh=0 dv=0
PairPos2: "'kern' Horizontal Kerning lookup 15-3" uni0648 dx=-43 dy=0 dh=-43 dv=0 dx=0 dy=0 dh=0 dv=0
PairPos2: "'kern' Horizontal Kerning lookup 15-1" uni0644 dx=-43 dy=0 dh=-43 dv=0 dx=0 dy=0 dh=0 dv=0
PairPos2: "'kern' Horizontal Kerning lookup 15-1" uni0642 dx=-43 dy=0 dh=-43 dv=0 dx=0 dy=0 dh=0 dv=0
PairPos2: "'kern' Horizontal Kerning lookup 15-1" uni0632 dx=-43 dy=0 dh=-43 dv=0 dx=0 dy=0 dh=0 dv=0
PairPos2: "'kern' Horizontal Kerning lookup 15-1" uni0631 dx=-43 dy=0 dh=-43 dv=0 dx=0 dy=0 dh=0 dv=0
PairPos2: "'kern' Horizontal Kerning lookup 15-1" uniFB8A dx=-43 dy=0 dh=-43 dv=0 dx=0 dy=0 dh=0 dv=0
PairPos2: "'kern' Horizontal Kerning lookup 15-1" afii57508 dx=-43 dy=0 dh=-43 dv=0 dx=0 dy=0 dh=0 dv=0
PairPos2: "'kern' Horizontal Kerning lookup 15-1" uniFB7C dx=-128 dy=0 dh=-128 dv=0 dx=0 dy=0 dh=0 dv=0
PairPos2: "'kern' Horizontal Kerning lookup 15-1" uni06CC dx=-43 dy=0 dh=-43 dv=0 dx=0 dy=0 dh=0 dv=0
PairPos2: "'kern' Horizontal Kerning lookup 15-1" uniFEEB dx=-128 dy=0 dh=-128 dv=0 dx=0 dy=0 dh=0 dv=0
PairPos2: "'kern' Horizontal Kerning lookup 15-1" uniFEDF dx=-128 dy=0 dh=-128 dv=0 dx=0 dy=0 dh=0 dv=0
PairPos2: "'kern' Horizontal Kerning lookup 15-1" uniFB90 dx=-213 dy=0 dh=-213 dv=0 dx=0 dy=0 dh=0 dv=0
PairPos2: "'kern' Horizontal Kerning lookup 15-1" uni06A9 dx=-213 dy=0 dh=-213 dv=0 dx=0 dy=0 dh=0 dv=0
PairPos2: "'kern' Horizontal Kerning lookup 15-1" uni0649 dx=-43 dy=0 dh=-43 dv=0 dx=0 dy=0 dh=0 dv=0
PairPos2: "'kern' Horizontal Kerning lookup 15-1" uni0647 dx=-128 dy=0 dh=-128 dv=0 dx=0 dy=0 dh=0 dv=0
PairPos2: "'kern' Horizontal Kerning lookup 15-1" uniFEE7 dx=-128 dy=0 dh=-128 dv=0 dx=0 dy=0 dh=0 dv=0
PairPos2: "'kern' Horizontal Kerning lookup 15-1" uniFEE3 dx=-128 dy=0 dh=-128 dv=0 dx=0 dy=0 dh=0 dv=0
PairPos2: "'kern' Horizontal Kerning lookup 15-1" uni0645 dx=-128 dy=0 dh=-128 dv=0 dx=0 dy=0 dh=0 dv=0
PairPos2: "'kern' Horizontal Kerning lookup 15-1" uniFEDB dx=-213 dy=0 dh=-213 dv=0 dx=0 dy=0 dh=0 dv=0
PairPos2: "'kern' Horizontal Kerning lookup 15-1" uniFED7 dx=-128 dy=0 dh=-128 dv=0 dx=0 dy=0 dh=0 dv=0
PairPos2: "'kern' Horizontal Kerning lookup 15-1" uniFED3 dx=-128 dy=0 dh=-128 dv=0 dx=0 dy=0 dh=0 dv=0
PairPos2: "'kern' Horizontal Kerning lookup 15-1" uni0641 dx=-128 dy=0 dh=-128 dv=0 dx=0 dy=0 dh=0 dv=0
PairPos2: "'kern' Horizontal Kerning lookup 15-1" uniFECF dx=-128 dy=0 dh=-128 dv=0 dx=0 dy=0 dh=0 dv=0
PairPos2: "'kern' Horizontal Kerning lookup 15-1" uniFECB dx=-128 dy=0 dh=-128 dv=0 dx=0 dy=0 dh=0 dv=0
PairPos2: "'kern' Horizontal Kerning lookup 15-1" uniFEC7 dx=-128 dy=0 dh=-128 dv=0 dx=0 dy=0 dh=0 dv=0
PairPos2: "'kern' Horizontal Kerning lookup 15-1" uni0638 dx=-128 dy=0 dh=-128 dv=0 dx=0 dy=0 dh=0 dv=0
PairPos2: "'kern' Horizontal Kerning lookup 15-1" uniFEC3 dx=-128 dy=0 dh=-128 dv=0 dx=0 dy=0 dh=0 dv=0
PairPos2: "'kern' Horizontal Kerning lookup 15-1" uni0637 dx=-128 dy=0 dh=-128 dv=0 dx=0 dy=0 dh=0 dv=0
PairPos2: "'kern' Horizontal Kerning lookup 15-1" uniFEBF dx=-128 dy=0 dh=-128 dv=0 dx=0 dy=0 dh=0 dv=0
PairPos2: "'kern' Horizontal Kerning lookup 15-1" uni0636 dx=-128 dy=0 dh=-128 dv=0 dx=0 dy=0 dh=0 dv=0
PairPos2: "'kern' Horizontal Kerning lookup 15-1" uniFEBB dx=-128 dy=0 dh=-128 dv=0 dx=0 dy=0 dh=0 dv=0
PairPos2: "'kern' Horizontal Kerning lookup 15-1" uni0635 dx=-128 dy=0 dh=-128 dv=0 dx=0 dy=0 dh=0 dv=0
PairPos2: "'kern' Horizontal Kerning lookup 15-1" uniFEB7 dx=-128 dy=0 dh=-128 dv=0 dx=0 dy=0 dh=0 dv=0
PairPos2: "'kern' Horizontal Kerning lookup 15-1" uni0634 dx=-128 dy=0 dh=-128 dv=0 dx=0 dy=0 dh=0 dv=0
PairPos2: "'kern' Horizontal Kerning lookup 15-1" uniFEB3 dx=-128 dy=0 dh=-128 dv=0 dx=0 dy=0 dh=0 dv=0
PairPos2: "'kern' Horizontal Kerning lookup 15-1" uni0633 dx=-128 dy=0 dh=-128 dv=0 dx=0 dy=0 dh=0 dv=0
PairPos2: "'kern' Horizontal Kerning lookup 15-1" uni0630 dx=-128 dy=0 dh=-128 dv=0 dx=0 dy=0 dh=0 dv=0
PairPos2: "'kern' Horizontal Kerning lookup 15-1" uni062F dx=-128 dy=0 dh=-128 dv=0 dx=0 dy=0 dh=0 dv=0
PairPos2: "'kern' Horizontal Kerning lookup 15-1" uniFEA7 dx=-128 dy=0 dh=-128 dv=0 dx=0 dy=0 dh=0 dv=0
PairPos2: "'kern' Horizontal Kerning lookup 15-1" uniFEA3 dx=-128 dy=0 dh=-128 dv=0 dx=0 dy=0 dh=0 dv=0
PairPos2: "'kern' Horizontal Kerning lookup 15-1" uniFE9F dx=-128 dy=0 dh=-128 dv=0 dx=0 dy=0 dh=0 dv=0
PairPos2: "'kern' Horizontal Kerning lookup 15-1" uniFE9B dx=-128 dy=0 dh=-128 dv=0 dx=0 dy=0 dh=0 dv=0
PairPos2: "'kern' Horizontal Kerning lookup 15-1" uni062B dx=-128 dy=0 dh=-128 dv=0 dx=0 dy=0 dh=0 dv=0
PairPos2: "'kern' Horizontal Kerning lookup 15-1" uniFE97 dx=-128 dy=0 dh=-128 dv=0 dx=0 dy=0 dh=0 dv=0
PairPos2: "'kern' Horizontal Kerning lookup 15-1" uni062A dx=-128 dy=0 dh=-128 dv=0 dx=0 dy=0 dh=0 dv=0
PairPos2: "'kern' Horizontal Kerning lookup 15-1" uni0629 dx=-128 dy=0 dh=-128 dv=0 dx=0 dy=0 dh=0 dv=0
PairPos2: "'kern' Horizontal Kerning lookup 15-1" uni0628 dx=-128 dy=0 dh=-128 dv=0 dx=0 dy=0 dh=0 dv=0
PairPos2: "'kern' Horizontal Kerning lookup 15-1" uni0627 dx=-150 dy=0 dh=-150 dv=0 dx=0 dy=0 dh=0 dv=0
PairPos2: "'kern' Horizontal Kerning lookup 15-1" uni0622 dx=-150 dy=0 dh=-150 dv=0 dx=0 dy=0 dh=0 dv=0
PairPos2: "'kern' Horizontal Kerning lookup 15-1" uniFB94 dx=-235 dy=0 dh=-235 dv=0 dx=0 dy=0 dh=0 dv=0
PairPos2: "'kern' Horizontal Kerning lookup 15-1" afii57509 dx=-235 dy=0 dh=-235 dv=0 dx=0 dy=0 dh=0 dv=0
PairPos2: "'kern' Horizontal Kerning lookup 15-1" uniFB56 dx=-128 dy=0 dh=-128 dv=0 dx=0 dy=0 dh=0 dv=0
PairPos2: "'kern' Horizontal Kerning lookup 15-1" afii57506 dx=-128 dy=0 dh=-128 dv=0 dx=0 dy=0 dh=0 dv=0
EndChar

StartChar: uniFEB2
Encoding: 65202 65202 186
Width: 2463
VWidth: 3752
GlyphClass: 2
Flags: W
AnchorPoint: "Anchor-10" 1660.87 1121.42 basechar 0
AnchorPoint: "Anchor-7" 634.28 -763.066 basechar 0
LayerCount: 2
Fore
SplineSet
996.926757812 340.258789062 m 1,0,-1
 1135.91113281 548.529296875 l 2,1,2
 1155.11044733 578.170516168 1155.11044733 578.170516168 1176.14648438 537.86328125 c 2,3,-1
 1196.54003906 498.787109375 l 2,4,5
 1244 408 1244 408 1301.99121094 353.197265625 c 0,6,7
 1363 296 1363 296 1454.84765625 295.583007812 c 0,8,9
 1605.97553764 295.000094353 1605.97553764 295.000094353 1615.51855469 435.134765625 c 2,10,-1
 1626.30957031 593.595703125 l 1,11,-1
 1758.73925781 593.595703125 l 1,12,-1
 1769.14257812 441.38671875 l 2,13,14
 1779 296 1779 296 1933.52636719 294.618164062 c 0,15,16
 2077.456234 292.994854375 2077.456234 292.994854375 2084.61621094 440.594726562 c 2,17,-1
 2093.04589844 614.369140625 l 1,18,-1
 2234.58984375 614.369140625 l 1,19,-1
 2242.31933594 442.856445312 l 2,20,21
 2248.9881226 294.264648438 2248.9881226 294.264648438 2443.25195312 294.264648438 c 2,22,-1
 2472 294.264648438 l 2,23,24
 2497.0078125 293.999917297 2497.0078125 293.999917297 2497.0078125 207 c 2,25,-1
 2497.0078125 124 l 2,26,27
 2497 0 2497 0 2472 0 c 2,28,-1
 2442.44726562 0 l 2,29,30
 2249 0 2249 0 2167.0078125 149.266601562 c 1,31,32
 2076 0 2076 0 1946.81738281 -0.2412109375 c 0,33,34
 1769 0 1769 0 1689.03320312 152.546875 c 1,35,36
 1592 0 1592 0 1455.66210938 0 c 0,37,38
 1375 0 1375 0 1299.94921875 46.9755859375 c 1,39,40
 1289 -269 1289 -269 1088.52734375 -417.408203125 c 0,41,42
 929 -535 929 -535 677.056640625 -535.459960938 c 0,43,44
 376 -535 376 -535 232.629882812 -380.759765625 c 0,45,46
 98 -235 98 -235 97.7646484375 -22.623046875 c 0,47,48
 98 197 98 197 197.502929688 418.203125 c 1,49,-1
 315.973632812 379.137695312 l 1,50,51
 264 208 264 208 263.984375 85.0478515625 c 0,52,53
 264 -50 264 -50 326.420898438 -126.60546875 c 0,54,55
 430 -255 430 -255 674.248046875 -254.625 c 0,56,57
 982 -255 982 -255 1097.61328125 -74.3388671875 c 0,58,59
 1142 -5 1142 -5 1119.35839844 69.0244140625 c 0,60,61
 1083 190 1083 190 996.926757812 340.258789062 c 1,0,-1
EndSplineSet
EndChar

StartChar: uniFEB3
Encoding: 65203 65203 187
Width: 1532
VWidth: 3752
GlyphClass: 2
Flags: W
AnchorPoint: "Anchor-10" 783.082 1220.07 basechar 0
AnchorPoint: "Anchor-7" 869.453 -257.922 basechar 0
LayerCount: 2
Fore
SplineSet
1125.81738281 -0.2412109375 m 20,0,1
 948 0 948 0 868.033203125 152.546875 c 5,2,3
 771 0 771 0 634.662109375 0 c 4,4,5
 461 0 461 0 380.336914062 148.028320312 c 5,6,7
 268 0 268 0 49.44921875 0 c 6,8,-1
 -4.9921875 0 l 6,9,10
 -60 0 -60 0 -60 144 c 6,11,-1
 -60 177 l 6,12,13
 -60 294.264648438 -60 294.264648438 -4.9921875 294.264648438 c 6,14,-1
 45.720703125 294.264648438 l 6,15,16
 298.378182099 293.999603276 298.378182099 293.999603276 308.385742188 438.001953125 c 6,17,-1
 319.17578125 593.263671875 l 5,18,-1
 451.606445312 593.263671875 l 5,19,-1
 462.009765625 444.654296875 l 6,20,21
 472 296 472 296 633.84765625 295.583007812 c 4,22,23
 784.975537645 295.000094353 784.975537645 295.000094353 794.518554688 435.134765625 c 6,24,-1
 805.309570312 593.595703125 l 5,25,-1
 937.739257812 593.595703125 l 5,26,-1
 948.142578125 441.38671875 l 6,27,28
 958 296 958 296 1112.52636719 294.618164062 c 4,29,30
 1226 294 1226 294 1250.47558594 377.11328125 c 4,31,32
 1258 403 1258 403 1247.36035156 442.689453125 c 4,33,34
 1239 475 1239 475 1169 615 c 5,35,-1
 1304.90820312 790.598632812 l 6,36,37
 1325 817 1325 817 1334 818 c 4,38,39
 1342 819 1342 819 1359.53222656 790.598632812 c 4,40,41
 1449 640 1449 640 1448.82910156 455.587890625 c 4,42,43
 1449 259 1449 259 1340.05664062 117.500976562 c 4,44,45
 1250 0 1250 0 1125.81738281 -0.2412109375 c 20,0,1
EndSplineSet
EndChar

StartChar: uniFEB4
Encoding: 65204 65204 188
Width: 1646
VWidth: 3752
GlyphClass: 2
Flags: W
AnchorPoint: "Anchor-7" 750.587 -272.922 basechar 0
AnchorPoint: "Anchor-10" 762.603 1169.8 basechar 0
LayerCount: 2
Fore
SplineSet
1651 0 m 6,0,-1
 1621.44726562 0 l 6,1,2
 1428 0 1428 0 1346.0078125 149.266601562 c 5,3,4
 1255 0 1255 0 1125.81738281 -0.2412109375 c 4,5,6
 948 0 948 0 868.033203125 152.546875 c 1,7,8
 771 0 771 0 634.662109375 0 c 0,9,10
 461 0 461 0 380.336914062 148.028320312 c 1,11,12
 268 0 268 0 49.44921875 0 c 2,13,-1
 -4.9921875 0 l 2,14,15
 -60 0 -60 0 -60 144 c 2,16,-1
 -60 177 l 2,17,18
 -60 294.264648438 -60 294.264648438 -4.9921875 294.264648438 c 2,19,-1
 45.720703125 294.264648438 l 2,20,21
 298.378182098 293.999603276 298.378182098 293.999603276 308.385742188 438.001953125 c 2,22,-1
 319.17578125 593.263671875 l 1,23,-1
 451.606445312 593.263671875 l 1,24,-1
 462.009765625 444.654296875 l 2,25,26
 472 296 472 296 633.84765625 295.583007812 c 0,27,28
 784.975537644 295.000094353 784.975537644 295.000094353 794.518554688 435.134765625 c 2,29,-1
 805.309570312 593.595703125 l 1,30,-1
 937.739257812 593.595703125 l 1,31,-1
 948.142578125 441.38671875 l 2,32,33
 958 296 958 296 1112.52636719 294.618164062 c 4,34,35
 1256.456234 292.994854375 1256.456234 292.994854375 1263.61621094 440.594726562 c 6,36,-1
 1272.04589844 614.369140625 l 5,37,-1
 1413.58984375 614.369140625 l 5,38,-1
 1421.31933594 441.856445312 l 6,39,40
 1427.98804227 294.264648438 1427.98804227 294.264648438 1622.25195312 294.264648438 c 6,41,-1
 1651 294.264648438 l 6,42,43
 1676.0078125 293.999917297 1676.0078125 293.999917297 1676.0078125 197 c 6,44,-1
 1676.0078125 124 l 6,45,46
 1676 0 1676 0 1651 0 c 6,0,-1
EndSplineSet
EndChar

StartChar: uniFEBA
Encoding: 65210 65210 194
Width: 2651
VWidth: 3753
GlyphClass: 2
Flags: W
AnchorPoint: "Anchor-10" 2142.87 1165.42 basechar 0
AnchorPoint: "Anchor-7" 614.003 -733.041 basechar 0
LayerCount: 2
Fore
SplineSet
2456.09375 294 m 1,0,-1
 2656.390625 294.264648438 l 2,1,2
 2681.3984375 293.995715216 2681.3984375 293.995715216 2681.3984375 197 c 2,3,-1
 2681.3984375 124 l 2,4,5
 2681 0 2681 0 2656.390625 0 c 2,6,-1
 2618.19335938 0 l 2,7,8
 2450 0 2450 0 2293.390625 128.118164062 c 5,9,10
 2121.04226367 0.0314097374099 2121.04226367 0.0314097374099 1816.41601562 0.013671875 c 2,11,-1
 1581.61816406 0 l 2,12,13
 1405 -0 1405 -0 1301.87890625 44.2880859375 c 1,14,15
 1291 -269 1291 -269 1090.52734375 -417.408203125 c 0,16,17
 931 -535 931 -535 676.908902663 -535.461833076 c 0,18,19
 379 -536 379 -536 234.629882812 -380.759765625 c 0,20,21
 100 -235 100 -235 99.7646484375 -22.623046875 c 0,22,23
 100 197 100 197 199.502929688 418.203125 c 1,24,-1
 317.973632812 379.137695312 l 1,25,26
 266 208 266 208 265.984375 85.0478515625 c 0,27,28
 266 -50 266 -50 328.420898438 -126.60546875 c 0,29,30
 432 -255 432 -255 677.563476562 -254.624023438 c 0,31,32
 982 -255 982 -255 1099.61328125 -74.3388671875 c 0,33,34
 1144 -6 1144 -6 1121.37597656 68.9365234375 c 0,35,36
 1082 199 1082 199 997.860351562 340.258789062 c 1,37,-1
 1138.49707031 549.596679688 l 2,38,39
 1157.11421008 578.175320647 1157.11421008 578.175320647 1176.48535156 539.99609375 c 2,40,-1
 1202.79199219 488.147460938 l 2,41,42
 1297.23858299 302.531111677 1297.23858299 302.531111677 1427.72460938 297.46484375 c 2,43,-1
 1444.92871094 296.796875 l 1,44,45
 1521 400 1521 400 1642.6640625 534.223632812 c 0,46,47
 1921 840 1921 840 2171.22558594 839.461914062 c 0,48,-1
 2172.92578125 841.555664062 l 0,49,-1
 2171.22558594 839.461914062 l 0,50,51
 2388 839 2388 839 2475.54980469 673.395507812 c 0,52,53
 2513 601 2513 601 2512.68847656 495.315429688 c 0,54,55
 2512 383 2512 383 2456.09375 294 c 1,0,-1
1606.83984375 296.057617188 m 1,56,-1
 1906.9453125 296.057617188 l 2,57,-1
 1907.66503906 296.057617188 l 0,58,59
 2241 296 2241 296 2289.47460938 340.854492188 c 0,60,61
 2319 368 2319 368 2318.86230469 408.306640625 c 0,62,63
 2319 420 2319 420 2316.609375 431.922851562 c 0,64,65
 2292 570 2292 570 2103.75976562 570.29296875 c 0,66,67
 1881 570 1881 570 1606.83984375 296.057617188 c 1,56,-1
EndSplineSet
EndChar

StartChar: uniFEBB
Encoding: 65211 65211 195
Width: 1685
VWidth: 3753
GlyphClass: 2
Flags: W
AnchorPoint: "Anchor-10" 1210.36 1163.58 basechar 0
AnchorPoint: "Anchor-7" 662.342 -237.901 basechar 0
LayerCount: 2
Fore
SplineSet
517.9921875 294.703125 m 1,0,1
 587 391 587 391 715.727539062 532.129882812 c 0,2,3
 997 840 997 840 1246.83496094 839.461914062 c 0,4,5
 1462 839 1462 839 1551.15917969 673.395507812 c 0,6,7
 1588 604 1588 604 1588.29785156 495.315429688 c 0,8,9
 1588 372 1588 372 1517.87207031 259.88671875 c 0,10,11
 1353.96656067 -0.0530318420075 1353.96656067 -0.0530318420075 889.479492188 -0.080078125 c 2,12,-1
 654.681640625 -0.09375 l 2,13,14
 463 -0 463 -0 323.959960938 163.228515625 c 1,15,16
 192 0 192 0 28.1640625 0 c 2,17,-1
 -4.9921875 0 l 2,18,19
 -60 0 -60 0 -60 144 c 2,20,-1
 -60 177 l 2,21,22
 -60 294.264648438 -60 294.264648438 -4.9921875 294.264648438 c 2,23,-1
 9.40234375 294.264648438 l 2,24,25
 212.9940127 294.000007783 212.9940127 294.000007783 229.16796875 442.487304688 c 2,26,-1
 247.883789062 614.310546875 l 5,27,-1
 381.211914062 614.374023438 l 5,28,-1
 400.724609375 445.174804688 l 2,29,30
 416 310 416 310 517.9921875 294.703125 c 1,0,1
679.903320312 293.963867188 m 1,31,-1
 980.008789062 293.963867188 l 2,32,33
 1314 294 1314 294 1362.53808594 338.760742188 c 0,34,35
 1392 366 1392 366 1391.90429688 406.322265625 c 0,36,37
 1392 418 1392 418 1389.67285156 429.829101562 c 0,38,39
 1365 568 1365 568 1177.06152344 568.203125 c 0,40,41
 955 568 955 568 679.903320312 293.963867188 c 1,31,-1
EndSplineSet
EndChar

StartChar: uniFEBC
Encoding: 65212 65212 196
Width: 1733
VWidth: 3753
GlyphClass: 2
Flags: W
AnchorPoint: "Anchor-10" 1210.36 1163.58 basechar 0
AnchorPoint: "Anchor-7" 679.471 -226.746 basechar 0
LayerCount: 2
Fore
SplineSet
1531.703125 294 m 1,0,1
 1738 294.264648438 l 2,2,3
 1763.0078125 293.999917297 1763.0078125 293.999917297 1763.0078125 197 c 2,4,-1
 1763.0078125 124 l 2,5,6
 1763 0 1763 0 1738 0 c 2,7,-1
 1696.80273438 0 l 2,8,9
 1526 0 1526 0 1369 128.118164062 c 1,10,11
 1194.91539839 -0.0622931175889 1194.91539839 -0.0622931175889 889.479492188 -0.080078125 c 2,12,-1
 654.681640625 -0.09375 l 2,13,14
 463 -0 463 -0 323.959960938 163.228515625 c 1,15,16
 192 0 192 0 28.1640625 0 c 2,17,-1
 -4.9921875 0 l 2,18,19
 -60 0 -60 0 -60 144 c 2,20,-1
 -60 177 l 2,21,22
 -60 294.264648438 -60 294.264648438 -4.9921875 294.264648438 c 2,23,-1
 9.40234375 294.264648438 l 2,24,25
 212.9940127 294.000007783 212.9940127 294.000007783 229.16796875 442.487304688 c 2,26,-1
 247.883789062 614.310546875 l 5,27,-1
 381.211914062 614.374023438 l 5,28,-1
 400.724609375 445.174804688 l 2,29,30
 416 310 416 310 517.9921875 294.703125 c 1,31,32
 585 389 585 389 715.727539062 532.129882812 c 0,33,34
 997 840 997 840 1248.53515625 841.555664062 c 0,35,-1
 1246.83496094 839.461914062 l 0,36,37
 1462 839 1462 839 1551.15917969 673.395507812 c 0,38,39
 1588 604 1588 604 1588.29785156 495.315429688 c 0,40,41
 1588 383 1588 383 1531.703125 294 c 1,0,1
679.903320312 293.963867188 m 1,42,-1
 980.008789062 293.963867188 l 2,43,44
 1314 294 1314 294 1362.53808594 338.760742188 c 0,45,46
 1392 366 1392 366 1391.90429688 406.322265625 c 0,47,48
 1392 418 1392 418 1389.67285156 429.829101562 c 0,49,50
 1365 568 1365 568 1177.06152344 568.203125 c 0,51,52
 955 568 955 568 679.903320312 293.963867188 c 1,42,-1
EndSplineSet
EndChar

StartChar: uniFEC2
Encoding: 65218 65218 202
Width: 1612
VWidth: 3753
GlyphClass: 2
Flags: W
AnchorPoint: "Anchor-10" 466.374 1539.59 basechar 0
AnchorPoint: "Anchor-7" 793.839 -226.802 basechar 0
LayerCount: 2
Fore
SplineSet
1276 132.416992188 m 1,0,1
 1100.04197023 0.0315771090198 1100.04197023 0.0315771090198 792.540039062 0.013671875 c 2,2,-1
 557.741210938 0 l 2,3,-1
 262.168945312 -0.7431640625 l 1,4,5
 95 170 95 170 69.9697265625 208.2421875 c 0,6,7
 15.0642410308 293.899778103 15.0642410308 293.899778103 107.869140625 293.922851562 c 2,8,-1
 449.594726562 294.0078125 l 1,9,10
 448 559 448 559 423.698242188 985.860351562 c 0,11,12
 411 1205 411 1205 391.797851562 1297.85839844 c 1,13,-1
 576.529296875 1426.36328125 l 2,14,15
 623 1459 623 1459 627 1456 c 0,16,17
 635.1953125 1450.87792969 635.1953125 1450.87792969 635.1953125 1386.92382812 c 2,18,-1
 635.1953125 530.93359375 l 1,19,20
 922 842 922 842 1150.12011719 841.555664062 c 0,21,22
 1366 841 1366 841 1454.21875 675.489257812 c 0,23,24
 1492 605 1492 605 1491.3359375 497.822265625 c 0,25,26
 1491 400 1491 400 1433.88964844 294.259765625 c 1,27,-1
 1617 294.264648438 l 2,28,29
 1642.0078125 293.999917297 1642.0078125 293.999917297 1642.0078125 197 c 2,30,-1
 1642.0078125 124 l 2,31,32
 1642 0 1642 0 1617 0 c 2,33,-1
 1578.0625 0 l 2,34,35
 1446 0 1446 0 1276 132.416992188 c 1,0,1
582.962890625 296.057617188 m 1,36,-1
 883.068359375 296.057617188 l 2,37,38
 1217 296 1217 296 1265.59765625 340.854492188 c 0,39,40
 1295 368 1295 368 1295.00878906 408.19921875 c 0,41,42
 1295 420 1295 420 1292.73242188 431.922851562 c 0,43,44
 1269 570 1269 570 1080.71972656 570.306640625 c 0,45,46
 858 570 858 570 582.962890625 296.057617188 c 1,36,-1
EndSplineSet
EndChar

StartChar: uniFEC3
Encoding: 65219 65219 203
Width: 1296
VWidth: 3753
GlyphClass: 2
Flags: W
AnchorPoint: "Anchor-7" 493.441 -220.401 basechar 0
AnchorPoint: "Anchor-10" 225.31 1536.39 basechar 0
LayerCount: 2
Fore
SplineSet
357.86328125 530.93359375 m 5,0,1
 644 842 644 842 873.85546875 841.555664062 c 0,2,3
 1089 841 1089 841 1177.95410156 675.489257812 c 0,4,5
 1215 606 1215 606 1215.07128906 497.822265625 c 0,6,7
 1215 375 1215 375 1144.66699219 261.98046875 c 0,8,9
 980.016238464 0.0258349313076 980.016238464 0.0258349313076 516.275390625 0.013671875 c 2,10,-1
 -4.9921875 0 l 2,11,12
 -60 0 -60 0 -60 144 c 2,13,-1
 -60 177 l 2,14,15
 -60 294.344352776 -60 294.344352776 -4.9921875 294.264648438 c 2,16,-1
 172.262695312 294.0078125 l 5,17,18
 171.102936655 551.174652669 171.102936655 551.174652669 146.366210938 985.860351562 c 4,19,20
 134 1209 134 1209 114.465820312 1297.85839844 c 5,21,-1
 299.197265625 1426.36328125 l 6,22,23
 345 1458 345 1458 349.66796875 1454 c 4,24,25
 357.86328125 1449.08204407 357.86328125 1449.08204407 357.86328125 1386.92382812 c 6,26,-1
 357.86328125 530.93359375 l 5,0,1
306.698242188 296.057617188 m 1,27,-1
 606.803710938 296.057617188 l 2,28,29
 940 296 940 296 989.333007812 340.854492188 c 0,30,31
 1018 367 1018 367 1018.74414062 408.19921875 c 0,32,33
 1019 420 1019 420 1016.46777344 431.922851562 c 0,34,35
 992 570 992 570 804.455078125 570.306640625 c 0,36,37
 582 570 582 570 306.698242188 296.057617188 c 1,27,-1
EndSplineSet
EndChar

StartChar: uniFEC4
Encoding: 65220 65220 204
Width: 1339
VWidth: 3753
GlyphClass: 2
Flags: W
AnchorPoint: "Anchor-7" 497.708 -216.135 basechar 0
AnchorPoint: "Anchor-10" 227.909 1536.66 basechar 0
LayerCount: 2
Fore
SplineSet
357.86328125 530.93359375 m 5,0,1
 647 842 647 842 873.85546875 841.555664062 c 0,2,3
 1089 841 1089 841 1177.95410156 675.489257812 c 0,4,5
 1216 605 1216 605 1215.07128906 497.822265625 c 0,6,7
 1215 398 1215 398 1157.625 294.259765625 c 1,8,-1
 1344.73535156 294.264648438 l 2,9,10
 1369.74316406 294.002690369 1369.74316406 294.002690369 1369.74316406 197 c 2,11,-1
 1369.74316406 124 l 2,12,13
 1370 0 1370 0 1344.73535156 0 c 2,14,-1
 1294.79785156 0 l 2,15,16
 1170 0 1170 0 999.735351562 132.416992188 c 1,17,18
 825.028727211 0.0217698983584 825.028727211 0.0217698983584 516.275390625 0.013671875 c 2,19,-1
 -4.9921875 0 l 2,20,21
 -60 0 -60 0 -60 144 c 2,22,-1
 -60 177 l 2,23,24
 -60 294.344352776 -60 294.344352776 -4.9921875 294.264648438 c 2,25,-1
 172.262695312 294.0078125 l 5,26,27
 171.102936655 551.174652669 171.102936655 551.174652669 146.366210938 985.860351562 c 4,28,29
 134 1209 134 1209 114.465820312 1297.85839844 c 5,30,-1
 299.197265625 1426.36328125 l 6,31,32
 345 1458 345 1458 349.66796875 1454 c 4,33,34
 357.86328125 1449.08204407 357.86328125 1449.08204407 357.86328125 1386.92382812 c 6,35,-1
 357.86328125 530.93359375 l 5,0,1
306.698242188 296.057617188 m 1,36,-1
 606.803710938 296.057617188 l 2,37,38
 940 296 940 296 989.333007812 340.854492188 c 0,39,40
 1018 367 1018 367 1018.74414062 408.19921875 c 0,41,42
 1019 420 1019 420 1016.46777344 431.922851562 c 0,43,44
 992 570 992 570 804.455078125 570.306640625 c 0,45,46
 582 570 582 570 306.698242188 296.057617188 c 1,36,-1
EndSplineSet
EndChar

StartChar: uniFECA
Encoding: 65226 65226 210
Width: 1263
VWidth: 3747
GlyphClass: 2
Flags: W
AnchorPoint: "Anchor-10" 660.262 1194.92 basechar 0
AnchorPoint: "Anchor-7" 577.191 -865.393 basechar 0
LayerCount: 2
Fore
SplineSet
749.87109375 -699.381835938 m 0,0,1
 407 -699 407 -699 246.336914062 -548.037109375 c 0,2,3
 107 -418 107 -418 106.255859375 -155.077148438 c 0,4,5
 106 295 106 295 631.196289062 552.396484375 c 1,6,7
 599 598 599 598 315.197265625 636.002929688 c 1,8,-1
 315.075195312 776.015625 l 1,9,10
 431 846 431 846 730.955078125 845.604492188 c 0,11,12
 1053 845 1053 845 1053.59375 697.461914062 c 0,13,14
 1055 544 1055 544 876.243164062 440.987304688 c 1,15,-1
 876.934570312 426.885742188 l 2,16,17
 882.987920401 294.264648438 882.987920401 294.264648438 1227.99414062 294.264648438 c 2,18,-1
 1268 294.264648438 l 2,19,20
 1293.0078125 293.999917297 1293.0078125 293.999917297 1293.0078125 197 c 2,21,-1
 1293.0078125 124 l 2,22,23
 1293 0 1293 0 1268 0 c 2,24,-1
 1239.16503906 0 l 2,25,26
 774.417370187 -5.68434188608e-14 774.417370187 -5.68434188608e-14 729.251953125 325.171875 c 2,27,-1
 727.407226562 338.453125 l 1,28,29
 261 161 261 161 261.967773438 -133.244140625 c 16,30,31
 263 -438 263 -438 744.9453125 -437.999023438 c 0,32,33
 910 -438 910 -438 1031.21582031 -422.524414062 c 0,34,35
 1117 -412 1117 -412 1154 -407.16796875 c 0,36,37
 1212.09375 -399.98828125 1212.09375 -399.98828125 1184.55078125 -450 c 2,38,-1
 1108 -589 l 2,39,40
 1058.86523438 -678.765625 1058.86523438 -678.765625 952 -690.094726562 c 0,41,42
 868 -699 868 -699 749.87109375 -699.381835938 c 0,0,1
EndSplineSet
EndChar

StartChar: uniFECB
Encoding: 65227 65227 211
Width: 1003
VWidth: 3747
GlyphClass: 2
Flags: W
AnchorPoint: "Anchor-10" 481.836 1234.84 basechar 0
AnchorPoint: "Anchor-7" 508.066 -222.76 basechar 0
LayerCount: 2
Fore
SplineSet
-4.9921875 0 m 2,0,1
 -60 0 -60 0 -60 144 c 2,2,-1
 -60 177 l 2,3,4
 -60 294.264648438 -60 294.264648438 -4.9921875 294.264648438 c 6,5,-1
 192.48828125 294.264648438 l 5,6,-1
 179.737304688 312.885742188 l 6,7,8
 109 416 109 416 108.848632812 513.840820312 c 4,9,10
 109 601 109 601 148.249023438 696.051757812 c 4,11,12
 198 816 198 816 325 891.109375 c 4,13,14
 409 941 409 941 506.265625 941.223632812 c 4,15,16
 716 941 716 941 832.260742188 790.39453125 c 5,17,-1
 799.34765625 640.287109375 l 5,18,19
 649 691 649 691 557.536132812 691.19140625 c 4,20,21
 438 691 438 691 351.787109375 612.553710938 c 4,22,23
 284 551 284 551 283.895507812 511.477539062 c 4,24,25
 284 465 284 465 441.541015625 369.327148438 c 4,26,27
 490 340 490 340 513.64453125 340.110351562 c 4,28,29
 545.721496897 340.000949863 545.721496897 340.000949863 797.571289062 404.368164062 c 6,30,-1
 870.2734375 422.94921875 l 6,31,32
 930.618131611 437.905355789 930.618131611 437.905355789 920 389 c 6,33,-1
 871.727539062 166.665039062 l 1,34,35
 592 101 592 101 385.197265625 46.9326171875 c 0,36,37
 207 0 207 0 42.5625 0 c 2,38,-1
 -4.9921875 0 l 2,0,1
EndSplineSet
EndChar

StartChar: uniFECC
Encoding: 65228 65228 212
Width: 959
VWidth: 3749
GlyphClass: 2
Flags: W
AnchorPoint: "Anchor-10" 486.071 1195.73 basechar 0
AnchorPoint: "Anchor-7" 500.445 -222.487 basechar 0
LayerCount: 2
Fore
SplineSet
964 0 m 2,0,-1
 921.049804688 0 l 2,1,2
 658 0 658 0 520.266601562 180.462890625 c 1,3,4
 339 0 339 0 56.23046875 0 c 2,5,-1
 -4.9921875 0 l 2,6,7
 -60 0 -60 0 -60 144 c 2,8,-1
 -60 177 l 2,9,10
 -60 294.264648438 -60 294.264648438 -4.9921875 294.264648438 c 6,11,-1
 53.578125 294.264648438 l 6,12,13
 345 294 345 294 443.287109375 378.889648438 c 1,14,15
 337 533 337 533 111.739257812 563.344726562 c 1,16,-1
 111.618164062 703.356445312 l 1,17,18
 242 783 242 783 517.497070312 782.946289062 c 0,19,20
 855 783 855 783 840.135742188 604.13671875 c 0,21,22
 831 493 831 493 648.528320312 373.59765625 c 1,23,-1
 662.079101562 362.96484375 l 2,24,25
 749.662608843 294.264648438 749.662608843 294.264648438 923.732421875 294.264648438 c 6,26,-1
 964 294.264648438 l 6,27,28
 989.0078125 293.999917297 989.0078125 293.999917297 989.0078125 197 c 2,29,-1
 989.0078125 124 l 2,30,31
 989 0 989 0 964 0 c 2,0,-1
EndSplineSet
EndChar

StartChar: uniFEDA
Encoding: 65242 65242 226
Width: 1936
VWidth: 3713
GlyphClass: 2
Flags: W
AnchorPoint: "Anchor-10" 923.587 1502.12 basechar 0
AnchorPoint: "Anchor-7" 885.275 -195.886 basechar 0
LayerCount: 2
Fore
SplineSet
1148.62890625 701.897460938 m 0,0,1
 1044 535 1044 535 730.228515625 607.866210938 c 0,2,3
 704 614 704 614 665.485351562 626.251953125 c 1,4,-1
 681.161132812 786.826171875 l 1,5,6
 799 745 799 745 930.741210938 746.220703125 c 0,7,8
 1062 748 1062 748 1071.640625 808.583984375 c 0,9,10
 1078 847 1078 847 943.55078125 876.21875 c 0,11,12
 762 915 762 915 767.143554688 1091.62988281 c 0,13,14
 773 1278 773 1278 1093.56640625 1323.41308594 c 0,15,16
 1133 1329 1133 1329 1143.9296875 1312.45703125 c 0,17,18
 1155 1295 1155 1295 1146.90625 1276.23632812 c 1,19,-1
 1108.17675781 1165.39550781 l 1,20,21
 987 1153 987 1153 926.467773438 1132.52246094 c 128,-1,22
 866 1112 866 1112 864.629882812 1074.53320312 c 0,23,24
 864 1052 864 1052 899.124023438 1038.46582031 c 0,25,26
 934 1025 934 1025 1007.00195312 1012.28808594 c 0,27,28
 1174 983 1174 983 1178.22949219 819.673828125 c 0,29,30
 1180 752 1180 752 1148.62890625 701.897460938 c 0,0,1
842.657226562 292.076171875 m 0,31,32
 1357 292 1357 292 1489.86230469 377.896484375 c 4,33,34
 1532 405 1532 405 1538.59570312 479.025390625 c 4,35,36
 1547 571 1547 571 1529.67285156 921.016601562 c 4,37,38
 1515 1209 1515 1209 1502.45703125 1297.85839844 c 5,39,-1
 1699.72167969 1426.08691406 l 2,40,41
 1742 1454 1742 1454 1745 1451 c 0,42,43
 1750.23242188 1446.8140625 1750.23242188 1446.8140625 1750.23242188 1387.99023438 c 2,44,-1
 1750.23242188 659.482421875 l 2,45,46
 1749.99967846 314.5234375 1749.99967846 314.5234375 1903.67871094 314.5234375 c 2,47,-1
 1940.19726562 314.5234375 l 1,48,49
 1966.0078125 316.000447071 1966.0078125 316.000447071 1966.0078125 197 c 2,50,-1
 1966.0078125 124 l 2,51,52
 1966 0 1966 0 1941 0 c 2,53,-1
 1914.09570312 0 l 2,54,55
 1734 0 1734 0 1642 197 c 1,56,57
 1507 0 1507 0 842.74609375 0 c 0,58,59
 489 0 489 0 307.043945312 99.7861328125 c 0,60,61
 97 216 97 216 96.4306640625 449.08203125 c 0,62,63
 96 646 96 646 185.948242188 822.258789062 c 1,64,-1
 283.756835938 779.514648438 l 1,65,66
 251 661 251 661 251.442382812 574.133789062 c 0,67,68
 251 502 251 502 288.154296875 446.359375 c 0,69,70
 391 292 391 292 842.657226562 292.076171875 c 0,31,32
EndSplineSet
EndChar

StartChar: uniFEDB
Encoding: 65243 65243 227
Width: 975
VWidth: 3732
GlyphClass: 2
Flags: W
AnchorPoint: "Anchor-10" 271.253 1518.94 basechar 0
AnchorPoint: "Anchor-7" 305.081 -237.552 basechar 0
LayerCount: 2
Fore
SplineSet
-4.9921875 0 m 6,0,1
 -60 0 -60 0 -60 144 c 6,2,-1
 -60 177 l 6,3,4
 -60 294.265164909 -60 294.265164909 -4.9921875 294.264648438 c 6,5,-1
 99.0185546875 294.263671875 l 6,6,7
 424 294 424 294 496.318359375 349.159179688 c 4,8,9
 539 381 539 381 539.484375 415.822265625 c 4,10,11
 539 502 539 502 28.7421875 909.029296875 c 5,12,-1
 84.5673828125 1184.46386719 l 5,13,-1
 884.94140625 1479.15136719 l 6,14,15
 925.47411071 1493.8098148 925.47411071 1493.8098148 915.455078125 1429.83886719 c 6,16,-1
 884 1229 l 5,17,-1
 289 1020 l 5,18,19
 704 679 704 679 704.629882812 453.345703125 c 4,20,21
 705 275 705 275 610.986328125 178.072265625 c 4,22,23
 438 0 438 0 104.15234375 0 c 6,24,-1
 -4.9921875 0 l 6,0,1
EndSplineSet
EndChar

StartChar: uniFEDC
Encoding: 65244 65244 228
Width: 1212
VWidth: 3732
GlyphClass: 2
Flags: W
AnchorPoint: "Anchor-10" 302.919 1490.78 basechar 0
AnchorPoint: "Anchor-7" 314.945 -220.715 basechar 0
LayerCount: 2
Fore
SplineSet
28.7431640625 909.01171875 m 1,0,1
 84.5673828125 1184.46386719 l 1,2,-1
 884.94140625 1479.15136719 l 2,3,4
 925.47411071 1493.8098148 925.47411071 1493.8098148 915.455078125 1429.83886719 c 2,5,-1
 884 1229 l 1,6,-1
 289 1020 l 1,7,8
 451 878 451 878 761.1640625 521.309570312 c 0,9,10
 957.770830928 294.264648438 957.770830928 294.264648438 1203.55957031 294.264648438 c 6,11,-1
 1217 294.264648438 l 6,12,13
 1242.0078125 293.999917297 1242.0078125 293.999917297 1242.0078125 197 c 2,14,-1
 1242.0078125 124 l 2,15,16
 1242 0 1242 0 1217 0 c 2,17,-1
 1203.99121094 0 l 2,18,19
 898 0 898 0 671.728515625 312.668945312 c 1,20,21
 643 244 643 244 609 202 c 0,22,23
 447 0 447 0 105.486328125 0 c 2,24,-1
 -4.9921875 0 l 2,25,26
 -60 0 -60 0 -60 144 c 2,27,-1
 -60 177 l 2,28,29
 -60 294.265168675 -60 294.265168675 -4.9921875 294.264648438 c 2,30,-1
 98.265625 294.263671875 l 2,31,32
 406 294 406 294 475.811523438 340.012695312 c 0,33,34
 527 373 527 373 526.71875 418.583984375 c 0,35,36
 526 516 526 516 28.7431640625 909.01171875 c 1,0,1
EndSplineSet
EndChar

StartChar: uniFEDE
Encoding: 65246 65246 230
Width: 1379
VWidth: 3753
GlyphClass: 2
Flags: W
AnchorPoint: "Anchor-10" 566.04 1003.76 basechar 0
AnchorPoint: "Anchor-7" 659.188 -721.519 basechar 0
LayerCount: 2
Fore
SplineSet
663.788085938 -228.20703125 m 24,0,1
 917 -228 917 -228 996.80078125 -88.12109375 c 0,2,3
 1033 -24 1033 -24 1026.38085938 94.5751953125 c 0,4,5
 1019 230 1019 230 933.126953125 1295.19238281 c 1,6,-1
 1107 1420 l 2,7,8
 1162 1460 1162 1460 1171 1454 c 0,9,10
 1179.08463545 1447.93652341 1179.08463545 1447.93652341 1180.28613281 1380 c 2,11,-1
 1194.55664062 573.099609375 l 2,12,13
 1198.99578671 294.264648438 1198.99578671 294.264648438 1361.53417969 294.264648438 c 2,14,-1
 1384 294.264648438 l 2,15,16
 1409.0078125 293.999917297 1409.0078125 293.999917297 1409.0078125 197 c 2,17,-1
 1409.0078125 124 l 2,18,19
 1409 0 1409 0 1384 0 c 2,20,-1
 1356.30566406 0 l 2,21,22
 1251 0 1251 0 1197.49902344 51.1328125 c 1,23,24
 1185 -206 1185 -206 1095.51171875 -322.198242188 c 0,25,26
 951 -509 951 -509 661.234375 -509.056640625 c 0,27,28
 378 -509 378 -509 234.629882812 -354.358398438 c 0,29,30
 100 -208 100 -208 99.7646484375 3.7783203125 c 0,31,32
 100 223 100 223 199.502929688 444.604492188 c 1,33,-1
 317.973632812 405.5390625 l 1,34,35
 266 234 266 234 265.984375 111.44921875 c 0,36,37
 266 -23 266 -23 328.420898438 -100.204101562 c 0,38,39
 433 -228 433 -228 663.788085938 -228.20703125 c 24,0,1
EndSplineSet
EndChar

StartChar: uniFEDF
Encoding: 65247 65247 231
Width: 556
VWidth: 3713
GlyphClass: 2
Flags: W
AnchorPoint: "Anchor-10" 249.463 1543.69 basechar 0
AnchorPoint: "Anchor-7" 183.305 -241.562 basechar 0
LayerCount: 2
Fore
SplineSet
-4.9921875 0 m 2,0,1
 -60 0 -60 0 -60 144 c 2,2,-1
 -60 177 l 2,3,4
 -60 294.264648438 -60 294.264648438 -4.9921875 294.264648438 c 2,5,-1
 16.5546875 294.264648438 l 2,6,7
 174 294 174 294 214 358 c 4,8,9
 233 389 233 389 227.952148438 597.104492188 c 4,10,11
 220 917 220 917 166.465820312 1296.19238281 c 5,12,-1
 345 1424 l 2,13,14
 397 1462 397 1462 403 1456 c 0,15,16
 411.94504789 1448.04884632 411.94504789 1448.04884632 413.010742188 1390.92382812 c 2,17,-1
 427.89453125 593.099609375 l 2,18,19
 432.950402347 343.44905016 432.950402347 343.44905016 369.59765625 214.663085938 c 0,20,21
 264 0 264 0 10.892578125 0 c 2,22,-1
 -4.9921875 0 l 2,0,1
EndSplineSet
EndChar

StartChar: uniFEE0
Encoding: 65248 65248 232
Width: 651
VWidth: 3713
GlyphClass: 2
Flags: W
AnchorPoint: "Anchor-10" 290.934 1546.75 basechar 0
AnchorPoint: "Anchor-7" 295.028 -238.129 basechar 0
LayerCount: 2
Fore
SplineSet
656 0 m 6,0,-1
 607.404296875 0 l 6,1,2
 396 0 396 0 314.552734375 157.865234375 c 5,3,4
 210 0 210 0 36.5390625 0 c 6,5,-1
 -4.9921875 0 l 6,6,7
 -60 0 -60 0 -60 144 c 6,8,-1
 -60 177 l 6,9,10
 -60 294.271832901 -60 294.271832901 -4.9921875 294.264648438 c 6,11,-1
 9.9619140625 294.262695312 l 6,12,13
 130 294 130 294 185.44140625 340.68359375 c 4,14,15
 242 388 242 388 240.245117188 557.450195312 c 4,16,17
 240 577 240 577 239.413085938 598.908203125 c 4,18,19
 226 997 226 997 194.198242188 1300.85839844 c 5,20,-1
 385.331054688 1429.89648438 l 6,21,22
 421 1454 421 1454 428 1450 c 4,23,24
 437.51953125 1445.24023438 437.51953125 1445.24023438 437.51953125 1392 c 6,25,-1
 437.51953125 621.713867188 l 6,26,27
 438 431 438 431 464.271484375 361.397460938 c 4,28,29
 489.898972285 294.264648438 489.898972285 294.264648438 617.87109375 294.264648438 c 6,30,-1
 656 294.264648438 l 6,31,32
 681.0078125 293.999917297 681.0078125 293.999917297 681.0078125 197 c 6,33,-1
 681.0078125 124 l 6,34,35
 681 0 681 0 656 0 c 6,0,-1
EndSplineSet
EndChar

StartChar: uniFEE2
Encoding: 65250 65250 234
Width: 1249
VWidth: 3789
GlyphClass: 2
Flags: W
AnchorPoint: "Anchor-10" 615.051 1060.9 basechar 0
AnchorPoint: "Anchor-7" 227.183 -757.644 basechar 0
LayerCount: 2
Fore
SplineSet
1254 0 m 2,0,-1
 1233.0859375 0 l 2,1,2
 1140 0 1140 0 1065.07226562 65.3486328125 c 1,3,-1
 1060 50 l 2,4,5
 976 -203 976 -203 783.594726562 -203.065429688 c 0,6,7
 465.093510988 -202.000312715 465.093510988 -202.000312715 473.448242188 222.447265625 c 2,8,-1
 475.125976562 307.681640625 l 1,9,10
 334 260 334 260 265.797851562 152.833984375 c 1,11,-1
 280.3984375 -308.46484375 l 2,12,13
 287 -512 287 -512 165.676757812 -629 c 0,14,15
 146 -648 146 -648 132.7578125 -648.002929688 c 0,16,17
 111.420188428 -648.000056578 111.420188428 -648.000056578 109.5703125 -596 c 2,18,-1
 96.0966796875 -217.255859375 l 2,19,20
 93 -130 93 -130 93.09375 -64.6455078125 c 0,21,22
 93 57 93 57 101.734375 151.771484375 c 0,23,24
 114 297 114 297 204.1328125 388.647460938 c 0,25,26
 340 527 340 527 514.356445312 548.623046875 c 1,27,28
 545 695 545 695 577.807617188 706.836914062 c 0,29,30
 589 711 589 711 604.704101562 699.551757812 c 2,31,-1
 1073 348 l 6,32,33
 1145 294 1145 294 1244.32519531 294.264648438 c 2,34,-1
 1254 294.264648438 l 2,35,36
 1279.0078125 294.264648438 1279.0078125 294.264648438 1279.0078125 197 c 2,37,-1
 1279.0078125 124 l 2,38,39
 1279 0 1279 0 1254 0 c 2,0,-1
643.454101562 376.301757812 m 2,40,41
 636.937420423 268.773358634 636.937420423 268.773358634 643.241210938 190.87109375 c 0,42,43
 651 108 651 108 694.2890625 74.6494140625 c 0,44,45
 729 48 729 48 790.838867188 47.6396484375 c 0,46,47
 878 48 878 48 902.483398438 97.5830078125 c 0,48,49
 912 117 912 117 912.350585938 137.567382812 c 0,50,51
 911.999648408 227.089689198 911.999648408 227.089689198 657.134765625 385.059570312 c 2,52,-1
 644.4609375 392.915039062 l 1,53,-1
 643.454101562 376.301757812 l 2,40,41
EndSplineSet
EndChar

StartChar: uniFEE3
Encoding: 65251 65251 235
Width: 1008
VWidth: 3756
GlyphClass: 2
Flags: W
AnchorPoint: "Anchor-10" 539.686 1154.5 basechar 0
AnchorPoint: "Anchor-7" 512.424 -262.974 basechar 0
LayerCount: 2
Fore
SplineSet
-4.9921875 0 m 2,0,1
 -60 0 -60 0 -60 144 c 2,2,-1
 -60 177 l 2,3,4
 -60 294.264648438 -60 294.264648438 -4.9921875 294.264648438 c 2,5,-1
 21.216796875 294.264648438 l 2,6,7
 141 294 141 294 245.665039062 427.596679688 c 4,8,9
 297 492 297 492 357.89453125 574 c 0,10,11
 477 734 477 734 599.171875 733.8984375 c 0,12,13
 691 734 691 734 760.446289062 674 c 0,14,15
 853 594 853 594 891.327148438 449.063476562 c 0,16,17
 960 192 960 192 822.061523438 58.466796875 c 0,18,19
 729 -32 729 -32 666.803710938 -31.9072265625 c 0,20,21
 517 -32 517 -32 291.865234375 167.065429688 c 1,22,23
 156 0 156 0 16.71875 0 c 2,24,-1
 -4.9921875 0 l 2,0,1
435.782226562 375.883789062 m 1,25,26
 598 230 598 230 684.600585938 235.390625 c 0,27,28
 724 238 724 238 740.749023438 258.630859375 c 0,29,30
 753 274 753 274 750.923828125 305.080078125 c 0,31,32
 750 322 750 322 744.594726562 343.353515625 c 0,33,34
 729 405 729 405 693.416992188 451.0546875 c 0,35,36
 652 504 652 504 616 508.224609375 c 0,37,38
 567.48796276 513.413053173 567.48796276 513.413053173 522.629882812 474.965820312 c 0,39,40
 478 435 478 435 435.782226562 375.883789062 c 1,25,26
EndSplineSet
EndChar

StartChar: uniFEE4
Encoding: 65252 65252 236
Width: 1145
VWidth: 3756
GlyphClass: 2
Flags: W
AnchorPoint: "Anchor-10" 589.076 1103.9 basechar 0
AnchorPoint: "Anchor-7" 519.449 -274.993 basechar 0
LayerCount: 2
Fore
SplineSet
1150 0 m 2,0,-1
 1126.11425781 0 l 2,1,2
 1007 0 1007 0 894.52734375 109.866210938 c 1,3,4
 857 30 857 30 785.862304688 -26 c 0,5,6
 728 -71 728 -71 673.9921875 -71.162109375 c 0,7,8
 515 -71 515 -71 291.198242188 127.333007812 c 1,9,10
 203 0 203 0 22.71875 0 c 2,11,-1
 -4.9921875 0 l 2,12,13
 -60 0 -60 0 -60 144 c 2,14,-1
 -60 177 l 2,15,16
 -60 294.264648438 -60 294.264648438 -4.9921875 294.264648438 c 2,17,-1
 21.216796875 294.264648438 l 2,18,19
 180 294 180 294 280.131835938 413.063476562 c 0,20,21
 390 544 390 544 457.130859375 602.595703125 c 0,22,23
 527 663 527 663 615.635742188 663.03125 c 4,24,25
 701 663 701 663 752.662109375 623.0625 c 0,26,27
 840 555 840 555 938.662109375 373.463867188 c 0,28,29
 981.855666412 294.264648438 981.855666412 294.264648438 1132.01464844 294.264648438 c 2,30,-1
 1150 294.264648438 l 2,31,32
 1175.0078125 293.999917297 1175.0078125 293.999917297 1175.0078125 177 c 2,33,-1
 1175.0078125 124 l 2,34,35
 1175 0 1175 0 1150 0 c 2,0,-1
448.52734375 316.23046875 m 1,36,37
 582 188 582 188 716.55078125 191.890625 c 0,38,39
 779 194 779 194 777.139648438 250.41015625 c 0,40,41
 775 320 775 320 714.08984375 387.516601562 c 16,42,43
 619.040091404 490.035337956 619.040091404 490.035337956 565.840820312 441.672851562 c 0,44,45
 501 383 501 383 448.52734375 316.23046875 c 1,36,37
EndSplineSet
EndChar

StartChar: uniFEEA
Encoding: 65258 65258 242
Width: 1036
VWidth: 3740
GlyphClass: 2
Flags: W
AnchorPoint: "Anchor-10" 648.045 1342.49 basechar 0
AnchorPoint: "Anchor-7" 458.202 -209.801 basechar 0
LayerCount: 2
Fore
SplineSet
1041 0 m 2,0,-1
 1000.58789062 0 l 2,1,2
 754.263822391 -5.68434188608e-14 754.263822391 -5.68434188608e-14 657.541992188 251.907226562 c 2,3,-1
 651.880859375 266.651367188 l 1,4,-1
 487.399414062 113.599609375 l 1,5,6
 381 116 381 116 245.236328125 144.360351562 c 0,7,8
 109 173 109 173 96.451171875 249.725585938 c 0,9,10
 85 320 85 320 84.693359375 408.836914062 c 0,11,12
 85 487 85 487 98.736328125 535.860351562 c 0,13,14
 141 689 141 689 525.736328125 855.32421875 c 1,15,-1
 507.532226562 941.012695312 l 1,16,-1
 620.952148438 1067.9453125 l 2,17,18
 657 1108 657 1108 663.736328125 1105.86035156 c 0,19,20
 672.047262768 1102.98364067 672.047262768 1102.98364067 683.913085938 1044.47851562 c 2,21,-1
 801.211914062 466.129882812 l 2,22,23
 835.946513571 294.26464844 835.946513571 294.26464844 1001.3125 294.264648438 c 2,24,-1
 1041 294.264648438 l 2,25,26
 1066.0078125 293.999917297 1066.0078125 293.999917297 1066.0078125 197 c 2,27,-1
 1066.0078125 124 l 2,28,29
 1066 0 1066 0 1041 0 c 2,0,-1
245.248046875 461.146484375 m 0,30,31
 300 407 300 407 520.625 405.110351562 c 0,32,33
 537 405 537 405 617 407 c 1,34,-1
 559.905273438 658.932617188 l 1,35,36
 302 580 302 580 244.844726562 498.614257812 c 0,37,38
 230 477 230 477 245.248046875 461.146484375 c 0,30,31
EndSplineSet
EndChar

StartChar: uniFEEB
Encoding: 65259 65259 243
Width: 1226
VWidth: 3747
GlyphClass: 2
Flags: W
AnchorPoint: "Anchor-10" 529.316 1360.63 basechar 0
AnchorPoint: "Anchor-7" 525.812 -225.537 basechar 0
LayerCount: 2
Fore
SplineSet
-4.9921875 0 m 2,0,1
 -60 0 -60 0 -60 144 c 2,2,-1
 -60 177 l 2,3,4
 -60 294.242719789 -60 294.242719789 -4.9921875 294.264648438 c 6,5,-1
 259.575195312 294.370117188 l 5,6,7
 98 362 98 362 139.666015625 569 c 0,8,9
 173.983009765 737.916370042 173.983009765 737.916370042 335.291015625 859.271484375 c 2,10,-1
 350.66015625 870.833984375 l 1,11,-1
 207.388671875 931.973632812 l 1,12,-1
 275 1147 l 1,13,-1
 672.987304688 954.346679688 l 2,14,15
 995 799 995 799 1080.89160156 663 c 0,16,17
 1191 488 1191 488 1090.1372981 259 c 0,18,19
 1012 83 1012 83 942.741210938 79.0263671875 c 0,20,21
 926 78 926 78 907.834960938 77.9765625 c 0,22,23
 753 78 753 78 508.219726562 154.71484375 c 1,24,25
 325 0 325 0 47.8837890625 0 c 2,26,-1
 -4.9921875 0 l 2,0,1
669.40625 387.6796875 m 1,27,28
 862 318 862 318 917.513671875 313.026367188 c 1,29,30
 962 378 962 378 961.578125 434.720703125 c 0,31,32
 961.999078236 550.745938661 961.999078236 550.745938661 777.044921875 633.127929688 c 2,33,-1
 762.78515625 639.479492188 l 1,34,35
 761 488 761 488 669.40625 387.6796875 c 1,27,28
515.747070312 439.302734375 m 1,36,37
 586 490 586 490 612.901367188 577 c 0,38,39
 631 636 631 636 611.026367188 683.224609375 c 0,40,41
 594 723 594 723 542.204101562 741.94921875 c 0,42,43
 517 751 517 751 492.192382812 751.069335938 c 0,44,45
 411 751 411 751 338.82421875 646.173828125 c 0,46,47
 314 610 314 610 313.995117188 578.350585938 c 0,48,49
 314 487 314 487 515.747070312 439.302734375 c 1,36,37
EndSplineSet
EndChar

StartChar: uniFEEC
Encoding: 65260 65260 244
Width: 928
VWidth: 3775
GlyphClass: 2
Flags: W
AnchorPoint: "Anchor-7" 331.199 -671.918 basechar 0
AnchorPoint: "Anchor-10" 472.953 1238.17 basechar 0
LayerCount: 2
Fore
SplineSet
933 0 m 2,0,-1
 913.534179688 0 l 2,1,2
 637 0 637 0 754.338867188 -441.317382812 c 1,3,-1
 559.059570312 -573.756835938 l 1,4,5
 230 -324 230 -324 162.346679688 0 c 1,6,-1
 -4.9921875 0 l 2,7,8
 -60 0 -60 0 -60 144 c 2,9,-1
 -60 177 l 2,10,11
 -60 294.264648438 -60 294.264648438 -4.9921875 294.264648438 c 6,12,-1
 154.189453125 294.264648438 l 5,13,14
 183 529 183 529 284.544921875 713 c 0,15,16
 398 921 398 921 472.638671875 921.204101562 c 0,17,18
 560 921 560 921 644.5546875 793 c 0,19,20
 756 625 756 625 755.502929688 494.012695312 c 0,21,22
 755 366 755 366 682 235 c 0,23,24
 567 30 567 30 332.004882812 -1.306640625 c 1,25,26
 418 -170 418 -170 514.331054688 -227.098632812 c 1,27,28
 654.070933151 294.264648438 654.070933151 294.264648438 911.763671875 294.264648438 c 6,29,-1
 933 294.264648438 l 6,30,31
 958.0078125 293.999917297 958.0078125 293.999917297 958.0078125 197 c 2,32,-1
 958.0078125 124 l 2,33,34
 958 0 958 0 933 0 c 2,0,-1
318.79296875 296.995117188 m 5,35,36
 615 309 615 309 615.705078125 426.110351562 c 0,37,38
 616 478 616 478 455.966796875 661.51171875 c 1,39,40
 353 490 353 490 318.79296875 296.995117188 c 5,35,36
EndSplineSet
EndChar

StartChar: uniFEEE
Encoding: 65262 65262 246
Width: 816
VWidth: 3781
GlyphClass: 2
Flags: W
AnchorPoint: "Anchor-7" 331.78 -681.673 basechar 0
AnchorPoint: "Anchor-10" 417.424 1132.08 basechar 0
LayerCount: 2
Fore
SplineSet
346 -506 m 0,0,1
 284 -538 284 -538 240 -542 c 0,2,3
 194 -546 194 -546 107 -492.140625 c 0,4,5
 -3 -424 -3 -424 -7.5107421875 -392.048828125 c 0,6,7
 -9 -382 -9 -382 68.7890625 -352.438476562 c 0,8,9
 381 -234 381 -234 491 -73.5925080059 c 0,10,11
 521 -30 521 -30 529 0 c 1,12,-1
 442.478515625 -0.5302734375 l 2,13,14
 88 -3 88 -3 86.46875 263.791992188 c 0,15,16
 86 335 86 335 113.46484375 431.396484375 c 0,17,18
 159 591 159 591 247.198242188 672.795898438 c 0,19,20
 312 734 312 734 403.116210938 733.521484375 c 0,21,22
 578 733 578 733 659.774414062 544.471679688 c 0,23,24
 709 431 709 431 719.279296875 294.479492188 c 1,25,-1
 821 294.264648438 l 2,26,27
 846.0078125 293.999917297 846.0078125 293.999917297 846.0078125 197 c 2,28,-1
 846.0078125 124 l 2,29,30
 846 0 846 0 821 0 c 2,31,-1
 707.053710938 0 l 17,32,33
 675.632245098 -170.370975871 675.632245098 -170.370975871 589.382528765 -293 c 4,34,35
 492.714112797 -430.44223191 492.714112797 -430.44223191 346 -506 c 0,0,1
555.087890625 287.495117188 m 1,36,37
 505 488 505 488 370.46484375 488.16015625 c 0,38,39
 282 488 282 488 255.198242188 402.6640625 c 0,40,41
 248 380 248 380 247.65625 361.212890625 c 0,42,43
 248.001729695 288.636636244 248.001729695 288.636636244 384.063476562 288.130859375 c 2,44,-1
 555.087890625 287.495117188 l 1,36,37
EndSplineSet
EndChar

StartChar: uniFEF0
Encoding: 65264 65264 248
Width: 1441
VWidth: 3753
GlyphClass: 2
Flags: W
AnchorPoint: "Anchor-10" 722.206 793.074 basechar 0
AnchorPoint: "Anchor-7" 634.979 -744.538 basechar 0
LayerCount: 2
Fore
SplineSet
679.056640625 -535.459960938 m 20,0,1
 378 -535 378 -535 234.629882812 -380.759765625 c 4,2,3
 100 -235 100 -235 99.7646484375 -22.623046875 c 4,4,5
 100 197 100 197 199.502929688 418.203125 c 5,6,-1
 317.973632812 379.137695312 l 5,7,8
 266 208 266 208 265.984375 85.0478515625 c 4,9,10
 266 -50 266 -50 328.420898438 -126.60546875 c 4,11,12
 432 -255 432 -255 678.890625 -254.623046875 c 4,13,14
 1000 -255 1000 -255 1143.7265625 -128.350585938 c 0,15,16
 1168 -107 1168 -107 1165.81445312 -90.14453125 c 0,17,18
 1164 -74 1164 -74 1150.95214844 -61.611328125 c 0,19,20
 1109 -22 1109 -22 853.594726562 3.1611328125 c 0,21,22
 825 6 825 6 824.991210938 42.8935546875 c 0,23,24
 825 48 825 48 825.547851562 53.962890625 c 0,25,26
 848 294 848 294 951.348632812 294.264648438 c 2,27,-1
 1446 294.264648438 l 2,28,29
 1470.99997868 294.264648438 1470.99997868 294.264648438 1471.0078125 197 c 2,30,-1
 1471.0078125 124 l 2,31,32
 1471.0078125 0 1471.0078125 0 1446 0 c 2,33,-1
 1290.75292969 0 l 1,34,35
 1328 -42 1328 -42 1327.66113281 -110.701171875 c 0,36,37
 1327 -287 1327 -287 1141.6171875 -412.669921875 c 0,38,39
 962 -535 962 -535 679.056640625 -535.459960938 c 20,0,1
EndSplineSet
EndChar

StartChar: uniFEFB
Encoding: 65275 65275 259
Width: 1197
VWidth: 3713
GlyphClass: 3
Flags: W
AnchorPoint: "Anchor-9" 901.898 1531.79 baselig 0
AnchorPoint: "Anchor-9" 204.384 1437.96 baselig 1
AnchorPoint: "Anchor-6" 887.449 -171.557 baselig 0
AnchorPoint: "Anchor-6" 250.544 -256.293 baselig 1
LayerCount: 2
Fore
SplineSet
716.928710938 331.998046875 m 1,0,1
 875 425 875 425 874.615234375 575.104492188 c 0,2,3
 874 774 874 774 815.794921875 1297.19238281 c 1,4,-1
 1002.66015625 1428.52734375 l 2,5,6
 1050 1461 1050 1461 1054 1457 c 0,7,8
 1062.20717044 1448.79282956 1062.20717044 1448.79282956 1062.53515625 1410 c 2,9,-1
 1069.05761719 638.549804688 l 2,10,11
 1072 302 1072 302 866 134 c 0,12,13
 668 -28 668 -28 237.138671875 -28.0380859375 c 1,14,15
 135 76 135 76 64.939453125 170.947265625 c 0,16,17
 16 237 16 237 92.8388671875 236.627929688 c 0,18,19
 397 236 397 236 532.30078125 266.65625 c 1,20,21
 388 745 388 745 76 1168 c 1,22,-1
 241 1301.69921875 l 2,23,24
 266 1322 266 1322 270 1320 c 0,25,26
 275 1318 275 1318 290.506835938 1294 c 0,27,28
 528 921 528 921 716.928710938 331.998046875 c 1,0,1
EndSplineSet
LCarets2: 1 0
Ligature2: "'rlig' Required Ligatures in Arabic lookup 16 subtable" uniFEDF uniFE8E
EndChar

StartChar: uniFEFC
Encoding: 65276 65276 260
Width: 1281
VWidth: 3713
GlyphClass: 3
Flags: W
AnchorPoint: "Anchor-9" 204.384 1437.96 baselig 1
AnchorPoint: "Anchor-9" 901.898 1531.79 baselig 0
AnchorPoint: "Anchor-6" 895.296 -200.599 baselig 0
AnchorPoint: "Anchor-6" 222.531 -247.661 baselig 1
LayerCount: 2
Fore
SplineSet
716.928710938 331.998046875 m 1,0,1
 873 426 873 426 874.615234375 565.104492188 c 0,2,3
 877 712 877 712 815.794921875 1297.19238281 c 1,4,-1
 1003.7265625 1429.37792969 l 2,5,6
 1049 1462 1049 1462 1054 1457 c 0,7,8
 1061.99638858 1448.00406284 1061.99638858 1448.00406284 1062.33789062 1408.85644531 c 2,9,-1
 1069.05761719 638.549804688 l 2,10,11
 1071 373 1071 373 1160.31054688 315.1953125 c 0,12,13
 1192.59183368 294.264648438 1192.59183368 294.264648438 1254.61132812 294.264648438 c 2,14,-1
 1286 294.264648438 l 2,15,16
 1311.0078125 293.999917297 1311.0078125 293.999917297 1311.0078125 197 c 2,17,-1
 1311.0078125 124 l 2,18,19
 1311 0 1311 0 1286 0 c 2,20,-1
 1234.27929688 0 l 2,21,22
 1010 0 1010 0 917.327148438 183.465820312 c 1,23,24
 708 -28 708 -28 237.138671875 -28.0380859375 c 1,25,26
 135 76 135 76 64.939453125 170.947265625 c 0,27,28
 16 237 16 237 92.8388671875 236.627929688 c 0,29,30
 396 236 396 236 532.30078125 266.65625 c 1,31,32
 388 745 388 745 76 1168 c 1,33,-1
 241 1301.69901609 l 2,34,35
 266 1322 266 1322 271 1320 c 0,36,37
 274 1319 274 1319 290.506443119 1294 c 0,38,39
 538 890 538 890 716.928710938 331.998046875 c 1,0,1
EndSplineSet
LCarets2: 1 0
Ligature2: "'rlig' Required Ligatures in Arabic lookup 16 subtable" uniFEE0 uniFE8E
EndChar

StartChar: arabic_dot
Encoding: 65536 -1 261
Width: 233
VWidth: 3240
GlyphClass: 2
Flags: W
LayerCount: 2
Fore
SplineSet
116.031230588 290.902766839 m 1,0,-1
 279.743664802 127.189433713 l 1,1,-1
 116.031230588 -36.5247983251 l 1,2,-1
 -47.682102539 127.189433713 l 1,3,-1
 116.031230588 290.902766839 l 1,0,-1
EndSplineSet
EndChar

StartChar: arabic_2dots
Encoding: 65537 -1 262
Width: 602
VWidth: 3240
GlyphClass: 2
Flags: W
LayerCount: 2
Fore
SplineSet
138.5390625 278.469726562 m 1,0,-1
 294.69140625 122.318359375 l 1,1,-1
 138.5390625 -33.8349609375 l 1,2,-1
 -17.6123046875 122.318359375 l 1,3,-1
 138.5390625 278.469726562 l 1,0,-1
462.002929688 278.469726562 m 1,4,-1
 618.155273438 122.318359375 l 1,5,-1
 462.002929688 -33.8349609375 l 1,6,-1
 305.8515625 122.318359375 l 1,7,-1
 462.002929688 278.469726562 l 1,4,-1
EndSplineSet
EndChar

StartChar: arabic_3dots
Encoding: 65538 -1 263
Width: 581
VWidth: 3240
GlyphClass: 2
Flags: W
LayerCount: 2
Fore
SplineSet
272.953125 97.564453125 m 5,0,-1
 124.8671875 -50.5234375 l 5,1,-1
 -23.220703125 97.564453125 l 5,2,-1
 124.8671875 245.651367188 l 5,3,-1
 272.953125 97.564453125 l 5,0,-1
308.623046875 97.564453125 m 5,4,-1
 456.709960938 245.651367188 l 5,5,-1
 604.795898438 97.564453125 l 5,6,-1
 456.709960938 -50.5234375 l 5,7,-1
 308.623046875 97.564453125 l 5,4,-1
290.500976562 487.220703125 m 1,8,-1
 438.586914062 339.1328125 l 1,9,-1
 290.500976562 191.044921875 l 1,10,-1
 142.413085938 339.1328125 l 1,11,-1
 290.500976562 487.220703125 l 1,8,-1
EndSplineSet
EndChar

StartChar: arabic_3dots_a
Encoding: 65539 -1 264
Width: 628
VWidth: 3240
GlyphClass: 2
Flags: W
LayerCount: 2
Fore
SplineSet
313.999023438 -253.104492188 m 5,0,-1
 165.913085938 -105.016601562 l 5,1,-1
 313.999023438 43.0712890625 l 5,2,-1
 462.086914062 -105.016601562 l 5,3,-1
 313.999023438 -253.104492188 l 5,0,-1
331.833984375 136.552734375 m 1,4,-1
 479.919921875 284.639648438 l 1,5,-1
 628.0078125 136.552734375 l 1,6,-1
 479.919921875 -11.53515625 l 1,7,-1
 331.833984375 136.552734375 l 1,4,-1
296.1640625 136.552734375 m 1,8,-1
 148.078125 -11.53515625 l 1,9,-1
 -0.0078125 136.552734375 l 1,10,-1
 148.078125 284.639648438 l 1,11,-1
 296.1640625 136.552734375 l 1,8,-1
EndSplineSet
EndChar

StartChar: uni066E.fina
Encoding: 65540 -1 265
Width: 1942
VWidth: 3753
GlyphClass: 2
Flags: W
AnchorPoint: "Anchor-10" 1044.57 1800.45 basechar 0
AnchorPoint: "Anchor-7" 975.416 -367.902 basechar 0
LayerCount: 2
Fore
SplineSet
1947 0 m 2,0,-1
 1928.80078125 0 l 2,1,2
 1661 0 1661 0 1578 231 c 5,3,4
 1363 0 1363 0 850.345703125 0 c 0,5,6
 489 0 489 0 307.043945312 99.7861328125 c 0,7,8
 97 216 97 216 96.4306640625 449.08203125 c 0,9,10
 96 637 96 637 182 805 c 1,11,-1
 292.756835938 769.514648438 l 1,12,13
 262 659 262 659 261.442382812 574.133789062 c 0,14,15
 261 502 261 502 298.154296875 446.359375 c 0,16,17
 401 291 401 291 877.231445312 290.80078125 c 0,18,19
 1231 291 1231 291 1420.43554688 387.731445312 c 0,20,21
 1569 463 1569 463 1604.1484375 606.638671875 c 1,22,-1
 1721 592 l 1,23,24
 1713 529 1713 529 1713 510 c 0,25,26
 1713 294.264648438 1713 294.264648438 1931.6875 294.264648438 c 2,27,-1
 1947 294.264648438 l 2,28,29
 1972.0078125 293.999917297 1972.0078125 293.999917297 1972.0078125 197 c 2,30,-1
 1972.0078125 124 l 2,31,32
 1972 0 1972 0 1947 0 c 2,0,-1
EndSplineSet
EndChar

StartChar: uni06A1.fina
Encoding: 65543 -1 266
Width: 1893
VWidth: 3748
GlyphClass: 2
Flags: W
AnchorPoint: "Anchor-10" 750.929 1980.5 basechar 0
AnchorPoint: "Anchor-7" 888.113 -452.891 basechar 0
LayerCount: 2
Fore
SplineSet
1675.61621094 315.041992188 m 1,0,1
 1711.51956308 295.264648438 1711.51956308 295.264648438 1869.29101562 295.264648438 c 2,2,-1
 1900 295.264648438 l 2,3,4
 1923.0078125 294.999910106 1923.0078125 294.999910106 1923.0078125 197 c 2,5,-1
 1923.0078125 124 l 2,6,7
 1923 0 1923 0 1900 0 c 2,8,-1
 1870.41796875 0 l 2,9,10
 1632 0 1632 0 1464.71582031 159.546875 c 5,11,12
 1258 0 1258 0 820.345703125 0 c 0,13,14
 489 0 489 0 307.043945312 99.7861328125 c 0,15,16
 97 216 97 216 96.4306640625 449.08203125 c 0,17,18
 96 637 96 637 182 805 c 1,19,-1
 292.756835938 769.514648438 l 1,20,21
 262 659 262 659 261.442382812 574.133789062 c 0,22,23
 261 502 261 502 298.154296875 446.359375 c 0,24,25
 401 291 401 291 819.143554688 290.80859375 c 0,26,27
 1130 291 1130 291 1246.79589844 321.790039062 c 1,28,29
 1158 425 1158 425 1157.6640625 569.083984375 c 0,30,31
 1158 683 1158 683 1233.0078125 797.125976562 c 0,32,33
 1332 946 1332 946 1480.59472656 945.807617188 c 0,34,35
 1607 945 1607 945 1707.90917969 799.649414062 c 0,36,37
 1781 694 1781 694 1780.890625 585.3984375 c 0,38,39
 1781 428 1781 428 1675.61621094 315.041992188 c 1,0,1
1354.5234375 459.868164062 m 0,40,41
 1435 390 1435 390 1470.08398438 390.356445312 c 0,42,43
 1505 390 1505 390 1562.24316406 444.598632812 c 0,44,45
 1620 500 1620 500 1619.31054688 541.310546875 c 0,46,47
 1619.01603622 581.795574842 1619.01603622 581.795574842 1563.00976562 636.025390625 c 0,48,49
 1520 678 1520 678 1463.69238281 678.26953125 c 0,50,51
 1413 679 1413 679 1369.6484375 632.4765625 c 0,52,53
 1319 577 1319 577 1318.58496094 533.798828125 c 0,54,55
 1319 491 1319 491 1354.5234375 459.868164062 c 0,40,41
EndSplineSet
EndChar

StartChar: uni06A1.init
Encoding: 65544 -1 267
Width: 822
VWidth: 3781
GlyphClass: 2
Flags: W
AnchorPoint: "Anchor-10" 487.044 2022.04 basechar 0
AnchorPoint: "Anchor-7" 434.877 -364.243 basechar 0
LayerCount: 2
Fore
SplineSet
-4.9921875 0 m 2,0,1
 -60 0 -60 0 -60 144 c 2,2,-1
 -60 177 l 2,3,4
 -60 294.264648438 -60 294.264648438 -4.9921875 294.264648438 c 6,5,-1
 199.006835938 294.264648438 l 6,6,7
 569.278670842 293.999800673 569.278670842 293.999800673 580.137695312 423.165039062 c 2,8,-1
 581.26953125 436.627929688 l 1,9,10
 485 418 485 418 383.252929688 418.279296875 c 0,11,12
 109 418 109 418 110.661132812 667 c 0,13,14
 111 707 111 707 117.7421875 754.473632812 c 0,15,16
 143 920 143 920 229.599609375 1021.97949219 c 0,17,18
 304 1109 304 1109 415.8515625 1108.66015625 c 0,19,20
 590 1109 590 1109 681.240234375 894 c 0,21,22
 741 753 741 753 741.366210938 517.068359375 c 0,23,24
 741 219 741 219 591.431640625 105.279296875 c 0,25,26
 452 0 452 0 193.461914062 0 c 2,27,-1
 -4.9921875 0 l 2,0,1
573.142578125 680.815429688 m 1,28,29
 529 867 529 867 385.165039062 866.450195312 c 0,30,31
 308 866 308 866 277.64453125 786.186523438 c 0,32,33
 255 727 255 727 278.981445312 695.8828125 c 0,34,35
 305 661 305 661 405.743164062 660.852539062 c 0,36,37
 515 661 515 661 573.142578125 680.815429688 c 1,28,29
EndSplineSet
EndChar

StartChar: uni06A1.medi
Encoding: 65545 -1 268
Width: 907
VWidth: 3748
GlyphClass: 2
Flags: W
AnchorPoint: "Anchor-10" 758.142 1701.72 basechar 0
AnchorPoint: "Anchor-7" 697.662 -357.303 basechar 0
LayerCount: 2
Fore
SplineSet
912 0 m 2,0,-1
 870.23046875 0 l 2,1,2
 647 0 647 0 475.729492188 170.129882812 c 5,3,4
 292 0 292 0 18.2158203125 0 c 2,5,-1
 -4.9921875 0 l 2,6,7
 -60 0 -60 0 -60 144 c 2,8,-1
 -60 177 l 2,9,10
 -60 294.264648438 -60 294.264648438 -4.9921875 294.264648438 c 2,11,-1
 17.4912109375 294.264648438 l 2,12,13
 189 294 189 294 260.135742188 331.790039062 c 1,14,15
 171 435 171 435 171.00390625 569.083984375 c 0,16,17
 171 683 171 683 246.34765625 797.125976562 c 0,18,19
 345 946 345 946 493.934570312 945.807617188 c 0,20,21
 620 945 620 945 721.249023438 799.649414062 c 0,22,23
 794 694 794 694 794.23046875 585.3984375 c 0,24,25
 794 438 794 438 688.956054688 325.041992188 c 1,26,27
 746.505146468 294.264648438 746.505146468 294.264648438 879.178710938 294.264648438 c 2,28,-1
 912 294.264648438 l 2,29,30
 937.0078125 293.999917297 937.0078125 293.999917297 937.0078125 197 c 2,31,-1
 937.0078125 124 l 2,32,33
 937 0 937 0 912 0 c 2,0,-1
367.86328125 459.868164062 m 0,34,35
 448 390 448 390 483.423828125 390.356445312 c 0,36,37
 518 390 518 390 575.583007812 444.598632812 c 0,38,39
 633 500 633 500 632.650390625 541.310546875 c 0,40,41
 632 584 632 584 576.349609375 636.025390625 c 0,42,43
 533 678 533 678 477.032226562 678.26953125 c 0,44,45
 426 679 426 679 382.98828125 632.4765625 c 0,46,47
 332 577 332 577 331.924804688 533.798828125 c 0,48,49
 332 491 332 491 367.86328125 459.868164062 c 0,34,35
EndSplineSet
EndChar

StartChar: uni066F.fina
Encoding: 65546 -1 269
Width: 1409
VWidth: 3781
GlyphClass: 2
Flags: W
AnchorPoint: "Anchor-10" 454.781 763.024 basechar 0
AnchorPoint: "Anchor-7" 376.041 -875.333 basechar 0
LayerCount: 2
Fore
SplineSet
1143.89453125 0.6376953125 m 1,0,-1
 1024.37304688 0.533203125 l 2,1,2
 670 0 670 0 668.36328125 264.85546875 c 0,3,4
 668 336 668 336 695.359375 432.459960938 c 0,5,6
 741 592 741 592 829.092773438 673.859375 c 0,7,8
 894 735 894 735 985.010742188 734.584960938 c 0,9,10
 1160 734 1160 734 1241.66894531 545.53515625 c 0,11,12
 1291 432 1291 432 1301.17382812 294.54296875 c 1,13,-1
 1414 294.264648438 l 2,14,15
 1439.0078125 293.999917297 1439.0078125 293.999917297 1439.0078125 197 c 2,16,-1
 1439.0078125 124 l 2,17,18
 1439 0 1439 0 1414 0 c 2,19,-1
 1292.67773438 0 l 1,20,21
 1288 -144 1288 -144 1256.57910156 -222.739257812 c 0,22,23
 1132 -536 1132 -536 679.056640625 -535.459960938 c 0,24,25
 368 -535 368 -535 224.629882812 -380.759765625 c 0,26,27
 90 -235 90 -235 89.7646484375 -22.623046875 c 0,28,29
 90 197 90 197 189.502929688 418.203125 c 1,30,-1
 307.973632812 379.137695312 l 1,31,32
 256 208 256 208 255.984375 85.0478515625 c 0,33,34
 256 -50 256 -50 318.420898438 -126.60546875 c 0,35,36
 422 -255 422 -255 678.890625 -254.623046875 c 0,37,38
 1039 -253 1039 -253 1128.01269531 -67.541015625 c 0,39,40
 1143 -36 1143 -36 1143.89453125 0.6376953125 c 1,0,-1
1136.98242188 288.55859375 m 1,41,42
 1087 489 1087 489 952.359375 489.223632812 c 0,43,44
 864 489 864 489 837.092773438 403.727539062 c 0,45,46
 830 381 830 381 829.55078125 362.276367188 c 0,47,48
 830.001866326 289.699720243 830.001866326 289.699720243 965.958007812 289.194335938 c 2,49,-1
 1136.98242188 288.55859375 l 1,41,42
EndSplineSet
EndChar

StartChar: arabic_gaf_bar
Encoding: 65550 -1 270
Width: 788
VWidth: 3142
GlyphClass: 2
Flags: W
LayerCount: 2
Fore
SplineSet
731.447265625 2045.67871094 m 6,0,-1
 713 1944 l 1,1,-1
 9 1684 l 1,2,-1
 31.98046875 1813.03027344 l 5,3,-1
 707.8046875 2068.04492188 l 6,4,5
 738 2079 738 2079 731.447265625 2045.67871094 c 6,0,-1
EndSplineSet
EndChar

StartChar: guillemotleft
Encoding: 171 171 279
Width: 1236
VWidth: 3386
Flags: W
LayerCount: 2
Fore
SplineSet
880.73046875 -9.9189453125 m 5,0,1
 576 410 576 410 576.541992188 488.243164062 c 4,2,3
 577 568 577 568 880.686523438 987.079101562 c 5,4,-1
 1125.86914062 987.079101562 l 5,5,-1
 1075.76855469 914.846679688 l 6,6,7
 836 569 836 569 835.002929688 487.725585938 c 4,8,9
 835 408.016601562 835 408.016601562 1075.69042969 62.3857421875 c 6,10,-1
 1126.04199219 -9.9189453125 l 5,11,-1
 880.73046875 -9.9189453125 l 5,0,1
390.73046875 -9.9189453125 m 5,12,13
 86 410 86 410 86.5419921875 488.243164062 c 4,14,15
 87 568 87 568 390.686523438 987.079101562 c 5,16,-1
 635.869140625 987.079101562 l 5,17,-1
 585.768554688 914.846679688 l 6,18,19
 346 569 346 569 345.002929688 487.725585938 c 4,20,21
 345 408.016601562 345 408.016601562 585.690429688 62.3857421875 c 6,22,-1
 636.041992188 -9.9189453125 l 5,23,-1
 390.73046875 -9.9189453125 l 5,12,13
EndSplineSet
EndChar

StartChar: guillemotright
Encoding: 187 187 280
Width: 1236
VWidth: 3386
Flags: W
LayerCount: 2
Fore
SplineSet
355.853515625 -9.9189453125 m 1,0,1
 110.541992188 -9.9189453125 l 1,2,-1
 160.893554688 62.3857421875 l 2,3,4
 401.583984375 408.016601562 401.583984375 408.016601562 401.581054688 487.725585938 c 0,5,6
 400.583984375 569 400.583984375 569 160.815429688 914.846679688 c 2,7,-1
 110.71484375 987.079101562 l 1,8,-1
 355.897460938 987.079101562 l 1,9,10
 659.583984375 568 659.583984375 568 660.041992188 488.243164062 c 0,11,12
 660.583984375 410 660.583984375 410 355.853515625 -9.9189453125 c 1,0,1
845.853515625 -9.9189453125 m 1,13,-1
 600.541992188 -9.9189453125 l 1,14,-1
 650.893554688 62.3857421875 l 2,15,16
 891.583984375 408.016601562 891.583984375 408.016601562 891.581054688 487.725585938 c 0,17,18
 890.583984375 569 890.583984375 569 650.815429688 914.846679688 c 2,19,-1
 600.71484375 987.079101562 l 1,20,-1
 845.897460938 987.079101562 l 1,21,22
 1149.58398438 568 1149.58398438 568 1150.04199219 488.243164062 c 0,23,24
 1150.58398438 410 1150.58398438 410 845.853515625 -9.9189453125 c 1,13,-1
EndSplineSet
EndChar

StartChar: exclam
Encoding: 33 33 289
Width: 676
VWidth: 9
Flags: W
LayerCount: 2
Fore
SplineSet
162.665039062 175.999023438 m 132,-1,1
 162.665039062 249.598632812 162.665039062 249.598632812 213.864257812 300.797851562 c 132,-1,2
 265.064453125 351.998046875 265.064453125 351.998046875 338.6640625 351.998046875 c 132,-1,3
 412.263671875 351.998046875 412.263671875 351.998046875 463.462890625 300.797851562 c 132,-1,4
 514.663085938 249.598632812 514.663085938 249.598632812 514.663085938 175.999023438 c 132,-1,5
 514.663085938 102.399414062 514.663085938 102.399414062 463.462890625 51.19921875 c 132,-1,6
 412.263671875 0 412.263671875 0 338.6640625 0 c 132,-1,7
 265.064453125 0 265.064453125 0 213.864257812 51.19921875 c 132,-1,0
 162.665039062 102.399414062 162.665039062 102.399414062 162.665039062 175.999023438 c 132,-1,1
422.784179688 599.147460938 m 6,8,9
 417.060546875 532.530273438 417.060546875 532.530273438 368.850585938 532.530273438 c 6,10,-1
 315.251953125 532.530273438 l 6,11,12
 261.078125 532.999023438 261.078125 532.999023438 254.481445312 599.794921875 c 6,13,-1
 187.822265625 1274.79980469 l 6,14,15
 170.0078125 1452.92382812 170.0078125 1452.92382812 325 1452.92382812 c 6,16,-1
 353.6640625 1452.92382812 l 6,17,18
 496.150390625 1453 496.150390625 1453 480.890625 1275.39941406 c 6,19,-1
 422.784179688 599.147460938 l 6,8,9
EndSplineSet
EndChar

StartChar: period
Encoding: 46 46 290
Width: 676
VWidth: 3395
Flags: W
LayerCount: 2
Fore
SplineSet
161.998046875 175.999023438 m 132,-1,1
 161.998046875 249.598632812 161.998046875 249.598632812 213.197265625 300.797851562 c 132,-1,2
 264.397460938 351.998046875 264.397460938 351.998046875 337.997070312 351.998046875 c 132,-1,3
 411.596679688 351.998046875 411.596679688 351.998046875 462.795898438 300.797851562 c 132,-1,4
 513.995117188 249.598632812 513.995117188 249.598632812 513.995117188 175.999023438 c 132,-1,5
 513.995117188 102.399414062 513.995117188 102.399414062 462.795898438 51.19921875 c 132,-1,6
 411.596679688 0 411.596679688 0 337.997070312 0 c 132,-1,7
 264.397460938 0 264.397460938 0 213.197265625 51.19921875 c 132,-1,0
 161.998046875 102.399414062 161.998046875 102.399414062 161.998046875 175.999023438 c 132,-1,1
EndSplineSet
EndChar

StartChar: colon
Encoding: 58 58 291
Width: 676
VWidth: 3395
Flags: W
LayerCount: 2
Fore
SplineSet
162.331054688 838.66015625 m 132,-1,1
 162.331054688 912.259765625 162.331054688 912.259765625 213.53125 963.459960938 c 132,-1,2
 264.73046875 1014.65917969 264.73046875 1014.65917969 338.330078125 1014.65917969 c 132,-1,3
 411.9296875 1014.65917969 411.9296875 1014.65917969 463.12890625 963.459960938 c 132,-1,4
 514.329101562 912.259765625 514.329101562 912.259765625 514.329101562 838.66015625 c 132,-1,5
 514.329101562 765.060546875 514.329101562 765.060546875 463.12890625 713.861328125 c 132,-1,6
 411.9296875 662.661132812 411.9296875 662.661132812 338.330078125 662.661132812 c 132,-1,7
 264.73046875 662.661132812 264.73046875 662.661132812 213.53125 713.861328125 c 132,-1,0
 162.331054688 765.060546875 162.331054688 765.060546875 162.331054688 838.66015625 c 132,-1,1
162.331054688 175.999023438 m 128,-1,9
 162.331054688 249.598632812 162.331054688 249.598632812 213.53125 300.797851562 c 128,-1,10
 264.73046875 351.998046875 264.73046875 351.998046875 338.330078125 351.998046875 c 128,-1,11
 411.9296875 351.998046875 411.9296875 351.998046875 463.12890625 300.797851562 c 128,-1,12
 514.329101562 249.598632812 514.329101562 249.598632812 514.329101562 175.999023438 c 128,-1,13
 514.329101562 102.399414062 514.329101562 102.399414062 463.12890625 51.19921875 c 128,-1,14
 411.9296875 0 411.9296875 0 338.330078125 0 c 128,-1,15
 264.73046875 0 264.73046875 0 213.53125 51.19921875 c 128,-1,8
 162.331054688 102.399414062 162.331054688 102.399414062 162.331054688 175.999023438 c 128,-1,9
EndSplineSet
EndChar

StartChar: uniFDFC
Encoding: 65020 65020 292
Width: 2565
VWidth: 3741
Flags: W
LayerCount: 2
Fore
SplineSet
2377 -82 m 0,0,1
 2270.06835938 -301.803710938 2270.06835938 -301.803710938 2074 -403 c 0,2,3
 2012 -435 2012 -435 1968 -439 c 0,4,5
 1922 -443 1922 -443 1835 -389.140625 c 0,6,7
 1725 -321 1725 -321 1720.48925781 -289.048828125 c 0,8,9
 1719 -279 1719 -279 1796.7890625 -249.438476562 c 0,10,11
 2208 -92 2208 -92 2264.03613281 123 c 0,12,13
 2272 154 2272 154 2269.51171875 176 c 0,14,15
 2256 290 2256 290 2099 487 c 1,16,-1
 2270.43457031 722 l 2,17,18
 2273 726 2273 726 2277.08886719 726.049804688 c 0,19,20
 2282 726 2282 726 2287.24804688 720 c 0,21,22
 2374 621 2374 621 2414.86621094 492 c 0,23,24
 2452 376 2452 376 2452.12695312 234.83203125 c 0,25,26
 2452 70 2452 70 2377 -82 c 0,0,1
1834.44824219 217.330078125 m 1,27,-1
 2005.10839844 46.669921875 l 1,28,-1
 1834.44824219 -123.993164062 l 1,29,-1
 1675.68457031 34.7734375 l 1,30,-1
 1516.91992188 -123.993164062 l 1,31,-1
 1346.25976562 46.669921875 l 1,32,-1
 1516.91992188 217.330078125 l 1,33,-1
 1675.68457031 58.56640625 l 1,34,-1
 1834.44824219 217.330078125 l 1,27,-1
1801.19921875 657.217773438 m 0,35,36
 1835 698 1835 698 1813.13769531 751.365234375 c 0,37,38
 1788 811 1788 811 1762 871 c 1,39,-1
 1873.375 1011.15332031 l 2,40,41
 1907 1053 1907 1053 1923.00585938 1038.73339844 c 0,42,43
 1929 1034 1929 1034 1931.97949219 1027.23144531 c 0,44,45
 1988 924 1988 924 1988.375 728.397460938 c 0,46,47
 1989 512 1989 512 1868.71386719 409.75390625 c 0,48,49
 1790.07693588 343.065246074 1790.07693588 343.065246074 1661.74511719 343.330078125 c 2,50,-1
 1570.88671875 343.517578125 l 6,51,52
 1358 344 1358 344 1302.65625 528 c 4,53,54
 1275 620 1275 620 1273.72949219 857.725585938 c 4,55,56
 1273 1143 1273 1143 1242.015625 1283.97851562 c 5,57,-1
 1428 1410.81054688 l 6,58,59
 1458 1431 1458 1431 1464 1429 c 4,60,61
 1472.0025493 1424.99872535 1472.0025493 1424.99872535 1471.72363281 1387.05664062 c 6,62,-1
 1469.15625 1037.80566406 l 4,63,64
 1466 733 1466 733 1501.55078125 678.68359375 c 4,65,66
 1535.82886501 626.26171875 1535.82886501 626.26171875 1604.11035156 626.26171875 c 6,67,-1
 1698.78125 626.26171875 l 2,68,69
 1775 626 1775 626 1801.19921875 657.217773438 c 0,35,36
1084.16699219 272.814453125 m 0,70,71
 1029 -236 1029 -236 600.852539062 -234.65625 c 0,72,73
 367 -234 367 -234 247.06640625 -103.403320312 c 0,74,75
 135 19 135 19 135.264648438 219.998046875 c 0,76,77
 136 428 136 428 221.04296875 616.415039062 c 1,78,-1
 338 575 l 1,79,80
 244 275 244 275 348.2421875 147.737304688 c 0,81,82
 430 47 430 47 583.591796875 47.2626953125 c 0,83,84
 806 47 806 47 871.59375 154.9375 c 0,85,86
 906 211 906 211 901.384765625 319.935546875 c 0,87,88
 893 542 893 542 830.811523438 1282.48144531 c 1,89,-1
 1011.7265625 1406.671875 l 2,90,91
 1045 1430 1045 1430 1051 1424 c 0,92,93
 1056.24023102 1418.75976898 1056.24023102 1418.75976898 1058.08105469 1370.390625 c 2,94,-1
 1078.57421875 831.916015625 l 1,95,96
 1081 705 1081 705 1086.40429688 524.002929688 c 128,-1,97
 1092 343 1092 343 1084.16699219 272.814453125 c 0,70,71
EndSplineSet
EndChar

StartChar: uniFD3E
Encoding: 64830 64830 294
Width: 1480
VWidth: 10
Flags: W
LayerCount: 2
Fore
SplineSet
772.205078125 724.634765625 m 4,0,1
 703.193359375 724.634765625 703.193359375 724.634765625 703.193359375 661.3828125 c 4,2,3
 703.193359375 618.80078125 703.193359375 618.80078125 742.145507812 602.638671875 c 4,4,5
 753.012695312 598.129882812 753.012695312 598.129882812 766.155273438 598.129882812 c 4,6,7
 829.69921875 598.129882812 829.69921875 598.129882812 829.69921875 671.806640625 c 4,8,9
 829.69921875 694.623046875 829.69921875 694.623046875 808.107421875 709.62890625 c 132,-1,10
 786.516601562 724.634765625 786.516601562 724.634765625 772.205078125 724.634765625 c 4,0,1
864.408203125 832.228515625 m 4,11,12
 963.03125 774.65625 963.03125 774.65625 963.03125 649.001953125 c 4,13,14
 963.03125 580.009765625 963.03125 580.009765625 905.42578125 522.404296875 c 132,-1,15
 847.8203125 464.796875 847.8203125 464.796875 766.446289062 464.796875 c 132,-1,16
 685.071289062 464.796875 685.071289062 464.796875 627.465820312 522.403320312 c 132,-1,17
 569.861328125 580.0078125 569.861328125 580.0078125 569.861328125 661.3828125 c 132,-1,18
 569.861328125 742.766601562 569.861328125 742.766601562 627.466796875 800.362304688 c 132,-1,19
 685.071289062 857.967773438 685.071289062 857.967773438 752.69140625 857.967773438 c 132,-1,20
 820.310546875 857.967773438 820.310546875 857.967773438 864.408203125 832.228515625 c 4,11,12
720.759765625 197.036132812 m 4,21,22
 775.326171875 -44.2021484375 775.326171875 -44.2021484375 937.100585938 -215.504882812 c 6,23,-1
 979.188476562 -260.072265625 l 5,24,-1
 954.627929688 -203.907226562 l 6,25,26
 867.194335938 -4.2666015625 867.194335938 -4.2666015625 833.46875 194.563476562 c 4,27,28
 827.66796875 228.616210938 827.66796875 228.616210938 852.03515625 252.982421875 c 6,29,-1
 893.502929688 294.450195312 l 6,30,31
 913.447265625 313.9765625 913.447265625 313.9765625 940.643554688 313.9765625 c 6,32,-1
 1121.3828125 313.9765625 l 5,33,-1
 1121.3828125 1025.34277344 l 5,34,-1
 940.643554688 1025.34277344 l 6,35,36
 913.309570312 1025.0625 913.309570312 1025.0625 893.502929688 1044.86914062 c 6,37,-1
 848.9921875 1089.37988281 l 6,38,39
 824.528320312 1113.59277344 824.528320312 1113.59277344 830.302734375 1147.04199219 c 4,40,41
 870.439453125 1392.26464844 870.439453125 1392.26464844 968.153320312 1608.12109375 c 6,42,-1
 992.721679688 1662.39453125 l 5,43,-1
 950.848632812 1620.01660156 l 6,44,45
 773.821289062 1440.53515625 773.821289062 1440.53515625 710.297851562 1133.72753906 c 4,46,47
 706.26953125 1113.23925781 706.26953125 1113.23925781 691.915039062 1098.88574219 c 6,48,-1
 637.8984375 1044.86914062 l 6,49,50
 618.936523438 1025.34277344 618.936523438 1025.34277344 590.7578125 1025.34277344 c 6,51,-1
 410.018554688 1025.34277344 l 5,52,-1
 410.018554688 844.6015625 l 6,53,54
 409.58984375 816.55859375 409.58984375 816.55859375 390.4921875 797.461914062 c 6,55,-1
 262.689453125 669.659179688 l 5,56,-1
 390.491210938 541.858398438 l 6,57,58
 410.018554688 522.240234375 410.018554688 522.240234375 410.018554688 494.717773438 c 6,59,-1
 410.018554688 313.9765625 l 5,60,-1
 590.7578125 313.9765625 l 6,61,62
 618.75 313.596679688 618.75 313.596679688 637.897460938 294.450195312 c 6,63,-1
 702.876953125 229.473632812 l 6,64,65
 716.795898438 215.46484375 716.795898438 215.46484375 720.759765625 197.036132812 c 4,21,22
595.111328125 148.676757812 m 5,66,-1
 563.14453125 180.643554688 l 5,67,-1
 343.3515625 180.643554688 l 6,68,69
 319.998046875 180.265625 319.998046875 180.265625 297.857421875 200.02734375 c 4,70,71
 276.685546875 218.301757812 276.685546875 218.301757812 276.685546875 247.309570312 c 6,72,-1
 276.685546875 467.104492188 l 5,73,-1
 121.268554688 622.517578125 l 6,74,75
 73.966796875 669.498046875 73.966796875 669.498046875 121.268554688 716.799804688 c 6,76,-1
 276.685546875 872.215820312 l 5,77,-1
 276.685546875 1092.00878906 l 6,78,79
 276.264648438 1115.7265625 276.264648438 1115.7265625 295.694335938 1137.26464844 c 4,80,81
 314.91796875 1158.67480469 314.91796875 1158.67480469 343.3515625 1158.67480469 c 6,82,-1
 563.14453125 1158.67480469 l 5,83,-1
 583.202148438 1178.734375 l 5,84,85
 702.928710938 1771.72265625 702.928710938 1771.72265625 1197.37988281 1915.10742188 c 4,86,87
 1243.72558594 1928.52148438 1243.72558594 1928.52148438 1263.66796875 1881.65429688 c 4,88,89
 1273.59179688 1857.0546875 1273.59179688 1857.0546875 1264.06933594 1804.26367188 c 5,90,91
 1192.52636719 1739.72265625 1192.52636719 1739.72265625 1155.64160156 1676.62597656 c 4,92,93
 1118.92675781 1613.85644531 1118.92675781 1613.85644531 1101.62011719 1578.4921875 c 4,94,95
 1006.92675781 1383.45800781 1006.92675781 1383.45800781 967.353515625 1158.67480469 c 5,96,-1
 1188.04882812 1158.67480469 l 6,97,98
 1223.45898438 1158.39257812 1223.45898438 1158.39257812 1239.33398438 1135.01660156 c 4,99,100
 1254.71484375 1110.95410156 1254.71484375 1110.95410156 1254.71484375 1092.00878906 c 6,101,-1
 1254.71484375 247.309570312 l 6,102,103
 1254.39257812 223.999023438 1254.39257812 223.999023438 1235.70605469 202.055664062 c 4,104,105
 1217.3828125 180.643554688 1217.3828125 180.643554688 1188.04882812 180.643554688 c 6,106,-1
 971.369140625 180.643554688 l 5,107,108
 1052.79296875 -241.065429688 1052.79296875 -241.065429688 1258.48339844 -407.157226562 c 4,109,110
 1323.72460938 -459.73046875 1323.72460938 -459.73046875 1202.02050781 -524.26953125 c 5,111,112
 722.12890625 -382.930664062 722.12890625 -382.930664062 595.111328125 148.676757812 c 5,66,-1
EndSplineSet
EndChar

StartChar: uniFD3F
Encoding: 64831 64831 295
Width: 1480
VWidth: 10
Flags: W
LayerCount: 2
Fore
SplineSet
707.1328125 724.634765625 m 4,0,1
 692.821289062 724.634765625 692.821289062 724.634765625 671.23046875 709.62890625 c 132,-1,2
 649.638671875 694.623046875 649.638671875 694.623046875 649.638671875 671.806640625 c 4,3,4
 649.638671875 598.129882812 649.638671875 598.129882812 713.182617188 598.129882812 c 4,5,6
 726.325195312 598.129882812 726.325195312 598.129882812 737.192382812 602.638671875 c 4,7,8
 776.14453125 618.80078125 776.14453125 618.80078125 776.14453125 661.3828125 c 4,9,10
 776.14453125 724.634765625 776.14453125 724.634765625 707.1328125 724.634765625 c 4,0,1
614.9296875 832.228515625 m 4,11,12
 659.02734375 857.967773438 659.02734375 857.967773438 726.646484375 857.967773438 c 132,-1,13
 794.266601562 857.967773438 794.266601562 857.967773438 851.87109375 800.362304688 c 132,-1,14
 909.4765625 742.766601562 909.4765625 742.766601562 909.4765625 661.3828125 c 132,-1,15
 909.4765625 580.0078125 909.4765625 580.0078125 851.872070312 522.403320312 c 132,-1,16
 794.266601562 464.796875 794.266601562 464.796875 712.891601562 464.796875 c 132,-1,17
 631.517578125 464.796875 631.517578125 464.796875 573.912109375 522.404296875 c 132,-1,18
 516.306640625 580.009765625 516.306640625 580.009765625 516.306640625 649.001953125 c 4,19,20
 516.306640625 774.65625 516.306640625 774.65625 614.9296875 832.228515625 c 4,11,12
758.578125 197.036132812 m 4,21,22
 762.541992188 215.46484375 762.541992188 215.46484375 776.4609375 229.473632812 c 6,23,-1
 841.440429688 294.450195312 l 6,24,25
 860.587890625 313.596679688 860.587890625 313.596679688 888.580078125 313.9765625 c 6,26,-1
 1069.31933594 313.9765625 l 5,27,-1
 1069.31933594 494.717773438 l 6,28,29
 1069.31933594 522.240234375 1069.31933594 522.240234375 1088.84667969 541.858398438 c 6,30,-1
 1216.6484375 669.659179688 l 5,31,-1
 1088.84570312 797.461914062 l 6,32,33
 1069.74804688 816.55859375 1069.74804688 816.55859375 1069.31933594 844.6015625 c 6,34,-1
 1069.31933594 1025.34277344 l 5,35,-1
 888.580078125 1025.34277344 l 6,36,37
 860.401367188 1025.34277344 860.401367188 1025.34277344 841.439453125 1044.86914062 c 6,38,-1
 787.422851562 1098.88574219 l 6,39,40
 773.068359375 1113.23925781 773.068359375 1113.23925781 769.040039062 1133.72753906 c 4,41,42
 705.516601562 1440.53515625 705.516601562 1440.53515625 528.489257812 1620.01660156 c 6,43,-1
 486.616210938 1662.39453125 l 5,44,-1
 511.184570312 1608.12109375 l 6,45,46
 608.8984375 1392.26464844 608.8984375 1392.26464844 649.03515625 1147.04199219 c 4,47,48
 654.809570312 1113.59277344 654.809570312 1113.59277344 630.345703125 1089.37988281 c 6,49,-1
 585.834960938 1044.86914062 l 6,50,51
 566.028320312 1025.0625 566.028320312 1025.0625 538.694335938 1025.34277344 c 6,52,-1
 357.955078125 1025.34277344 l 5,53,-1
 357.955078125 313.9765625 l 5,54,-1
 538.694335938 313.9765625 l 6,55,56
 565.890625 313.9765625 565.890625 313.9765625 585.834960938 294.450195312 c 6,57,-1
 627.302734375 252.982421875 l 6,58,59
 651.669921875 228.616210938 651.669921875 228.616210938 645.869140625 194.563476562 c 4,60,61
 612.143554688 -4.2666015625 612.143554688 -4.2666015625 524.709960938 -203.907226562 c 6,62,-1
 500.149414062 -260.072265625 l 5,63,-1
 542.237304688 -215.504882812 l 6,64,65
 704.01171875 -44.2021484375 704.01171875 -44.2021484375 758.578125 197.036132812 c 4,21,22
884.2265625 148.676757812 m 5,66,67
 757.208984375 -382.930664062 757.208984375 -382.930664062 277.317382812 -524.26953125 c 5,68,69
 155.61328125 -459.73046875 155.61328125 -459.73046875 220.854492188 -407.157226562 c 4,70,71
 426.544921875 -241.065429688 426.544921875 -241.065429688 507.96875 180.643554688 c 5,72,-1
 291.2890625 180.643554688 l 6,73,74
 261.955078125 180.643554688 261.955078125 180.643554688 243.631835938 202.055664062 c 4,75,76
 224.9453125 223.999023438 224.9453125 223.999023438 224.623046875 247.309570312 c 6,77,-1
 224.623046875 1092.00878906 l 6,78,79
 224.623046875 1110.95410156 224.623046875 1110.95410156 240.00390625 1135.01660156 c 4,80,81
 255.87890625 1158.39257812 255.87890625 1158.39257812 291.2890625 1158.67480469 c 6,82,-1
 511.984375 1158.67480469 l 5,83,84
 472.411132812 1383.45800781 472.411132812 1383.45800781 377.717773438 1578.4921875 c 4,85,86
 360.411132812 1613.85644531 360.411132812 1613.85644531 323.696289062 1676.62597656 c 4,87,88
 286.811523438 1739.72265625 286.811523438 1739.72265625 215.268554688 1804.26367188 c 5,89,90
 205.74609375 1857.0546875 205.74609375 1857.0546875 215.669921875 1881.65429688 c 4,91,92
 235.612304688 1928.52148438 235.612304688 1928.52148438 281.958007812 1915.10742188 c 4,93,94
 776.409179688 1771.72265625 776.409179688 1771.72265625 896.135742188 1178.734375 c 5,95,-1
 916.193359375 1158.67480469 l 5,96,-1
 1135.98632812 1158.67480469 l 6,97,98
 1164.41992188 1158.67480469 1164.41992188 1158.67480469 1183.64355469 1137.26464844 c 4,99,100
 1203.07324219 1115.7265625 1203.07324219 1115.7265625 1202.65234375 1092.00878906 c 6,101,-1
 1202.65234375 872.215820312 l 5,102,-1
 1358.06933594 716.799804688 l 6,103,104
 1405.37109375 669.498046875 1405.37109375 669.498046875 1358.06933594 622.517578125 c 6,105,-1
 1202.65234375 467.104492188 l 5,106,-1
 1202.65234375 247.309570312 l 6,107,108
 1202.65234375 218.301757812 1202.65234375 218.301757812 1181.48046875 200.02734375 c 4,109,110
 1159.33984375 180.265625 1159.33984375 180.265625 1135.98632812 180.643554688 c 6,111,-1
 916.193359375 180.643554688 l 5,112,-1
 884.2265625 148.676757812 l 5,66,67
EndSplineSet
EndChar

StartChar: NameMe.303
Encoding: 65562 -1 296
Width: 612
VWidth: 3713
Flags: W
LayerCount: 2
Fore
SplineSet
-4.9921875 0 m 2,0,1
 -60 0 -60 0 -60 144 c 2,2,-1
 -60 177 l 2,3,4
 -60 294.264648438 -60 294.264648438 -4.9921875 294.264648438 c 2,5,-1
 26.5546875 294.264648438 l 2,6,7
 229 294 229 294 270 358 c 0,8,9
 290.037002337 388.53257499 290.037002337 388.53257499 283.952148438 557.104492188 c 0,10,11
 279 706 279 706 228 1209 c 5,12,-1
 410.865234375 1347.33496094 l 6,13,14
 459 1384 459 1384 465 1381 c 4,15,16
 469.688632463 1379.12454701 469.688632463 1379.12454701 470.544921875 1328.73144531 c 6,17,-1
 483.89453125 543.099609375 l 2,18,19
 487.052895151 339.591722595 487.052895151 339.591722595 425.59765625 214.663085938 c 0,20,21
 320 0 320 0 20.892578125 0 c 2,22,-1
 -4.9921875 0 l 2,0,1
EndSplineSet
EndChar

StartChar: NameMe.304
Encoding: 65563 -1 297
Width: 651
VWidth: 3713
Flags: W
LayerCount: 2
Fore
SplineSet
656 0 m 6,0,-1
 607.337890625 0 l 6,1,2
 398 0 398 0 314.130859375 158.796875 c 1,3,4
 219 0 219 0 20.2724609375 0 c 2,5,-1
 -4.9921875 0 l 2,6,7
 -60 0 -60 0 -60 144 c 2,8,-1
 -60 177 l 2,9,10
 -60 294.264648438 -60 294.264648438 -4.9921875 294.264648438 c 2,11,-1
 26.40234375 294.264648438 l 2,12,13
 139 294 139 294 187.841796875 337.883789062 c 0,14,15
 248 392 248 392 242.479492188 608.908203125 c 0,16,17
 239 751 239 751 218.598632812 1070.52734375 c 1,18,-1
 386.263671875 1192.54785156 l 2,19,20
 427 1222 427 1222 433 1220 c 0,21,22
 440.586914062 1218.10327148 440.586914062 1218.10327148 440.586914062 1165.72558594 c 2,23,-1
 440.586914062 631.713867188 l 2,24,25
 441 396 441 396 473.53515625 348.184570312 c 0,26,27
 510.8170141 294.264648438 510.8170141 294.264648438 617.803710938 294.264648438 c 6,28,-1
 656 294.264648438 l 6,29,30
 681.0078125 293.999917297 681.0078125 293.999917297 681.0078125 197 c 6,31,-1
 681.0078125 124 l 6,32,33
 681 0 681 0 656 0 c 6,0,-1
EndSplineSet
EndChar

StartChar: NameMe.306
Encoding: 65566 -1 299
Width: 541
VWidth: 3713
Flags: W
LayerCount: 2
Fore
SplineSet
546 0 m 6,0,-1
 504.204101562 0 l 6,1,2
 347 0 347 0 267.064453125 64 c 0,3,4
 144.977680453 161.017736499 144.977680453 161.017736499 146.89453125 528.56640625 c 2,5,6
 147.333007812 612.642578125 l 2,7,8
 149 939 149 939 92.19921875 1154.79199219 c 1,9,-1
 272.264648438 1290.125 l 2,10,11
 310 1319 310 1319 315 1317 c 0,12,13
 321 1315 321 1315 323.202148438 1271.99121094 c 0,14,15
 335.401442723 1039.41150248 335.401442723 1039.41150248 338.198242188 828.810546875 c 2,16,-1
 340.711914062 639.529296875 l 2,17,18
 344 405 344 405 380.315429688 349.045898438 c 0,19,20
 415.828436522 294.264648438 415.828436522 294.264648438 520.215820312 294.264648438 c 6,21,-1
 546 294.264648438 l 6,22,23
 571.0078125 293.999917297 571.0078125 293.999917297 571.0078125 177 c 6,24,-1
 571.0078125 124 l 6,25,26
 571 0 571 0 546 0 c 6,0,-1
EndSplineSet
EndChar

StartChar: uni06C1
Encoding: 1729 1729 300
Width: 972
VWidth: 2424
Flags: W
AnchorPoint: "Anchor-7" 459.202 -199.801 basechar 0
AnchorPoint: "Anchor-10" 603.045 1189.49 basechar 0
LayerCount: 2
Fore
SplineSet
912.953125 0 m 2,0,1
 670 0 670 0 614.8828125 160.456054688 c 0,2,3
 598 209 598 209 589.158203125 349 c 0,4,5
 586 398 586 398 552 373.0390625 c 0,6,7
 525 353 525 353 491.021484375 309.676757812 c 0,8,9
 428 229 428 229 363.50390625 103.346679688 c 0,10,11
 258 -99 258 -99 249.735351562 -122.735351562 c 1,12,-1
 86.1630859375 -42.1982421875 l 1,13,14
 290.884869107 485.408318992 290.884869107 485.408318992 428.526367188 589.163085938 c 4,15,16
 517 656 517 656 604.729492188 656.264648438 c 0,17,18
 795 656 795 656 813.897460938 357.014648438 c 0,19,20
 816 323 816 323 845.4296875 302.538085938 c 0,21,22
 869.227380508 285.840458696 869.227380508 285.840458696 926.279296875 285.012695312 c 2,23,-1
 977.836914062 284.264648438 l 2,24,25
 1002.84472656 284.001633062 1002.84472656 284.001633062 1002.84472656 197 c 2,26,-1
 1002.84472656 124 l 2,27,28
 1003 0 1003 0 977.836914062 0 c 2,29,-1
 912.953125 0 l 2,0,1
EndSplineSet
EndChar

StartChar: NameMe.65567
Encoding: 65567 -1 304
Width: 678
VWidth: 3745
Flags: W
LayerCount: 2
Fore
SplineSet
116.08956032 -17.0316666443 m 2,0,1
 173.881546889 -45.0010327417 173.881546889 -45.0010327417 249.610481242 -44.3407847673 c 0,2,3
 397 -43 397 -43 457.475173809 26.942872367 c 0,4,5
 467 38 467 38 454.905022523 43.3918015616 c 0,6,7
 414 59 414 59 361.391685953 76.9099829783 c 0,8,9
 233 120 233 120 278.309656242 238.116095775 c 0,10,11
 340 398 340 398 462.990187312 448.113662535 c 0,12,13
 541 480 541 480 647.101831198 446.805164187 c 1,14,15
 642 390 642 390 619.368424322 296.36720414 c 1,16,-1
 591.533203125 298.688476562 l 2,17,18
 475 308 475 308 414.353832945 224.150037578 c 1,19,-1
 520.698992052 188.728084904 l 2,20,21
 594 164 594 164 593.565229538 79.0053021481 c 128,-1,22
 593 -6 593 -6 543.69450152 -70.5759782485 c 0,23,24
 449 -195 449 -195 248.998044859 -194.874032018 c 0,25,26
 143 -195 143 -195 42.9836386729 -153.997652607 c 1,27,-1
 96.1302283512 -7.3720252991 l 1,28,-1
 116.08956032 -17.0316666443 l 2,0,1
EndSplineSet
EndChar

StartChar: NameMe.65541
Encoding: 65541 -1 305
Width: 576
VWidth: 3752
Flags: W
AnchorPoint: "Anchor-10" 323.261 1271.2 basechar 0
AnchorPoint: "Anchor-7" 350.876 -249.875 basechar 0
LayerCount: 2
Fore
SplineSet
300.095703125 372.633789062 m 0,0,1
 300 455 300 455 217 649 c 1,2,-1
 352.908203125 824.598632812 l 2,3,4
 376 855 376 855 383.147460938 854.885742188 c 0,5,6
 390 855 390 855 407.532226562 824.598632812 c 0,7,8
 495 674 495 674 495.9296875 471.596679688 c 0,9,10
 496 271 496 271 406 156.5 c 0,11,12
 285 0 285 0 84.748046875 0 c 2,13,-1
 -4.9921875 0 l 2,14,15
 -60 0 -60 0 -60 144 c 2,16,-1
 -60 177 l 2,17,18
 -60 294.265165385 -60 294.265165385 -4.9921875 294.264648438 c 2,19,-1
 98.9228515625 294.263671875 l 2,20,21
 262 294 262 294 292.576171875 339.122070312 c 0,22,23
 300 350 300 350 300.095703125 372.633789062 c 0,0,1
EndSplineSet
EndChar

StartChar: NameMe.65542
Encoding: 65542 -1 306
Width: 688
VWidth: 3731
Flags: W
AnchorPoint: "Anchor-10" 386.951 1169.04 basechar 0
AnchorPoint: "Anchor-7" 361.317 -208.84 basechar 0
LayerCount: 2
Fore
SplineSet
693 0 m 6,0,-1
 672.389648438 0 l 6,1,2
 473 0 473 0 372.943359375 158.827148438 c 5,3,4
 269 0 269 0 78.5009765625 0 c 6,5,-1
 -4.9921875 0 l 6,6,7
 -60 0 -60 0 -60 144 c 6,8,-1
 -60 177 l 6,9,10
 -60 294.264648438 -60 294.264648438 -4.9921875 294.264648438 c 6,11,-1
 73.849609375 294.264648438 l 6,12,13
 285.450708968 293.999435097 285.450708968 293.999435097 298.16796875 442.487304688 c 6,14,-1
 312.883789062 614.310546875 l 5,15,-1
 456.211914062 614.374023438 l 5,16,-1
 471.724609375 445.174804688 l 6,17,18
 485.975009329 294.264648438 485.975009329 294.264648438 672.548828125 294.264648438 c 6,19,-1
 693 294.264648438 l 6,20,21
 718.0078125 293.999917297 718.0078125 293.999917297 718.0078125 197 c 6,22,-1
 718.0078125 124 l 6,23,24
 718 0 718 0 693 0 c 6,0,-1
EndSplineSet
EndChar
